SplineFontDB: 3.0
FontName: ocr-pbi-canonique
FullName: ocr-pbi-canonique
FamilyName: ocr-pbi-canonique
Weight: Book
Copyright: Generated from MetaFont bitmap by mftrace 1.2.18, http://www.xs4all.nl/~hanwen/mftrace/ 
Version: 001.001
ItalicAngle: 0
UnderlinePosition: -250
UnderlineWidth: 50
Ascent: 800
Descent: 200
InvalidEm: 0
sfntRevision: 0x00010041
LayerCount: 2
Layer: 0 1 "Arri+AOgA-re" 1
Layer: 1 1 "Avant" 0
XUID: [1021 976 309835248 12887470]
StyleMap: 0x0000
FSType: 0
OS2Version: 1
OS2_WeightWidthSlopeOnly: 0
OS2_UseTypoMetrics: 0
CreationTime: 1462130668
ModificationTime: 1468329760
PfmFamily: 17
TTFWeight: 400
TTFWidth: 5
LineGap: 90
VLineGap: 0
Panose: 2 0 5 9 0 0 0 0 0 0
OS2TypoAscent: 800
OS2TypoAOffset: 0
OS2TypoDescent: -200
OS2TypoDOffset: 0
OS2TypoLinegap: 90
OS2WinAscent: 919
OS2WinAOffset: 0
OS2WinDescent: 320
OS2WinDOffset: 0
HheadAscent: 919
HheadAOffset: 0
HheadDescent: -320
HheadDOffset: 0
OS2SubXSize: 650
OS2SubYSize: 700
OS2SubXOff: 0
OS2SubYOff: 140
OS2SupXSize: 650
OS2SupYSize: 700
OS2SupXOff: 0
OS2SupYOff: 480
OS2StrikeYSize: 49
OS2StrikeYPos: 258
OS2Vendor: 'PfEd'
OS2CodePages: 00000001.00000000
OS2UnicodeRanges: 8000002f.40000000.00000000.00000000
DEI: 91125
ShortTable: maxp 16
  1
  0
  156
  134
  5
  146
  4
  2
  0
  1
  1
  0
  64
  0
  2
  1
EndShort
LangName: 1033 "" "" "" "FontForge 2.0 : ocr-pbi-canonique : 1-5-2016"
GaspTable: 1 65535 2 0
Encoding: UnicodeBmp
UnicodeInterp: none
NameList: AGL For New Fonts
DisplaySize: -48
AntiAlias: 1
FitToEm: 0
WinInfo: 29 29 12
Grid
-1000 680 m 0
 2000 680 l 1024
EndSplineSet
BeginChars: 65540 162

StartChar: exclam
Encoding: 33 33 4
Width: 654
GlyphClass: 2
Flags: W
LayerCount: 2
Fore
SplineSet
317 746 m 0,0,1
 318 746 318 746 322.5 746.5 c 128,-1,2
 327 747 327 747 329 747 c 0,3,4
 344 746 344 746 352 736 c 0,5,6
 359 729 359 729 359.5 710 c 128,-1,7
 360 691 360 691 360 520 c 2,8,-1
 360 320 l 1,9,-1
 357 314 l 2,10,11
 352 306 352 306 341 300 c 0,12,13
 328 293 328 293 314 300 c 0,14,15
 303 306 303 306 298 314 c 2,16,-1
 296 320 l 1,17,-1
 295 520 l 2,18,19
 295 692 295 692 295.5 710.5 c 128,-1,20
 296 729 296 729 302 735 c 0,21,22
 311 744 311 744 317 746 c 0,0,1
294 52 m 0,23,24
 297 53 297 53 329 53 c 0,25,26
 356 53 356 53 364 50 c 0,27,28
 375 44 375 44 380 35 c 0,29,30
 382 30 382 30 382 0 c 128,-1,31
 382 -30 382 -30 380 -34 c 0,32,33
 375 -45 375 -45 362 -51 c 0,34,35
 358 -52 358 -52 327 -52 c 2,36,-1
 296 -52 l 1,37,-1
 290 -50 l 2,38,39
 278 -44 278 -44 274 -32 c 0,40,41
 272 -26 272 -26 271.5 0 c 128,-1,42
 271 26 271 26 273 32 c 0,43,44
 279 47 279 47 294 52 c 0,23,24
EndSplineSet
EndChar

StartChar: quotedbl
Encoding: 34 34 5
Width: 654
GlyphClass: 2
Flags: W
LayerCount: 2
Fore
SplineSet
223 746 m 0,0,1
 224 746 224 746 228.5 746.5 c 128,-1,2
 233 747 233 747 235 747 c 0,3,4
 250 746 250 746 258 736 c 0,5,6
 264 729 264 729 265 722 c 128,-1,7
 266 715 266 715 266 678 c 2,8,-1
 266 636 l 1,9,-1
 263 631 l 2,10,11
 258 621 258 621 248 616 c 0,12,13
 242 614 242 614 234 614 c 0,14,15
 225 614 225 614 220 616 c 0,16,17
 210 621 210 621 204 631 c 2,18,-1
 202 636 l 1,19,-1
 201 678 l 2,20,21
 201 714 201 714 202 721.5 c 128,-1,22
 203 729 203 729 208 735 c 0,23,24
 217 744 217 744 223 746 c 0,0,1
411 746 m 0,25,26
 412 746 412 746 416.5 746.5 c 128,-1,27
 421 747 421 747 423 747 c 0,28,29
 438 746 438 746 446 736 c 0,30,31
 452 729 452 729 453 722 c 128,-1,32
 454 715 454 715 454 678 c 2,33,-1
 454 636 l 1,34,-1
 451 631 l 2,35,36
 446 621 446 621 436 616 c 0,37,38
 430 614 430 614 422 614 c 0,39,40
 413 614 413 614 408 616 c 0,41,42
 398 621 398 621 392 631 c 2,43,-1
 390 636 l 1,44,-1
 389 678 l 2,45,46
 389 714 389 714 390 721.5 c 128,-1,47
 391 729 391 729 396 735 c 0,48,49
 405 744 405 744 411 746 c 0,25,26
EndSplineSet
EndChar

StartChar: numbersign
Encoding: 35 35 6
Width: 654
GlyphClass: 2
Flags: W
LayerCount: 2
Fore
SplineSet
279 748 m 0,0,1
 291 752 291 752 302.5 747.5 c 128,-1,2
 314 743 314 743 319 733 c 0,3,4
 323 727 323 727 321 714 c 128,-1,5
 319 701 319 701 304 632 c 2,6,-1
 283 542 l 1,7,-1
 283 539 l 1,8,-1
 363 539 l 1,9,-1
 444 539 l 1,10,-1
 444 541 l 1,11,-1
 447 553 l 2,12,13
 450 565 450 565 455.5 591 c 128,-1,14
 461 617 461 617 466 637 c 128,-1,15
 471 657 471 657 476.5 682.5 c 128,-1,16
 482 708 482 708 485 720 c 2,17,-1
 488 732 l 2,18,19
 493 742 493 742 503 746 c 0,20,21
 509 749 509 749 518 749 c 0,22,23
 530 749 530 749 541 741 c 0,24,25
 550 732 550 732 550 721 c 0,26,27
 550 713 550 713 530 627 c 2,28,-1
 510 540 l 1,29,-1
 522 539 l 2,30,31
 532 539 532 539 541 536 c 0,32,33
 550 531 550 531 556 522 c 0,34,35
 563 509 563 509 556 497 c 0,36,37
 551 487 551 487 541 482 c 0,38,39
 532 479 532 479 516 479 c 2,40,-1
 497 479 l 1,41,-1
 496 475 l 1,42,-1
 453 284 l 2,43,44
 453 283 453 283 484 283 c 2,45,-1
 515 283 l 1,46,-1
 521 280 l 2,47,48
 530 275 530 275 536 266 c 0,49,50
 538 261 538 261 538 253 c 128,-1,51
 538 245 538 245 536 241 c 0,52,53
 531 231 531 231 521 226 c 2,54,-1
 515 224 l 1,55,-1
 477 223 l 2,56,57
 439 223 439 223 439 222 c 0,58,59
 439 220 439 220 417 124.5 c 128,-1,60
 395 29 395 29 394 26 c 0,61,62
 390 15 390 15 379 11 c 0,63,64
 373 8 373 8 364 8 c 0,65,66
 354 8 354 8 351 10 c 0,67,68
 332 19 332 19 332 36 c 0,69,70
 332 42 332 42 352 131 c 2,71,-1
 373 221 l 2,72,73
 373 223 373 223 292 223 c 2,74,-1
 212 223 l 1,75,-1
 190 127 l 2,76,77
 185 107 185 107 179 80.5 c 128,-1,78
 173 54 173 54 170 41 c 128,-1,79
 167 28 167 28 167 27 c 0,80,81
 164 17 164 17 151 10 c 0,82,83
 146 8 146 8 137 8 c 128,-1,84
 128 8 128 8 123 10 c 0,85,86
 113 15 113 15 107 24 c 0,87,88
 104 34 104 34 105.5 44 c 128,-1,89
 107 54 107 54 124 131 c 2,90,-1
 145 222 l 2,91,92
 145 223 145 223 132 223 c 0,93,94
 113 224 113 224 105 232 c 0,95,96
 94 243 94 243 96.5 258 c 128,-1,97
 99 273 99 273 115 280 c 0,98,99
 121 283 121 283 139 283 c 2,100,-1
 159 283 l 1,101,-1
 160 288 l 2,102,103
 160 289 160 289 163 302 c 128,-1,104
 166 315 166 315 171.5 339.5 c 128,-1,105
 177 364 177 364 182 386 c 2,106,-1
 203 479 l 1,107,-1
 171 479 l 1,108,-1
 139 480 l 1,109,-1
 133 483 l 2,110,111
 116 491 116 491 116 509 c 128,-1,112
 116 527 116 527 133 535 c 2,113,-1
 139 539 l 1,114,-1
 178 539 l 1,115,-1
 216 540 l 1,116,-1
 238 634 l 2,117,118
 257 724 257 724 261 732 c 0,119,120
 265 744 265 744 279 748 c 0,0,1
430 475 m 2,121,-1
 430 479 l 1,122,-1
 350 479 l 1,123,-1
 269 479 l 2,124,125
 269 478 269 478 247.5 382 c 128,-1,126
 226 286 226 286 225 285 c 0,127,128
 225 283 225 283 306 283 c 2,129,-1
 386 284 l 1,130,-1
 408 378 l 2,131,132
 428 471 428 471 430 475 c 2,121,-1
EndSplineSet
EndChar

StartChar: dollar
Encoding: 36 36 7
Width: 654
GlyphClass: 2
Flags: W
LayerCount: 2
Fore
SplineSet
317 746 m 0,0,1
 318 746 318 746 322.5 746.5 c 128,-1,2
 327 747 327 747 329 747 c 0,3,4
 344 746 344 746 352 736 c 0,5,6
 360 728 360 728 360 708 c 2,7,-1
 360 695 l 1,8,-1
 365 695 l 1,9,10
 417 688 417 688 450 671 c 0,11,12
 478 658 478 658 504 634 c 0,13,14
 528 610 528 610 534 596 c 0,15,16
 538 586 538 586 533.5 575 c 128,-1,17
 529 564 529 564 518 559 c 0,18,19
 513 557 513 557 503 557 c 0,20,21
 495 557 495 557 488 560 c 0,22,23
 483 562 483 562 472 575 c 0,24,25
 451 601 451 601 427 615 c 0,26,27
 400 629 400 629 367 634 c 2,28,-1
 360 635 l 1,29,-1
 360 523 l 1,30,-1
 361 412 l 1,31,-1
 364 411 l 2,32,33
 372 409 372 409 422 391 c 0,34,35
 471 372 471 372 501 348 c 0,36,37
 562 301 562 301 559 227 c 0,38,39
 556 152 556 152 490 105 c 0,40,41
 471 91 471 91 442 80 c 0,42,43
 408 67 408 67 373 64 c 2,44,-1
 361 62 l 1,45,-1
 360 47 l 2,46,47
 359 27 359 27 350 19 c 0,48,49
 342 11 342 11 328 11 c 0,50,51
 318 11 318 11 313 13 c 0,52,53
 301 19 301 19 297 31 c 0,54,55
 295 39 295 39 295 49 c 2,56,-1
 295 62 l 1,57,-1
 292 62 l 2,58,59
 275 62 275 62 240 67 c 0,60,61
 210 72 210 72 191 78 c 0,62,63
 129 100 129 100 101 158 c 0,64,65
 97 165 97 165 96 175 c 0,66,67
 96 184 96 184 98 188 c 0,68,69
 105 202 105 202 121.5 205 c 128,-1,70
 138 208 138 208 150 198 c 0,71,72
 154 195 154 195 159 185 c 0,73,74
 173 155 173 155 199 141 c 0,75,76
 222 128 222 128 266 125 c 0,77,78
 286 123 286 123 289 122 c 2,79,-1
 295 122 l 1,80,-1
 295 245 l 1,81,-1
 295 367 l 1,82,-1
 276 373 l 2,83,84
 201 394 201 394 162 420 c 0,85,86
 95 463 95 463 98 537 c 0,87,88
 101 595 101 595 141 635 c 0,89,90
 161 655 161 655 187 668 c 0,91,92
 231 689 231 689 288 695 c 1,93,-1
 295 695 l 1,94,-1
 295 708 l 2,95,96
 295 728 295 728 302 735 c 0,97,98
 311 744 311 744 317 746 c 0,0,1
295 532 m 0,99,100
 295 635 295 635 294 635 c 0,101,102
 220 628 220 628 188 594 c 0,103,104
 159 565 159 565 164 522 c 0,105,106
 167 498 167 498 183 483 c 0,107,108
 210 455 210 455 280 435 c 0,109,110
 292 431 292 431 293 430 c 0,111,112
 295 430 295 430 295 532 c 0,99,100
371 345 m 0,113,114
 363 348 363 348 361 348 c 0,115,116
 360 348 360 348 360 236 c 2,117,-1
 360 123 l 1,118,-1
 362 123 l 2,119,120
 381 123 381 123 417 135 c 0,121,122
 478 157 478 157 492 213 c 0,123,124
 496 235 496 235 491 255 c 0,125,126
 486 272 486 272 476 285 c 0,127,128
 451 318 451 318 371 345 c 0,113,114
EndSplineSet
EndChar

StartChar: percent
Encoding: 37 37 8
Width: 654
GlyphClass: 2
Flags: W
LayerCount: 2
Fore
SplineSet
192 749 m 0,0,1
 245 757 245 757 285 720 c 0,2,3
 310 695 310 695 318 656 c 0,4,5
 320 647 320 647 319.5 626.5 c 128,-1,6
 319 606 319 606 317 596 c 0,7,8
 310 560 310 560 287 536 c 0,9,10
 263 510 263 510 228.5 503.5 c 128,-1,11
 194 497 194 497 162 512 c 0,12,13
 112 536 112 536 98 599 c 0,14,15
 96 608 96 608 96 627.5 c 128,-1,16
 96 647 96 647 98 656 c 0,17,18
 106 695 106 695 131 720 c 0,19,20
 157 744 157 744 192 749 c 0,0,1
219 688 m 0,21,22
 196 696 196 696 177 677 c 0,23,24
 159 659 159 659 161 621 c 0,25,26
 164 573 164 573 196 564 c 0,27,28
 231 554 231 554 246 587 c 0,29,30
 259 611 259 611 254 642 c 0,31,32
 250 679 250 679 219 688 c 0,21,22
514 742 m 0,33,34
 519 744 519 744 528 744 c 0,35,36
 542 742 542 742 549 735 c 0,37,38
 563 723 563 723 558 707 c 0,39,40
 557 701 557 701 356 365 c 0,41,42
 157 28 157 28 151 22 c 0,43,44
 140 11 140 11 123 13.5 c 128,-1,45
 106 16 106 16 99 30 c 0,46,47
 93 41 93 41 98 54 c 0,48,49
 104 66 104 66 299 394 c 0,50,51
 499 731 499 731 503 734 c 0,52,53
 508 739 508 739 514 742 c 0,33,34
431 254 m 0,54,55
 484 262 484 262 524 225 c 0,56,57
 549 200 549 200 557 161 c 0,58,59
 559 152 559 152 558.5 131.5 c 128,-1,60
 558 111 558 111 556 101 c 0,61,62
 549 65 549 65 526 41 c 0,63,64
 502 15 502 15 467.5 8.5 c 128,-1,65
 433 2 433 2 401 17 c 0,66,67
 351 41 351 41 337 104 c 0,68,69
 336 113 336 113 336 132.5 c 128,-1,70
 336 152 336 152 337 161 c 0,71,72
 345 200 345 200 370 225 c 0,73,74
 396 249 396 249 431 254 c 0,54,55
458 193 m 0,75,76
 435 201 435 201 416 182 c 0,77,78
 398 164 398 164 400 126 c 0,79,80
 403 78 403 78 435 69 c 0,81,82
 470 59 470 59 485 92 c 0,83,84
 498 116 498 116 493 147 c 0,85,86
 489 184 489 184 458 193 c 0,75,76
EndSplineSet
EndChar

StartChar: ampersand
Encoding: 38 38 9
Width: 654
GlyphClass: 2
Flags: W
LayerCount: 2
Fore
SplineSet
282 749 m 0,0,1
 286 750 286 750 304 750 c 128,-1,2
 322 750 322 750 330 749 c 0,3,4
 364 746 364 746 393 733 c 0,5,6
 429 716 429 716 450.5 683.5 c 128,-1,7
 472 651 472 651 471 615 c 0,8,9
 468 551 468 551 404 486 c 0,10,11
 378 458 378 458 314 410 c 2,12,-1
 288 390 l 2,13,14
 288 388 288 388 317 350 c 0,15,16
 333 328 333 328 377 267 c 128,-1,17
 421 206 421 206 436 185 c 2,18,-1
 457 156 l 2,19,20
 458 156 458 156 463 167 c 0,21,22
 491 223 491 223 494 297 c 0,23,24
 495 320 495 320 503 328 c 0,25,26
 512 336 512 336 525 337 c 0,27,28
 540 337 540 337 550 327 c 0,29,30
 559 318 559 318 559 291 c 0,31,32
 556 225 556 225 534 167 c 0,33,34
 523 139 523 139 505 112 c 2,35,-1
 497 100 l 1,36,-1
 513 77 l 2,37,38
 517 72 517 72 521.5 66 c 128,-1,39
 526 60 526 60 528 56 c 2,40,-1
 531 52 l 2,41,42
 533 48 533 48 533 41 c 0,43,44
 533 33 533 33 531 29 c 0,45,46
 526 17 526 17 512 12 c 0,47,48
 494 5 494 5 479 17 c 0,49,50
 474 22 474 22 464 37 c 2,51,-1
 452 54 l 1,52,-1
 445 49 l 2,53,54
 404 19 404 19 352 11 c 0,55,56
 329 7 329 7 295 7 c 0,57,58
 234 10 234 10 194 30 c 0,59,60
 144 54 144 54 119 106 c 0,61,62
 96 152 96 152 96 206 c 0,63,64
 96 284 96 284 146 345 c 0,65,66
 161 364 161 364 194 394 c 2,67,-1
 201 401 l 1,68,-1
 192 414 l 2,69,70
 140 487 140 487 127 549 c 0,71,72
 125 561 125 561 125 586 c 0,73,74
 125 610 125 610 127 623 c 0,75,76
 128 625 128 625 130 633.5 c 128,-1,77
 132 642 132 642 133 645 c 0,78,79
 147 688 147 688 183 715 c 128,-1,80
 219 742 219 742 269 748 c 0,81,82
 274 749 274 749 282 749 c 0,0,1
339 687 m 0,83,84
 314 691 314 691 280 689 c 0,85,86
 213 681 213 681 195 626 c 0,87,88
 190 610 190 610 190 586 c 0,89,90
 190 560 190 560 197 536 c 0,91,92
 209 499 209 499 244 450 c 2,93,-1
 251 440 l 1,94,-1
 279 461 l 2,95,96
 344 510 344 510 370 542 c 0,97,98
 408 588 408 588 406 623 c 0,99,100
 402 655 402 655 378 671 c 0,101,102
 362 683 362 683 339 687 c 0,83,84
259 322 m 1,103,-1
 238 350 l 2,104,105
 237 350 237 350 221 334 c 128,-1,106
 205 318 205 318 200 312 c 0,107,108
 170 277 170 277 163 236 c 0,109,110
 159 206 159 206 163 176 c 0,111,112
 176 106 176 106 224 83 c 0,113,114
 256 65 256 65 313 67 c 0,115,116
 353 68 353 68 386 85 c 0,117,118
 401 93 401 93 413 102 c 2,119,-1
 416 105 l 1,120,-1
 380 154 l 2,121,122
 376 159 376 159 259 322 c 1,103,-1
EndSplineSet
EndChar

StartChar: parenleft
Encoding: 40 40 10
Width: 654
GlyphClass: 2
Flags: W
LayerCount: 2
Fore
SplineSet
449 749 m 0,0,1
 463 751 463 751 472 747 c 0,2,3
 485 741 485 741 488 731 c 0,4,5
 493 719 493 719 487 707 c 0,6,7
 484 700 484 700 464 686 c 0,8,9
 405 642 405 642 363 584 c 0,10,11
 317 520 317 520 307 432 c 0,12,13
 297 362 297 362 309 299 c 0,14,15
 318 249 318 249 341 208 c 0,16,17
 385 128 385 128 465 70 c 0,18,19
 483 57 483 57 488 48 c 128,-1,20
 493 39 493 39 489 28 c 0,21,22
 485 16 485 16 473 11 c 0,23,24
 467 8 467 8 458 8 c 128,-1,25
 449 8 449 8 443 11 c 0,26,27
 432 16 432 16 395 46 c 0,28,29
 360 76 360 76 336 104 c 0,30,31
 270 183 270 183 250 265 c 0,32,33
 239 307 239 307 238 360 c 0,34,35
 235 514 235 514 307 615 c 0,36,37
 355 682 355 682 421 731 c 0,38,39
 442 747 442 747 449 749 c 0,0,1
EndSplineSet
EndChar

StartChar: parenright
Encoding: 41 41 11
Width: 654
GlyphClass: 2
Flags: W
LayerCount: 2
Fore
SplineSet
188 749 m 0,0,1
 198 753 198 753 210 747 c 0,2,3
 221 742 221 742 260 710 c 0,4,5
 306 670 306 670 340 625 c 0,6,7
 420 517 420 517 417 360 c 0,8,9
 416 310 416 310 405 263 c 0,10,11
 377 159 377 159 286 69 c 0,12,13
 234 21 234 21 210 10 c 0,14,15
 195 3 195 3 183 10 c 0,16,17
 156 23 156 23 166 47 c 0,18,19
 168 54 168 54 188 69 c 0,20,21
 260 119 260 119 304 191 c 0,22,23
 349 263 349 263 352 360 c 0,24,25
 355 473 355 473 311 553 c 0,26,27
 271 625 271 625 191 686 c 0,28,29
 171 700 171 700 167 707 c 0,30,31
 162 718 162 718 165 729 c 0,32,33
 170 743 170 743 188 749 c 0,0,1
EndSplineSet
EndChar

StartChar: asterisk
Encoding: 42 42 12
Width: 654
GlyphClass: 2
Flags: W
LayerCount: 2
Fore
SplineSet
323 627 m 0,0,1
 325 629 325 629 330 627 c 0,2,3
 347 626 347 626 357 611 c 2,4,-1
 360 606 l 1,5,-1
 360 513 l 2,6,7
 360 421 360 421 362 421 c 1,8,9
 362 422 362 422 441 448 c 0,10,11
 516 473 516 473 527 473 c 0,12,13
 536 473 536 473 540 471 c 0,14,15
 551 465 551 465 556 457 c 0,16,17
 558 452 558 452 558 444 c 128,-1,18
 558 436 558 436 556 431 c 0,19,20
 551 422 551 422 540 417 c 2,21,-1
 536 416 l 2,22,23
 531 414 531 414 524 411.5 c 128,-1,24
 517 409 517 409 508.5 406.5 c 128,-1,25
 500 404 500 404 489 400 c 128,-1,26
 478 396 478 396 468 393 c 0,27,28
 452 388 452 388 434.5 382 c 128,-1,29
 417 376 417 376 408 373 c 2,30,-1
 399 370 l 1,31,32
 416 338 416 338 444 291 c 0,33,34
 488 214 488 214 490 207 c 0,35,36
 495 186 495 186 473 176 c 0,37,38
 467 173 467 173 458 173 c 0,39,40
 443 173 443 173 434 182 c 0,41,42
 431 186 431 186 385 265 c 2,43,-1
 340 342 l 1,44,-1
 281 263 l 2,45,46
 221 183 221 183 220 182 c 0,47,48
 218 178 218 178 211 176 c 0,49,50
 205 173 205 173 196 173 c 128,-1,51
 187 173 187 173 182 175 c 0,52,53
 157 187 157 187 166 212 c 0,54,55
 167 216 167 216 221 289 c 2,56,-1
 276 362 l 2,57,58
 276 363 276 363 195 390 c 0,59,60
 177 396 177 396 155.5 403.5 c 128,-1,61
 134 411 134 411 122.5 415 c 128,-1,62
 111 419 111 419 110 419 c 0,63,64
 97 426 97 426 95.5 440.5 c 128,-1,65
 94 455 94 455 105 465 c 0,66,67
 114 473 114 473 128 473 c 0,68,69
 138 473 138 473 214 448 c 0,70,71
 232 442 232 442 252.5 435 c 128,-1,72
 273 428 273 428 284 424 c 2,73,-1
 294 421 l 2,74,75
 295 421 295 421 295 513 c 2,76,-1
 296 606 l 1,77,-1
 299 611 l 2,78,79
 305 624 305 624 323 627 c 0,0,1
EndSplineSet
EndChar

StartChar: plus
Encoding: 43 43 13
Width: 654
GlyphClass: 2
Flags: W
LayerCount: 2
Fore
SplineSet
317 635 m 0,0,1
 318 635 318 635 322.5 635.5 c 128,-1,2
 327 636 327 636 329 636 c 0,3,4
 344 635 344 635 352 625 c 0,5,6
 358 618 358 618 359 605 c 128,-1,7
 360 592 360 592 360 509 c 2,8,-1
 360 408 l 1,9,-1
 447 408 l 1,10,-1
 535 408 l 1,11,-1
 541 405 l 2,12,13
 550 400 550 400 556 391 c 0,14,15
 558 386 558 386 558 378 c 128,-1,16
 558 370 558 370 556 366 c 0,17,18
 551 356 551 356 541 351 c 2,19,-1
 535 349 l 1,20,-1
 447 348 l 1,21,-1
 360 348 l 1,22,-1
 360 248 l 2,23,24
 360 164 360 164 359 151.5 c 128,-1,25
 358 139 358 139 352 132 c 0,26,27
 343 122 343 122 328 122 c 0,28,29
 312 122 312 122 303 132 c 0,30,31
 297 139 297 139 296 151.5 c 128,-1,32
 295 164 295 164 295 248 c 2,33,-1
 295 348 l 1,34,-1
 207 348 l 1,35,-1
 120 349 l 1,36,-1
 115 351 l 2,37,38
 103 356 103 356 98 367.5 c 128,-1,39
 93 379 93 379 98 390 c 0,40,41
 103 400 103 400 115 405 c 2,42,-1
 120 408 l 1,43,-1
 207 408 l 1,44,-1
 295 408 l 1,45,-1
 295 509 l 2,46,47
 295 592 295 592 296 605 c 128,-1,48
 297 618 297 618 302 624 c 0,49,50
 311 633 311 633 317 635 c 0,0,1
EndSplineSet
EndChar

StartChar: comma
Encoding: 44 44 14
Width: 654
GlyphClass: 2
Flags: W
LayerCount: 2
Fore
SplineSet
331 184 m 0,0,1
 336 186 336 186 400 186 c 2,2,-1
 464 186 l 1,3,-1
 470 183 l 2,4,5
 482 177 482 177 487 165 c 0,6,7
 488 160 488 160 488 138 c 2,8,-1
 488 118 l 1,9,-1
 485 112 l 2,10,11
 481 106 481 106 241 -139 c 0,12,13
 222 -158 222 -158 216.5 -160.5 c 128,-1,14
 211 -163 211 -163 188 -163 c 2,15,-1
 166 -163 l 1,16,-1
 160 -161 l 2,17,18
 150 -156 150 -156 144 -147 c 0,19,20
 139 -135 139 -135 143 -125 c 0,21,22
 145 -118 145 -118 230 26 c 0,23,24
 318 174 318 174 321 177 c 0,25,26
 325 181 325 181 331 184 c 0,0,1
400 114 m 2,27,-1
 412 126 l 1,28,-1
 388 126 l 1,29,-1
 363 126 l 1,30,-1
 328 66 l 2,31,32
 297 14 297 14 291 3 c 2,33,-1
 290 1 l 1,34,-1
 292 3 l 2,35,36
 294 4 294 4 342 54 c 0,37,38
 352 64 352 64 366 78.5 c 128,-1,39
 380 93 380 93 388.5 102 c 128,-1,40
 397 111 397 111 400 114 c 2,27,-1
EndSplineSet
EndChar

StartChar: hyphen
Encoding: 45 45 15
Width: 654
GlyphClass: 2
Flags: W
LayerCount: 2
Fore
SplineSet
119 422 m 0,0,1
 122 423 122 423 329 423 c 2,2,-1
 535 423 l 1,3,-1
 541 420 l 2,4,5
 550 415 550 415 556 406 c 0,6,7
 559 398 559 398 559 379 c 0,8,9
 559 358 559 358 556 352 c 0,10,11
 551 342 551 342 541 337 c 2,12,-1
 535 335 l 1,13,-1
 328 335 l 2,14,15
 120 335 120 335 116 336 c 0,16,17
 103 342 103 342 98 353 c 0,18,19
 96 357 96 357 96 379 c 0,20,21
 96 404 96 404 104 413 c 0,22,23
 111 420 111 420 119 422 c 0,0,1
EndSplineSet
EndChar

StartChar: period
Encoding: 46 46 16
Width: 654
GlyphClass: 2
Flags: W
LayerCount: 2
Fore
SplineSet
247 166 m 0,0,1
 250 167 250 167 329 167 c 2,2,-1
 407 167 l 1,3,-1
 413 164 l 2,4,5
 425 156 425 156 428 149 c 2,6,-1
 431 145 l 1,7,-1
 431 91 l 2,8,9
 431 36 431 36 430 31 c 0,10,11
 426 20 426 20 413 13 c 2,12,-1
 408 11 l 1,13,-1
 328 11 l 2,14,15
 248 11 248 11 244 12 c 0,16,17
 231 18 231 18 226 29 c 2,18,-1
 224 34 l 1,19,-1
 224 89 l 2,20,21
 224 144 224 144 226 148 c 0,22,23
 233 162 233 162 247 166 c 0,0,1
366 89 m 1,24,-1
 366 107 l 1,25,-1
 328 107 l 1,26,-1
 289 107 l 1,27,-1
 289 89 l 1,28,-1
 289 70 l 1,29,-1
 328 70 l 1,30,-1
 366 70 l 1,31,-1
 366 89 l 1,24,-1
EndSplineSet
EndChar

StartChar: slash
Encoding: 47 47 17
Width: 654
GlyphClass: 2
Flags: W
LayerCount: 2
Fore
SplineSet
458 749 m 0,0,1
 470 752 470 752 482 746 c 128,-1,2
 494 740 494 740 498 729 c 0,3,4
 500 721 500 721 485.5 682.5 c 128,-1,5
 471 644 471 644 362 378 c 0,6,7
 332 305 332 305 294.5 213 c 128,-1,8
 257 121 257 121 239 78 c 128,-1,9
 221 35 221 35 220 32 c 0,10,11
 216 22 216 22 211 16 c 0,12,13
 200 7 200 7 188 8 c 0,14,15
 178 8 178 8 174 10 c 0,16,17
 155 20 155 20 156 37 c 0,18,19
 156 44 156 44 297 388 c 0,20,21
 437 733 437 733 441 737 c 0,22,23
 447 747 447 747 458 749 c 0,0,1
EndSplineSet
EndChar

StartChar: zero
Encoding: 48 48 18
Width: 654
GlyphClass: 2
Flags: W
LayerCount: 2
Fore
SplineSet
277 748 m 0,0,1
 290 750 290 750 326.5 750 c 128,-1,2
 363 750 363 750 376 748 c 0,3,4
 461 739 461 739 507 669 c 0,5,6
 545 611 545 611 554 505 c 0,7,8
 558 468 558 468 558 371 c 0,9,10
 559 288 559 288 554 244 c 0,11,12
 531 55 531 55 412 16 c 0,13,14
 387 8 387 8 328 8 c 0,15,16
 280 8 280 8 268 10 c 0,17,18
 230 16 230 16 195 40 c 0,19,20
 117 98 117 98 101 244 c 0,21,22
 96 288 96 288 97 371 c 0,23,24
 97 468 97 468 101 505 c 0,25,26
 116 681 116 681 216 730 c 0,27,28
 246 745 246 745 277 748 c 0,0,1
369 689 m 0,29,30
 361 690 361 690 327 690 c 128,-1,31
 293 690 293 690 285 689 c 0,32,33
 255 686 255 686 228 666 c 0,34,35
 174 623 174 623 164 482 c 0,36,37
 162 446 162 446 161.5 376.5 c 128,-1,38
 161 307 161 307 163 280 c 0,39,40
 173 156 173 156 216 106 c 0,41,42
 243 73 243 73 286 68 c 0,43,44
 296 67 296 67 327.5 67 c 128,-1,45
 359 67 359 67 369 68 c 0,46,47
 412 73 412 73 439 106 c 0,48,49
 482 156 482 156 492 280 c 0,50,51
 494 307 494 307 493.5 376.5 c 128,-1,52
 493 446 493 446 491 482 c 0,53,54
 482 602 482 602 441 652 c 0,55,56
 414 684 414 684 369 689 c 0,29,30
EndSplineSet
EndChar

StartChar: one
Encoding: 49 49 19
Width: 654
GlyphClass: 2
Flags: W
LayerCount: 2
Fore
SplineSet
330 746 m 0,0,1
 331 747 331 747 356 747 c 0,2,3
 377 747 377 747 384 744 c 0,4,5
 395 738 395 738 400 729 c 2,6,-1
 402 724 l 1,7,-1
 402 380 l 2,8,9
 402 36 402 36 400 31 c 0,10,11
 396 19 396 19 384 13 c 0,12,13
 379 11 379 11 370 11 c 0,14,15
 360 11 360 11 356 13 c 0,16,17
 345 19 345 19 340 28 c 2,18,-1
 338 33 l 1,19,-1
 337 353 l 1,20,-1
 337 674 l 1,21,-1
 258 607 l 2,22,23
 180 539 180 539 175 537 c 0,24,25
 162 531 162 531 149 535 c 128,-1,26
 136 539 136 539 130 550 c 0,27,28
 128 555 128 555 128 564 c 0,29,30
 127 574 127 574 137 584 c 128,-1,31
 147 594 147 594 226 661 c 0,32,33
 322 744 322 744 330 746 c 0,0,1
EndSplineSet
EndChar

StartChar: two
Encoding: 50 50 20
Width: 654
GlyphClass: 2
Flags: W
LayerCount: 2
Fore
SplineSet
286 749 m 0,0,1
 331 751 331 751 352 748 c 0,2,3
 413 741 413 741 459 707 c 128,-1,4
 505 673 505 673 523 621 c 0,5,6
 527 610 527 610 529 597 c 0,7,8
 532 582 532 582 532 560 c 0,9,10
 532 537 532 537 530 525 c 0,11,12
 524 498 524 498 512 475 c 0,13,14
 485 419 485 419 423 373 c 0,15,16
 404 358 404 358 353 326 c 0,17,18
 247 258 247 258 214 203 c 0,19,20
 192 166 192 166 189 102 c 2,21,-1
 189 81 l 1,22,-1
 352 81 l 1,23,-1
 515 81 l 1,24,-1
 521 78 l 2,25,26
 530 73 530 73 536 64 c 0,27,28
 538 59 538 59 538 51 c 128,-1,29
 538 43 538 43 536 39 c 0,30,31
 531 29 531 29 521 24 c 2,32,-1
 515 22 l 1,33,-1
 332 22 l 1,34,-1
 149 22 l 1,35,-1
 143 24 l 2,36,37
 133 29 133 29 127 39 c 2,38,-1
 125 45 l 1,39,-1
 124 77 l 2,40,41
 124 138 124 138 133 173 c 0,42,43
 149 237 149 237 207 293 c 0,44,45
 247 332 247 332 318 376 c 0,46,47
 350 397 350 397 382 419 c 0,48,49
 483 496 483 496 465 585 c 0,50,51
 452 652 452 652 384 679 c 0,52,53
 349 693 349 693 292 689 c 0,54,55
 226 685 226 685 171 649 c 0,56,57
 155 639 155 639 145 639 c 0,58,59
 132 639 132 639 121 648 c 0,60,61
 113 657 113 657 113 669 c 128,-1,62
 113 681 113 681 122 689 c 0,63,64
 141 708 141 708 190 727 c 0,65,66
 240 746 240 746 286 749 c 0,0,1
EndSplineSet
EndChar

StartChar: three
Encoding: 51 51 21
Width: 654
GlyphClass: 2
Flags: W
LayerCount: 2
Fore
SplineSet
121 734 m 0,0,1
 125 736 125 736 313 736 c 2,2,-1
 501 736 l 1,3,-1
 506 733 l 2,4,5
 517 727 517 727 522 719 c 2,6,-1
 525 714 l 1,7,-1
 525 689 l 2,8,9
 525 666 525 666 522 660 c 0,10,11
 521 656 521 656 426 557 c 0,12,13
 332 458 332 458 332 457 c 2,14,-1
 342 455 l 2,15,16
 381 449 381 449 422 431 c 0,17,18
 523 385 523 385 546 286 c 0,19,20
 568 185 568 185 508 104 c 0,21,22
 475 60 475 60 418 34 c 0,23,24
 363 9 363 9 291.5 7 c 128,-1,25
 220 5 220 5 151 28 c 0,26,27
 114 39 114 39 104 49 c 0,28,29
 93 59 93 59 96.5 74 c 128,-1,30
 100 89 100 89 114 95 c 0,31,32
 118 97 118 97 128 97 c 128,-1,33
 138 97 138 97 150 92 c 0,34,35
 211 68 211 68 281 68 c 0,36,37
 319 68 319 68 342 73 c 0,38,39
 421 88 421 88 459 145 c 0,40,41
 481 179 481 179 485 223 c 128,-1,42
 489 267 489 267 472 304 c 0,43,44
 430 394 430 394 275 402 c 0,45,46
 256 403 256 403 251 406 c 0,47,48
 239 411 239 411 234.5 422 c 128,-1,49
 230 433 230 433 235 444 c 0,50,51
 237 450 237 450 345 562 c 2,52,-1
 453 676 l 1,53,-1
 288 676 l 1,54,-1
 123 677 l 1,55,-1
 118 679 l 2,56,57
 102 686 102 686 99 701 c 0,58,59
 97 712 97 712 103.5 721.5 c 128,-1,60
 110 731 110 731 121 734 c 0,0,1
EndSplineSet
EndChar

StartChar: four
Encoding: 52 52 22
Width: 654
GlyphClass: 2
Flags: W
LayerCount: 2
Fore
SplineSet
335 746 m 0,0,1
 345 749 345 749 359 744 c 0,2,3
 369 740 369 740 373.5 730 c 128,-1,4
 378 720 378 720 376 711 c 2,5,-1
 370 698 l 2,6,7
 365 686 365 686 354.5 664 c 128,-1,8
 344 642 344 642 331.5 614.5 c 128,-1,9
 319 587 319 587 301.5 550.5 c 128,-1,10
 284 514 284 514 268 479 c 0,11,12
 165 259 165 259 161 247 c 1,13,-1
 161 243 l 1,14,-1
 276 243 l 1,15,-1
 391 243 l 1,16,-1
 391 312 l 2,17,18
 391 371 391 371 392 381 c 128,-1,19
 393 391 393 391 399 397 c 0,20,21
 409 408 409 408 424 408 c 0,22,23
 438 408 438 408 448 397 c 0,24,25
 454 391 454 391 455 381 c 128,-1,26
 456 371 456 371 456 312 c 2,27,-1
 456 243 l 1,28,-1
 495 243 l 1,29,-1
 535 243 l 1,30,-1
 541 240 l 2,31,32
 550 235 550 235 556 226 c 0,33,34
 563 213 563 213 556 201 c 0,35,36
 551 191 551 191 541 186 c 2,37,-1
 535 184 l 1,38,-1
 495 183 l 1,39,-1
 456 183 l 1,40,-1
 456 110 l 2,41,42
 456 36 456 36 454 31 c 0,43,44
 450 19 450 19 438 13 c 0,45,46
 433 11 433 11 424 11 c 0,47,48
 414 11 414 11 409 13 c 0,49,50
 397 19 397 19 393 31 c 0,51,52
 391 36 391 36 391 110 c 2,53,-1
 391 183 l 1,54,-1
 256 183 l 1,55,-1
 121 184 l 1,56,-1
 115 186 l 2,57,58
 105 191 105 191 99 201 c 2,59,-1
 97 206 l 1,60,-1
 97 235 l 1,61,-1
 97 264 l 1,62,-1
 206 498 l 2,63,64
 316 732 316 732 320 737 c 0,65,66
 329 744 329 744 335 746 c 0,0,1
EndSplineSet
EndChar

StartChar: five
Encoding: 53 53 23
Width: 654
GlyphClass: 2
Flags: W
LayerCount: 2
Fore
SplineSet
177 734 m 0,0,1
 182 736 182 736 336 736 c 2,2,-1
 490 736 l 1,3,-1
 495 733 l 2,4,5
 506 727 506 727 511 718 c 0,6,7
 515 707 515 707 510.5 695.5 c 128,-1,8
 506 684 506 684 495 679 c 2,9,-1
 490 677 l 1,10,-1
 354 676 l 1,11,-1
 219 676 l 1,12,-1
 219 672 l 2,13,14
 218 668 218 668 214 586 c 2,15,-1
 208 498 l 1,16,-1
 208 491 l 1,17,-1
 242 490 l 2,18,19
 289 490 289 490 325 484 c 0,20,21
 468 457 468 457 505 346 c 0,22,23
 518 309 518 309 519 266 c 0,24,25
 519 243 519 243 518 233 c 0,26,27
 511 176 511 176 474 128 c 128,-1,28
 437 80 437 80 378 50 c 0,29,30
 292 8 292 8 173 8 c 2,31,-1
 146 8 l 1,32,-1
 139 10 l 2,33,34
 128 16 128 16 124 25 c 0,35,36
 118 37 118 37 124 49 c 0,37,38
 128 58 128 58 139 64 c 0,39,40
 145 66 145 66 171 67 c 0,41,42
 249 70 249 70 296 83 c 0,43,44
 396 111 396 111 436 188 c 0,45,46
 455 225 455 225 454 267 c 0,47,48
 451 332 451 332 422 369 c 128,-1,49
 393 406 393 406 332 420 c 0,50,51
 319 424 319 424 281 429 c 0,52,53
 270 430 270 430 237.5 430 c 128,-1,54
 205 430 205 430 188 429 c 0,55,56
 170 428 170 428 165 429 c 0,57,58
 147 436 147 436 142 451 c 0,59,60
 140 456 140 456 147.5 582 c 128,-1,61
 155 708 155 708 157 714 c 0,62,63
 160 728 160 728 177 734 c 0,0,1
EndSplineSet
EndChar

StartChar: six
Encoding: 54 54 24
Width: 654
GlyphClass: 2
Flags: W
LayerCount: 2
Fore
SplineSet
392 746 m 0,0,1
 393 746 393 746 396.5 746.5 c 128,-1,2
 400 747 400 747 403 747 c 0,3,4
 416 746 416 746 424.5 737.5 c 128,-1,5
 433 729 433 729 433 717 c 128,-1,6
 433 705 433 705 415 687 c 0,7,8
 296 563 296 563 227 453 c 2,9,-1
 222 445 l 1,10,-1
 227 447 l 2,11,12
 255 458 255 458 288 463 c 0,13,14
 327 467 327 467 366 463 c 0,15,16
 461 449 461 449 510 388 c 0,17,18
 543 351 543 351 552 299 c 0,19,20
 558 270 558 270 558 233 c 0,21,22
 559 195 559 195 552 168 c 0,23,24
 522 55 522 55 413 20 c 0,25,26
 376 8 376 8 328 8 c 0,27,28
 298 8 298 8 292 9 c 0,29,30
 212 19 212 19 162 66 c 0,31,32
 102 125 102 125 96 217 c 0,33,34
 95 233 95 233 97 269 c 0,35,36
 101 353 101 353 138 425 c 0,37,38
 206 561 206 561 365 725 c 0,39,40
 382 742 382 742 392 746 c 0,0,1
361 403 m 0,41,42
 354 404 354 404 334.5 404.5 c 128,-1,43
 315 405 315 405 309 404 c 0,44,45
 301 404 301 404 296 403 c 0,46,47
 281 400 281 400 274 399 c 0,48,49
 198 380 198 380 172 300 c 0,50,51
 160 264 160 264 161 225 c 0,52,53
 162 199 162 199 167 182 c 0,54,55
 187 100 187 100 268 75 c 0,56,57
 290 68 290 68 328 68 c 0,58,59
 365 68 365 68 387 75 c 0,60,61
 430 88 430 88 457.5 120.5 c 128,-1,62
 485 153 485 153 492 200 c 0,63,64
 497 236 497 236 490 280 c 0,65,66
 478 355 478 355 415 386 c 0,67,68
 394 396 394 396 361 403 c 0,41,42
EndSplineSet
EndChar

StartChar: seven
Encoding: 55 55 25
Width: 654
GlyphClass: 2
Flags: W
LayerCount: 2
Fore
SplineSet
119 735 m 0,0,1
 122 736 122 736 329 736 c 2,2,-1
 535 736 l 1,3,-1
 541 733 l 2,4,5
 550 728 550 728 556 719 c 0,6,7
 558 714 558 714 558 699 c 0,8,9
 558 637 558 637 506 558 c 0,10,11
 486 527 486 527 437 467 c 0,12,13
 394 414 394 414 377 389 c 0,14,15
 292 265 292 265 286 62 c 0,16,17
 286 39 286 39 284 31 c 0,18,19
 282 20 282 20 268 13 c 0,20,21
 263 11 263 11 254 11 c 0,22,23
 244 11 244 11 239 13 c 0,24,25
 227 19 227 19 223 31 c 0,26,27
 220 39 220 39 222 89 c 0,28,29
 229 243 229 243 285 358 c 0,30,31
 310 409 310 409 384 502 c 0,32,33
 432 561 432 561 451 590 c 0,34,35
 479 631 479 631 489 667 c 2,36,-1
 491 676 l 1,37,-1
 305 676 l 1,38,-1
 120 677 l 1,39,-1
 115 679 l 2,40,41
 96 687 96 687 96 706 c 0,42,43
 96 718 96 718 104 726 c 0,44,45
 111 733 111 733 119 735 c 0,0,1
EndSplineSet
EndChar

StartChar: eight
Encoding: 56 56 26
Width: 654
GlyphClass: 2
Flags: W
LayerCount: 2
Fore
SplineSet
306 749 m 0,0,1
 327 753 327 753 368 747 c 0,2,3
 427 738 427 738 468.5 705.5 c 128,-1,4
 510 673 510 673 522 625 c 0,5,6
 524 615 524 615 524 596 c 0,7,8
 524 576 524 576 522 565 c 0,9,10
 517 542 517 542 506 522 c 0,11,12
 496 499 496 499 474 476 c 0,13,14
 444 447 444 447 408 430 c 2,15,-1
 395 423 l 1,16,-1
 406 416 l 2,17,18
 503 356 503 356 540 280 c 0,19,20
 569 219 569 219 554 158 c 0,21,22
 542 108 542 108 501 68 c 0,23,24
 451 19 451 19 376 10 c 0,25,26
 352 6 352 6 310 6 c 0,27,28
 270 9 270 9 240 19 c 0,29,30
 207 31 207 31 187 44 c 0,31,32
 114 91 114 91 99 168 c 0,33,34
 97 178 97 178 97 200 c 128,-1,35
 97 222 97 222 99 234 c 0,36,37
 111 285 111 285 146 329 c 0,38,39
 147 330 147 330 169 355 c 0,40,41
 204 388 204 388 246 415 c 2,42,-1
 259 423 l 1,43,-1
 247 429 l 2,44,45
 207 452 207 452 182 476 c 0,46,47
 159 499 159 499 149 522 c 0,48,49
 138 542 138 542 133 565 c 0,50,51
 131 576 131 576 131 596 c 0,52,53
 131 615 131 615 133 625 c 0,54,55
 150 692 150 692 217 725 c 0,56,57
 255 745 255 745 306 749 c 0,0,1
362 687 m 0,58,59
 335 691 335 691 305 689 c 0,60,61
 231 681 231 681 204 630 c 0,62,63
 196 615 196 615 196 597 c 0,64,65
 196 574 196 574 202 558 c 0,66,67
 212 531 212 531 236 510.5 c 128,-1,68
 260 490 260 490 308 467 c 2,69,-1
 327 458 l 1,70,-1
 338 463 l 2,71,72
 371 478 371 478 390 490 c 0,73,74
 451 525 451 525 459 584 c 0,75,76
 462 610 462 610 451 631 c 0,77,78
 426 676 426 676 362 687 c 0,58,59
339 384 m 1,79,-1
 327 390 l 2,80,81
 326 390 326 390 324 389 c 256,82,83
 322 388 322 388 320 387 c 0,84,85
 209 326 209 326 176 258 c 0,86,87
 157 220 157 220 163 181.5 c 128,-1,88
 169 143 169 143 198 114 c 0,89,90
 239 73 239 73 304 67 c 0,91,92
 312 66 312 66 335 67 c 128,-1,93
 358 68 358 68 368 69 c 0,94,95
 424 76 424 76 460 115.5 c 128,-1,96
 496 155 496 155 494 205 c 0,97,98
 493 232 493 232 480 257 c 0,99,100
 446 325 446 325 339 384 c 1,79,-1
EndSplineSet
EndChar

StartChar: nine
Encoding: 57 57 27
Width: 654
GlyphClass: 2
Flags: W
LayerCount: 2
Fore
SplineSet
309 749 m 0,0,1
 316 750 316 750 336 749.5 c 128,-1,2
 356 749 356 749 364 748 c 0,3,4
 442 736 442 736 492 687 c 0,5,6
 559 623 559 623 559 512 c 0,7,8
 559 471 559 471 549 428 c 0,9,10
 524 332 524 332 449 219 c 0,11,12
 382 117 382 117 292 33 c 0,13,14
 269 11 269 11 255 10 c 0,15,16
 246 10 246 10 242 12 c 0,17,18
 228 17 228 17 223 29 c 128,-1,19
 218 41 218 41 224 53 c 0,20,21
 228 58 228 58 245 74 c 0,22,23
 331 155 331 155 393 249 c 0,24,25
 427 300 427 300 427 304 c 1,26,27
 424 304 424 304 414 301 c 0,28,29
 373 290 373 290 320 292 c 0,30,31
 259 293 259 293 214 315 c 0,32,33
 165 339 165 339 134 385.5 c 128,-1,34
 103 432 103 432 97 491 c 0,35,36
 94 515 94 515 98 548 c 0,37,38
 112 632 112 632 170 687 c 0,39,40
 227 741 227 741 309 749 c 0,0,1
363 687 m 0,41,42
 327 692 327 692 309 689 c 0,43,44
 234 679 234 679 192 615 c 0,45,46
 148 548 148 548 166.5 470 c 128,-1,47
 185 392 185 392 251 365 c 0,48,49
 282 353 282 353 330 353 c 0,50,51
 369 353 369 353 390 358 c 0,52,53
 450 370 450 370 475 416 c 0,54,55
 486 435 486 435 491 473 c 0,56,57
 493 486 493 486 493 513 c 0,58,59
 493 547 493 547 489 566 c 0,60,61
 479 613 479 613 446 644.5 c 128,-1,62
 413 676 413 676 363 687 c 0,41,42
EndSplineSet
EndChar

StartChar: colon
Encoding: 58 58 28
Width: 654
GlyphClass: 2
Flags: W
LayerCount: 2
Fore
SplineSet
264 510 m 0,0,1
 267 511 267 511 329 511 c 2,2,-1
 390 511 l 1,3,-1
 395 508 l 2,4,5
 408 501 408 501 411 494 c 2,6,-1
 414 489 l 1,7,-1
 414 441 l 1,8,-1
 414 394 l 1,9,-1
 411 388 l 2,10,11
 406 380 406 380 395 374 c 2,12,-1
 390 372 l 1,13,-1
 328 372 l 2,14,15
 265 372 265 372 261 373 c 0,16,17
 248 379 248 379 243 390 c 2,18,-1
 241 395 l 1,19,-1
 241 441 l 2,20,21
 241 488 241 488 243 492 c 0,22,23
 250 506 250 506 264 510 c 0,0,1
349 441 m 1,24,-1
 349 451 l 1,25,-1
 328 451 l 1,26,-1
 306 451 l 1,27,-1
 306 441 l 1,28,-1
 306 431 l 1,29,-1
 328 431 l 1,30,-1
 349 431 l 1,31,-1
 349 441 l 1,24,-1
264 149 m 0,32,33
 267 150 267 150 329 150 c 2,34,-1
 390 150 l 1,35,-1
 395 147 l 2,36,37
 406 141 406 141 411 133 c 2,38,-1
 414 128 l 1,39,-1
 414 82 l 2,40,41
 414 36 414 36 413 32 c 0,42,43
 410 20 410 20 396 13 c 2,44,-1
 391 11 l 1,45,-1
 328 11 l 2,46,47
 265 11 265 11 261 12 c 0,48,49
 248 18 248 18 243 29 c 2,50,-1
 241 34 l 1,51,-1
 241 80 l 2,52,53
 241 127 241 127 243 131 c 0,54,55
 250 145 250 145 264 149 c 0,32,33
349 80 m 1,56,-1
 349 90 l 1,57,-1
 328 90 l 1,58,-1
 306 90 l 1,59,-1
 306 80 l 1,60,-1
 306 70 l 1,61,-1
 328 70 l 1,62,-1
 349 70 l 1,63,-1
 349 80 l 1,56,-1
EndSplineSet
EndChar

StartChar: semicolon
Encoding: 59 59 29
Width: 654
GlyphClass: 2
Flags: W
LayerCount: 2
Fore
SplineSet
284 510 m 0,0,1
 287 511 287 511 349 511 c 2,2,-1
 410 511 l 1,3,-1
 415 508 l 2,4,5
 428 501 428 501 431 494 c 2,6,-1
 434 489 l 1,7,-1
 434 441 l 1,8,-1
 434 394 l 1,9,-1
 431 388 l 2,10,11
 426 380 426 380 415 374 c 2,12,-1
 410 372 l 1,13,-1
 348 372 l 2,14,15
 285 372 285 372 281 373 c 0,16,17
 268 379 268 379 263 390 c 2,18,-1
 261 395 l 1,19,-1
 261 441 l 2,20,21
 261 488 261 488 263 492 c 0,22,23
 270 506 270 506 284 510 c 0,0,1
369 441 m 1,24,-1
 369 451 l 1,25,-1
 348 451 l 1,26,-1
 326 451 l 1,27,-1
 326 441 l 1,28,-1
 326 431 l 1,29,-1
 348 431 l 1,30,-1
 369 431 l 1,31,-1
 369 441 l 1,24,-1
280 150 m 0,32,33
 285 152 285 152 348 152 c 128,-1,34
 411 152 411 152 416 150 c 0,35,36
 436 142 436 142 436 122 c 0,37,38
 436 111 436 111 425 97 c 0,39,40
 410 79 410 79 329 -29 c 2,41,-1
 238 -148 l 2,42,43
 234 -152 234 -152 229 -154 c 2,44,-1
 223 -157 l 1,45,-1
 193 -157 l 1,46,-1
 163 -157 l 1,47,-1
 156 -155 l 2,48,49
 146 -151 146 -151 141.5 -141 c 128,-1,50
 137 -131 137 -131 139 -122 c 2,51,-1
 142 -114 l 2,52,53
 146 -107 146 -107 152 -94.5 c 128,-1,54
 158 -82 158 -82 165.5 -66.5 c 128,-1,55
 173 -51 173 -51 182.5 -30.5 c 128,-1,56
 192 -10 192 -10 202 10 c 0,57,58
 265 138 265 138 270 143 c 0,59,60
 274 147 274 147 280 150 c 0,32,33
340 91 m 2,61,-1
 328 92 l 1,62,-1
 314 92 l 1,63,-1
 298 60 l 2,64,65
 293 50 293 50 289 41.5 c 128,-1,66
 285 33 285 33 281.5 26.5 c 128,-1,67
 278 20 278 20 275.5 14.5 c 128,-1,68
 273 9 273 9 271.5 5 c 128,-1,69
 270 1 270 1 269 -1.5 c 128,-1,70
 268 -4 268 -4 268 -4 c 1,71,-1
 267 -5 l 2,72,73
 284 17 284 17 304 43 c 0,74,75
 340 90 340 90 340 91 c 2,61,-1
EndSplineSet
EndChar

StartChar: less
Encoding: 60 60 30
Width: 654
GlyphClass: 2
Flags: W
LayerCount: 2
Fore
SplineSet
516 672 m 0,0,1
 528 676 528 676 540 670 c 128,-1,2
 552 664 552 664 556 656 c 0,3,4
 558 651 558 651 558 643 c 128,-1,5
 558 635 558 635 555 630 c 0,6,7
 554 625 554 625 549 621 c 0,8,9
 548 621 548 621 524.5 605 c 128,-1,10
 501 589 501 589 453.5 557.5 c 128,-1,11
 406 526 406 526 365 499 c 2,12,-1
 185 379 l 2,13,14
 184 379 184 379 229.5 348.5 c 128,-1,15
 275 318 275 318 366 257 c 0,16,17
 409 229 409 229 456.5 197 c 128,-1,18
 504 165 504 165 527.5 149 c 128,-1,19
 551 133 551 133 552 133 c 0,20,21
 560 124 560 124 559 112 c 128,-1,22
 558 100 558 100 549 93 c 0,23,24
 535 79 535 79 514 86 c 0,25,26
 509 89 509 89 309 221.5 c 128,-1,27
 109 354 109 354 105 358 c 0,28,29
 96 366 96 366 96 378.5 c 128,-1,30
 96 391 96 391 104 399 c 0,31,32
 109 403 109 403 310.5 537 c 128,-1,33
 512 671 512 671 516 672 c 0,0,1
EndSplineSet
EndChar

StartChar: equal
Encoding: 61 61 31
Width: 654
GlyphClass: 2
Flags: W
LayerCount: 2
Fore
SplineSet
119 521 m 0,0,1
 122 522 122 522 329 522 c 2,2,-1
 535 522 l 1,3,-1
 541 519 l 2,4,5
 550 514 550 514 556 505 c 0,6,7
 558 500 558 500 558 492 c 128,-1,8
 558 484 558 484 556 480 c 0,9,10
 551 470 551 470 541 465 c 2,11,-1
 535 463 l 1,12,-1
 328 463 l 2,13,14
 120 463 120 463 116 464 c 0,15,16
 103 470 103 470 98 481 c 0,17,18
 92 492 92 492 98 503 c 0,19,20
 105 517 105 517 119 521 c 0,0,1
119 294 m 0,21,22
 122 295 122 295 329 295 c 2,23,-1
 535 295 l 1,24,-1
 541 292 l 2,25,26
 550 287 550 287 556 278 c 0,27,28
 558 273 558 273 558 265 c 128,-1,29
 558 257 558 257 556 253 c 0,30,31
 551 243 551 243 541 238 c 2,32,-1
 535 236 l 1,33,-1
 328 236 l 2,34,35
 120 236 120 236 116 237 c 0,36,37
 103 243 103 243 98 254 c 0,38,39
 92 265 92 265 98 276 c 0,40,41
 105 290 105 290 119 294 c 0,21,22
EndSplineSet
EndChar

StartChar: greater
Encoding: 62 62 32
Width: 654
GlyphClass: 2
Flags: W
LayerCount: 2
Fore
SplineSet
118 672 m 0,0,1
 129 676 129 676 141 670 c 0,2,3
 147 668 147 668 346 536 c 0,4,5
 535 410 535 410 551 398 c 0,6,7
 569 378 569 378 551 359 c 0,8,9
 539 350 539 350 347 222 c 0,10,11
 302 192 302 192 248.5 157 c 128,-1,12
 195 122 195 122 169.5 105 c 128,-1,13
 144 88 144 88 143 87 c 0,14,15
 138 85 138 85 128 85 c 128,-1,16
 118 85 118 85 112 88 c 0,17,18
 96 97 96 97 96 114 c 0,19,20
 96 126 96 126 105 135 c 2,21,-1
 116 142 l 2,22,23
 126 149 126 149 143.5 161 c 128,-1,24
 161 173 161 173 182.5 187.5 c 128,-1,25
 204 202 204 202 233 221.5 c 128,-1,26
 262 241 262 241 290 259 c 2,27,-1
 471 379 l 1,28,29
 456 388 456 388 105 622 c 0,30,31
 96 631 96 631 96 643 c 0,32,33
 96 664 96 664 118 672 c 0,0,1
EndSplineSet
EndChar

StartChar: question
Encoding: 63 63 33
Width: 654
GlyphClass: 2
Flags: W
LayerCount: 2
Fore
SplineSet
292 692 m 0,0,1
 321 694 321 694 341 691 c 0,2,3
 382 687 382 687 414 670 c 0,4,5
 482 636 482 636 499 562 c 0,6,7
 501 553 501 553 501 535 c 128,-1,8
 501 517 501 517 499 507 c 0,9,10
 491 475 491 475 467 432 c 0,11,12
 453 405 453 405 440 389.5 c 128,-1,13
 427 374 427 374 401 352 c 0,14,15
 375 328 375 328 369 318 c 0,16,17
 361 307 361 307 360 292 c 0,18,19
 359 276 359 276 350 269 c 0,20,21
 338 258 338 258 322 261 c 128,-1,22
 306 264 306 264 299 277 c 0,23,24
 292 289 292 289 297 311.5 c 128,-1,25
 302 334 302 334 316 354 c 0,26,27
 327 370 327 370 359 397 c 0,28,29
 383 418 383 418 384 420 c 0,30,31
 402 441 402 441 424 487 c 0,32,33
 442 529 442 529 433 557 c 0,34,35
 423 597 423 597 384 618 c 0,36,37
 365 627 365 627 348 630 c 0,38,39
 337 632 337 632 316 632 c 0,40,41
 294 632 294 632 283 630 c 0,42,43
 225 618 225 618 202 577 c 0,44,45
 189 555 189 555 189 527 c 0,46,47
 189 510 189 510 180 501 c 0,48,49
 164 485 164 485 144 493 c 0,50,51
 130 498 130 498 126 512 c 0,52,53
 121 527 121 527 126 554 c 0,54,55
 140 637 140 637 223 674 c 0,56,57
 256 689 256 689 292 692 c 0,0,1
291 55 m 2,58,-1
 297 58 l 1,59,-1
 327 58 l 1,60,-1
 358 58 l 1,61,-1
 364 55 l 2,62,63
 374 51 374 51 380 39 c 0,64,65
 382 35 382 35 382 6 c 0,66,67
 382 -24 382 -24 380 -28 c 0,68,69
 375 -39 375 -39 362 -45 c 0,70,71
 358 -46 358 -46 327 -46 c 2,72,-1
 296 -46 l 1,73,-1
 290 -44 l 2,74,75
 278 -38 278 -38 274 -26 c 0,76,77
 272 -20 272 -20 272 5.5 c 128,-1,78
 272 31 272 31 274 37 c 0,79,80
 277 48 277 48 291 55 c 2,58,-1
EndSplineSet
EndChar

StartChar: at
Encoding: 64 64 34
Width: 654
GlyphClass: 2
Flags: W
LayerCount: 2
Fore
SplineSet
295 695 m 0,0,1
 302 696 302 696 325.5 695.5 c 128,-1,2
 349 695 349 695 358 694 c 0,3,4
 418 685 418 685 459 655 c 0,5,6
 484 638 484 638 501 613 c 0,7,8
 552 540 552 540 558 393 c 0,9,10
 559 366 559 366 559 257 c 128,-1,11
 559 148 559 148 557 140 c 0,12,13
 550 88 550 88 529 59 c 0,14,15
 507 24 507 24 465 8 c 0,16,17
 447 2 447 2 423 2 c 0,18,19
 405 2 405 2 397 4 c 0,20,21
 380 9 380 9 364 20 c 0,22,23
 351 29 351 29 342 43 c 2,24,-1
 339 48 l 1,25,-1
 330 40 l 2,26,27
 302 13 302 13 261 4 c 0,28,29
 251 2 251 2 232 1.5 c 128,-1,30
 213 1 213 1 203 3 c 0,31,32
 152 14 152 14 125 52 c 0,33,34
 94 100 94 100 95 201 c 0,35,36
 97 271 97 271 108 317 c 0,37,38
 128 383 128 383 194 398 c 0,39,40
 219 402 219 402 244 398 c 0,41,42
 274 392 274 392 308 371 c 2,43,-1
 317 365 l 1,44,-1
 317 368 l 2,45,46
 317 385 317 385 335 394 c 0,47,48
 340 396 340 396 350 396 c 0,49,50
 359 396 359 396 363 394 c 0,51,52
 374 388 374 388 379 379 c 2,53,-1
 382 375 l 1,54,-1
 382 248 l 2,55,56
 383 118 383 118 384 110 c 0,57,58
 392 73 392 73 409 64 c 0,59,60
 414 62 414 62 424 62 c 0,61,62
 442 62 442 62 456 71 c 0,63,64
 489 94 489 94 493 158 c 0,65,66
 494 172 494 172 494 284.5 c 128,-1,67
 494 397 494 397 492 413 c 0,68,69
 484 524 484 524 450 576 c 0,70,71
 415 629 415 629 338 635 c 0,72,73
 304 638 304 638 264 630 c 0,74,75
 179 613 179 613 164 541 c 0,76,77
 160 525 160 525 153 519 c 0,78,79
 143 511 143 511 131 511 c 0,80,81
 103 511 103 511 98 537 c 0,82,83
 98 538 98 538 100 552 c 0,84,85
 114 626 114 626 181 664 c 0,86,87
 223 688 223 688 295 695 c 0,0,1
240 336 m 0,88,89
 222 343 222 343 206 339 c 0,90,91
 178 332 178 332 171 299 c 0,92,93
 155 239 155 239 161 162 c 0,94,95
 166 98 166 98 187 76 c 0,96,97
 201 62 201 62 231 62 c 0,98,99
 249 62 249 62 263 67 c 0,100,101
 294 83 294 83 313 122 c 2,102,-1
 317 130 l 1,103,-1
 317 199 l 1,104,-1
 317 269 l 1,105,-1
 312 276 l 1,106,107
 285 323 285 323 240 336 c 0,88,89
EndSplineSet
EndChar

StartChar: A
Encoding: 65 65 35
Width: 654
GlyphClass: 2
Flags: W
LayerCount: 2
Fore
SplineSet
280 682 m 0,0,1
 292 687 292 687 305 682 c 0,2,3
 325 675 325 675 325 655 c 0,4,5
 325 649 325 649 278 466 c 0,6,7
 267 426 267 426 254 376 c 128,-1,8
 241 326 241 326 235 303 c 2,9,-1
 229 280 l 2,10,11
 229 278 229 278 327 278 c 128,-1,12
 425 278 425 278 425 279 c 0,13,14
 425 283 425 283 377 463 c 0,15,16
 336 622 336 622 332 641 c 128,-1,17
 328 660 328 660 332 668 c 0,18,19
 342 684 342 684 362 684 c 0,20,21
 371 684 371 684 376 681 c 0,22,23
 388 675 388 675 393 661 c 0,24,25
 408 601 408 601 474 349 c 0,26,27
 553 42 553 42 553 37 c 0,28,29
 551 26 551 26 543 19 c 0,30,31
 534 10 534 10 519 10 c 0,32,33
 512 10 512 10 507 13 c 0,34,35
 496 18 496 18 491 28 c 2,36,-1
 466 120 l 2,37,38
 445 204 445 204 442 213 c 2,39,-1
 441 218 l 1,40,-1
 327 218 l 1,41,-1
 213 218 l 1,42,-1
 189 124 l 2,43,44
 166 32 166 32 163 27 c 0,45,46
 158 18 158 18 145 12 c 0,47,48
 134 7 134 7 120 13 c 0,49,50
 105 19 105 19 101 37 c 0,51,52
 101 42 101 42 181 353 c 0,53,54
 262 665 262 665 265 669 c 0,55,56
 271 679 271 679 280 682 c 0,0,1
EndSplineSet
EndChar

StartChar: B
Encoding: 66 66 36
Width: 654
GlyphClass: 2
Flags: W
LayerCount: 2
Fore
SplineSet
119 678 m 0,0,1
 123 680 123 680 230.5 680 c 128,-1,2
 338 680 338 680 349 678 c 0,3,4
 376 674 376 674 407 659 c 0,5,6
 430 648 430 648 451 627 c 128,-1,7
 472 606 472 606 483 583 c 0,8,9
 494 562 494 562 499 539 c 0,10,11
 501 528 501 528 501 506 c 128,-1,12
 501 484 501 484 499 473 c 0,13,14
 489 424 489 424 454 388 c 2,15,-1
 444 377 l 1,16,-1
 452 373 l 2,17,18
 482 360 482 360 503 340 c 0,19,20
 543 300 543 300 556 244 c 0,21,22
 558 232 558 232 558 209 c 128,-1,23
 558 186 558 186 556 175 c 0,24,25
 544 122 544 122 511 86 c 0,26,27
 464 38 464 38 385 26 c 0,28,29
 354 22 354 22 234 22 c 0,30,31
 120 22 120 22 116 23 c 0,32,33
 103 29 103 29 98 40 c 2,34,-1
 96 45 l 1,35,-1
 96 350 l 2,36,37
 96 656 96 656 98 660 c 0,38,39
 105 674 105 674 119 678 c 0,0,1
353 616 m 2,40,-1
 344 618 l 1,41,-1
 252 619 l 1,42,-1
 161 619 l 1,43,-1
 161 507 l 1,44,-1
 161 394 l 1,45,-1
 252 394 l 1,46,-1
 344 395 l 1,47,-1
 353 397 l 2,48,49
 372 402 372 402 387 412 c 0,50,51
 431 442 431 442 436 495 c 0,52,53
 440 536 440 536 417 570.5 c 128,-1,54
 394 605 394 605 353 616 c 2,40,-1
359 333 m 0,55,56
 351 334 351 334 253 334 c 2,57,-1
 161 334 l 1,58,-1
 161 208 l 1,59,-1
 161 81 l 1,60,-1
 243 81 l 2,61,62
 362 81 362 81 396 89 c 0,63,64
 452 104 452 104 477 145 c 0,65,66
 494 174 494 174 494 208 c 128,-1,67
 494 242 494 242 478 271 c 0,68,69
 445 327 445 327 359 333 c 0,55,56
EndSplineSet
EndChar

StartChar: C
Encoding: 67 67 37
Width: 654
GlyphClass: 2
Flags: W
LayerCount: 2
Fore
SplineSet
337 692 m 0,0,1
 365 694 365 694 392 690 c 0,2,3
 427 684 427 684 455 665 c 0,4,5
 463 660 463 660 475 648 c 128,-1,6
 487 636 487 636 492 628 c 0,7,8
 511 598 511 598 513 577 c 0,9,10
 513 569 513 569 511 564 c 0,11,12
 506 554 506 554 497 549 c 0,13,14
 470 535 470 535 454 558 c 0,15,16
 453 559 453 559 448 572 c 0,17,18
 445 581 445 581 441 589 c 0,19,20
 416 636 416 636 353 633 c 0,21,22
 295 630 295 630 261 581 c 0,23,24
 221 524 221 524 211 408 c 0,25,26
 210 393 210 393 210 355 c 128,-1,27
 210 317 210 317 211 302 c 0,28,29
 223 160 223 160 270 105 c 0,30,31
 303 64 303 64 367 67 c 0,32,33
 434 72 434 72 448 127 c 0,34,35
 449 136 449 136 453 141 c 0,36,37
 464 156 464 156 483 155 c 128,-1,38
 502 154 502 154 510 138 c 0,39,40
 513 132 513 132 513 124 c 0,41,42
 510 86 510 86 478 53 c 0,43,44
 442 15 442 15 384 8 c 0,45,46
 320 2 320 2 271 27 c 0,47,48
 167 79 167 79 148 273 c 0,49,50
 139 362 139 362 150 448 c 0,51,52
 171 623 171 623 275 673 c 0,53,54
 303 688 303 688 337 692 c 0,0,1
EndSplineSet
EndChar

StartChar: D
Encoding: 68 68 38
Width: 654
GlyphClass: 2
Flags: W
LayerCount: 2
Fore
SplineSet
165 683 m 0,0,1
 169 684 169 684 197 684 c 128,-1,2
 225 684 225 684 238 682 c 0,3,4
 343 667 343 667 423 599 c 0,5,6
 478 552 478 552 508.5 485.5 c 128,-1,7
 539 419 539 419 539 342 c 0,8,9
 539 191 539 191 422 91 c 0,10,11
 368 45 368 45 281 22 c 0,12,13
 243.493506494 12.1298701299 243.493506494 12.1298701299 193 14 c 2,14,-1
 166 15 l 1,15,-1
 160 17 l 2,16,17
 148.461538462 20.8461538462 148.461538462 20.8461538462 144 32 c 2,18,-1
 142 37 l 1,19,-1
 142 350 l 1,20,-1
 142 662 l 1,21,-1
 144 666 l 2,22,23
 150 679 150 679 165 683 c 0,0,1
220 623 m 2,24,-1
 207 624 l 2,25,26
 206 624 206 624 206 350 c 2,27,-1
 206 74 l 1,28,-1
 220 74 l 2,29,30
 272 74 272 74 328 102 c 0,31,32
 388 132 388 132 426 185.5 c 0,33,34
 456 228 456 228 472 311 c 0,35,36
 474 321 474 321 474 342 c 128,-1,37
 474 363 474 363 472 373 c 0,38,39
 469 401 469 401 461 427 c 0,40,41
 436 511 436 511 370 563 c 0,42,43
 302 617 302 617 220 623 c 2,24,-1
EndSplineSet
EndChar

StartChar: E
Encoding: 69 69 39
Width: 654
GlyphClass: 2
Flags: W
LayerCount: 2
Fore
SplineSet
165 678 m 0,0,1
 168 679 168 679 346 679 c 2,2,-1
 524 679 l 1,3,-1
 530 675 l 2,4,5
 547 667 547 667 547 649 c 128,-1,6
 547 631 547 631 530 623 c 2,7,-1
 524 620 l 1,8,-1
 365 619 l 1,9,-1
 206 619 l 1,10,-1
 206 507 l 1,11,-1
 206 394 l 1,12,-1
 341 394 l 1,13,-1
 476 394 l 1,14,-1
 481 391 l 2,15,16
 499 381 499 381 499 364 c 128,-1,17
 499 347 499 347 481 337 c 2,18,-1
 476 335 l 1,19,-1
 341 334 l 1,20,-1
 206 334 l 1,21,-1
 206 207 l 1,22,-1
 206 81 l 1,23,-1
 365 81 l 1,24,-1
 524 81 l 1,25,-1
 530 77 l 2,26,27
 547 69 547 69 547 51 c 128,-1,28
 547 33 547 33 530 25 c 2,29,-1
 524 22 l 1,30,-1
 345 22 l 1,31,-1
 166 22 l 1,32,-1
 160 24 l 2,33,34
 150 29 150 29 144 39 c 2,35,-1
 142 44 l 1,36,-1
 142 350 l 1,37,-1
 142 657 l 1,38,-1
 144 661 l 2,39,40
 149 672 149 672 165 678 c 0,0,1
EndSplineSet
EndChar

StartChar: F
Encoding: 70 70 40
Width: 654
GlyphClass: 2
Flags: W
LayerCount: 2
Fore
SplineSet
215 677 m 0,0,1
 219 679 219 679 363 679 c 2,2,-1
 507 679 l 1,3,-1
 512 676 l 2,4,5
 523 671 523 671 528 660 c 128,-1,6
 533 649 533 649 528 638 c 0,7,8
 524 628 524 628 512 622 c 2,9,-1
 507 620 l 1,10,-1
 382 619 l 1,11,-1
 257 619 l 1,12,-1
 257 507 l 1,13,-1
 257 394 l 1,14,-1
 359 394 l 1,15,-1
 461 394 l 1,16,-1
 467 391 l 2,17,18
 476 386 476 386 482 377 c 0,19,20
 489 364 489 364 482 352 c 0,21,22
 477 342 477 342 467 337 c 2,23,-1
 461 335 l 1,24,-1
 359 334 l 1,25,-1
 257 334 l 1,26,-1
 257 185 l 2,27,28
 257 36 257 36 255 31 c 0,29,30
 251 19 251 19 239 13 c 0,31,32
 234 11 234 11 225 11 c 0,33,34
 215 11 215 11 210 13 c 0,35,36
 198 19 198 19 194 31 c 0,37,38
 192 36 192 36 192 344 c 0,39,40
 192 654 192 654 193 656 c 0,41,42
 198 672 198 672 215 677 c 0,0,1
EndSplineSet
EndChar

StartChar: G
Encoding: 71 71 41
Width: 654
GlyphClass: 2
Flags: W
LayerCount: 2
Fore
SplineSet
325 691 m 0,0,1
 346 694 346 694 373 692 c 0,2,3
 422 686 422 686 462 663 c 0,4,5
 517 630 517 630 544 577 c 0,6,7
 547 571 547 571 547 564 c 0,8,9
 547 548 547 548 532 538.5 c 128,-1,10
 517 529 517 529 501 536 c 0,11,12
 491 542 491 542 483 555 c 0,13,14
 457 600 457 600 411 620.5 c 128,-1,15
 365 641 365 641 317 628 c 0,16,17
 249 611 249 611 207 531 c 0,18,19
 166 452 166 452 166 341 c 0,20,21
 166 237 166 237 204 170 c 0,22,23
 252 87 252 87 336 71 c 0,24,25
 401 56 401 56 469 86 c 2,26,-1
 477 90 l 1,27,-1
 477 193 l 1,28,-1
 477 297 l 1,29,-1
 408 297 l 1,30,-1
 339 298 l 1,31,-1
 334 300 l 2,32,33
 322 305 322 305 317 316.5 c 128,-1,34
 312 328 312 328 317 339 c 128,-1,35
 322 350 322 350 335 355 c 0,36,37
 343 357 343 357 429 357 c 2,38,-1
 519 357 l 1,39,-1
 524 354 l 2,40,41
 536 348 536 348 540 336 c 0,42,43
 542 331 542 331 542 200 c 0,44,45
 542 88 542 88 541.5 75 c 128,-1,46
 541 62 541 62 534 55 c 0,47,48
 520 39 520 39 475 23 c 0,49,50
 455 15 455 15 419 9 c 0,51,52
 407 7 407 7 380 7 c 0,53,54
 345 7 345 7 321 12 c 0,55,56
 282 19 282 19 240 44 c 0,57,58
 192 73 192 73 157 126 c 0,59,60
 115 189 115 189 105 276 c 0,61,62
 95 347 95 347 107 422 c 0,63,64
 118 497 118 497 148 555 c 0,65,66
 177 613 177 613 223 648.5 c 128,-1,67
 269 684 269 684 325 691 c 0,0,1
EndSplineSet
EndChar

StartChar: H
Encoding: 72 72 42
Width: 654
GlyphClass: 2
Flags: W
LayerCount: 2
Fore
SplineSet
146 689 m 0,0,1
 147 689 147 689 151.5 689.5 c 128,-1,2
 156 690 156 690 158 690 c 0,3,4
 173 689 173 689 181 679 c 0,5,6
 188 672 188 672 188.5 658.5 c 128,-1,7
 189 645 189 645 189 526 c 2,8,-1
 189 389 l 1,9,-1
 327 389 l 1,10,-1
 465 389 l 1,11,-1
 465 526 l 2,12,13
 465 664 465 664 467 669 c 0,14,15
 471 681 471 681 483 687 c 0,16,17
 491 690 491 690 498 690 c 0,18,19
 504 690 504 690 512 687 c 0,20,21
 524 681 524 681 528 669 c 0,22,23
 530 664 530 664 530 350 c 128,-1,24
 530 36 530 36 528 31 c 0,25,26
 524 19 524 19 512 13 c 0,27,28
 507 11 507 11 498 11 c 0,29,30
 488 11 488 11 483 13 c 0,31,32
 471 19 471 19 467 31 c 0,33,34
 465 36 465 36 465 183 c 2,35,-1
 465 329 l 1,36,-1
 327 329 l 1,37,-1
 189 329 l 1,38,-1
 189 183 l 2,39,40
 189 36 189 36 187 31 c 0,41,42
 183 19 183 19 171 13 c 0,43,44
 166 11 166 11 157 11 c 0,45,46
 147 11 147 11 142 13 c 0,47,48
 130 19 130 19 126 31 c 0,49,50
 124 36 124 36 124 350 c 0,51,52
 124 617 124 617 124.5 644.5 c 128,-1,53
 125 672 125 672 131 678 c 0,54,55
 140 687 140 687 146 689 c 0,0,1
EndSplineSet
EndChar

StartChar: I
Encoding: 73 73 43
Width: 654
GlyphClass: 2
Flags: W
LayerCount: 2
Fore
SplineSet
195 677 m 0,0,1
 199 679 199 679 329 679 c 2,2,-1
 459 679 l 1,3,-1
 464 676 l 2,4,5
 482 668 482 668 482 649 c 128,-1,6
 482 630 482 630 464 622 c 2,7,-1
 459 620 l 1,8,-1
 409 619 l 1,9,-1
 360 619 l 1,10,-1
 360 350 l 1,11,-1
 360 81 l 1,12,-1
 419 81 l 1,13,-1
 478 81 l 1,14,-1
 484 78 l 2,15,16
 493 73 493 73 499 64 c 0,17,18
 501 59 501 59 501 51 c 128,-1,19
 501 43 501 43 499 39 c 0,20,21
 494 29 494 29 484 24 c 2,22,-1
 478 22 l 1,23,-1
 327 22 l 1,24,-1
 176 22 l 1,25,-1
 170 25 l 2,26,27
 153 33 153 33 153 51 c 128,-1,28
 153 69 153 69 170 77 c 2,29,-1
 176 81 l 1,30,-1
 236 81 l 1,31,-1
 295 81 l 1,32,-1
 295 350 l 1,33,-1
 295 619 l 1,34,-1
 248 619 l 2,35,36
 195 619 195 619 185 625 c 0,37,38
 170 637 170 637 173 654 c 0,39,40
 176 672 176 672 195 677 c 0,0,1
EndSplineSet
EndChar

StartChar: J
Encoding: 74 74 44
Width: 654
GlyphClass: 2
Flags: W
LayerCount: 2
Fore
SplineSet
394 689 m 0,0,1
 395 689 395 689 399.5 689.5 c 128,-1,2
 404 690 404 690 406 690 c 0,3,4
 421 689 421 689 429 679 c 0,5,6
 436 672 436 672 436.5 648 c 128,-1,7
 437 624 437 624 437 400 c 2,8,-1
 436 138 l 1,9,-1
 434 126 l 2,10,11
 423 83 423 83 396 56 c 0,12,13
 367 25 367 25 325.5 12.5 c 128,-1,14
 284 0 284 0 242 8 c 0,15,16
 199 17 199 17 166.5 46 c 128,-1,17
 134 75 134 75 121 116 c 0,18,19
 114 136 114 136 114 166 c 0,20,21
 114 191 114 191 118 201.5 c 128,-1,22
 122 212 122 212 134 218 c 0,23,24
 146 223 146 223 159 218.5 c 128,-1,25
 172 214 172 214 178 203 c 0,26,27
 181 193 181 193 179 177 c 0,28,29
 176 145 176 145 189 120 c 0,30,31
 209 79 209 79 253 68 c 0,32,33
 272 63 272 63 298 67 c 0,34,35
 354 81 354 81 369 135 c 2,36,-1
 371 143 l 1,37,-1
 372 405 l 2,38,39
 372 665 372 665 374 671 c 0,40,41
 380 684 380 684 394 689 c 0,0,1
EndSplineSet
EndChar

StartChar: K
Encoding: 75 75 45
Width: 654
GlyphClass: 2
Flags: W
LayerCount: 2
Fore
SplineSet
132 689 m 0,0,1
 133 689 133 689 137.5 689.5 c 128,-1,2
 142 690 142 690 144 690 c 0,3,4
 159 689 159 689 167 679 c 0,5,6
 172 674 172 674 173 669 c 0,7,8
 175 654 175 654 175 350 c 0,9,10
 175 36 175 36 173 31 c 0,11,12
 169 19 169 19 157 13 c 0,13,14
 152 11 152 11 143 11 c 0,15,16
 133 11 133 11 128 13 c 0,17,18
 116 19 116 19 112 31 c 0,19,20
 110 36 110 36 110 350 c 0,21,22
 110 617 110 617 110.5 644.5 c 128,-1,23
 111 672 111 672 117 678 c 0,24,25
 126 687 126 687 132 689 c 0,0,1
493 689 m 0,26,27
 504 693 504 693 518 687 c 0,28,29
 530 682 530 682 534 669 c 0,30,31
 538 659 538 659 533 647 c 0,32,33
 528 639 528 639 394 504 c 2,34,-1
 258 364 l 1,35,36
 324 295 324 295 405 211 c 0,37,38
 554 56 554 56 556 52 c 0,39,40
 561 42 561 42 556.5 30 c 128,-1,41
 552 18 552 18 540 13 c 0,42,43
 536 11 536 11 527 11 c 0,44,45
 516 10 516 10 510 15 c 0,46,47
 499 24 499 24 346 181 c 0,48,49
 304 225 304 225 261.5 269.5 c 128,-1,50
 219 314 219 314 202 332 c 128,-1,51
 185 350 185 350 184 351 c 0,52,53
 179 364 179 364 183 374 c 0,54,55
 185 379 185 379 334 532 c 0,56,57
 484 684 484 684 486 685 c 0,58,59
 487 686 487 686 489.5 687.5 c 128,-1,60
 492 689 492 689 493 689 c 0,26,27
EndSplineSet
EndChar

StartChar: L
Encoding: 76 76 46
Width: 654
GlyphClass: 2
Flags: W
LayerCount: 2
Fore
SplineSet
146 689 m 0,0,1
 147 689 147 689 151.5 689.5 c 128,-1,2
 156 690 156 690 158 690 c 0,3,4
 173 689 173 689 181 679 c 0,5,6
 186 674 186 674 187 668 c 0,7,8
 189 653 189 653 189 372 c 2,9,-1
 189 81 l 1,10,-1
 362 81 l 1,11,-1
 535 81 l 1,12,-1
 541 78 l 2,13,14
 550 73 550 73 556 64 c 0,15,16
 558 59 558 59 558 51 c 128,-1,17
 558 43 558 43 556 39 c 0,18,19
 551 29 551 29 541 24 c 2,20,-1
 535 22 l 1,21,-1
 341 22 l 1,22,-1
 148 22 l 1,23,-1
 142 24 l 2,24,25
 130 30 130 30 126 42 c 0,26,27
 124 47 124 47 124 355 c 0,28,29
 124 618 124 618 124.5 645 c 128,-1,30
 125 672 125 672 131 678 c 0,31,32
 140 687 140 687 146 689 c 0,0,1
EndSplineSet
EndChar

StartChar: M
Encoding: 77 77 47
Width: 654
GlyphClass: 2
Flags: W
LayerCount: 2
Fore
SplineSet
118 689 m 0,0,1
 119 689 119 689 123.5 689.5 c 128,-1,2
 128 690 128 690 130 690 c 0,3,4
 145 689 145 689 153 679 c 0,5,6
 158 674 158 674 159 669 c 0,7,8
 161 654 161 654 161 350 c 0,9,10
 161 36 161 36 159 31 c 0,11,12
 155 19 155 19 143 13 c 0,13,14
 138 11 138 11 129 11 c 0,15,16
 119 11 119 11 114 13 c 0,17,18
 102 19 102 19 98 31 c 0,19,20
 96 36 96 36 96 350 c 0,21,22
 96 617 96 617 96.5 644.5 c 128,-1,23
 97 672 97 672 103 678 c 0,24,25
 112 687 112 687 118 689 c 0,0,1
187 688 m 0,26,27
 198 692 198 692 210.5 688 c 128,-1,28
 223 684 223 684 228 673 c 0,29,30
 231 670 231 670 278 507 c 2,31,-1
 327 344 l 2,32,33
 327 343 327 343 340.5 387.5 c 128,-1,34
 354 432 354 432 376 506 c 0,35,36
 387 541 387 541 400 586 c 128,-1,37
 413 631 413 631 419.5 651.5 c 128,-1,38
 426 672 426 672 426 673 c 0,39,40
 432 684 432 684 442 687 c 0,41,42
 446 689 446 689 456 689 c 0,43,44
 465 689 465 689 470 687 c 0,45,46
 480 683 480 683 485 671 c 0,47,48
 489 664 489 664 483 641.5 c 128,-1,49
 477 619 477 619 423 438 c 0,50,51
 360 222 360 222 357 216 c 0,52,53
 355 210 355 210 350 207 c 0,54,55
 339 196 339 196 322.5 198 c 128,-1,56
 306 200 306 200 299 214 c 0,57,58
 297 218 297 218 232 437 c 0,59,60
 167 652 167 652 167 661 c 0,61,62
 167 680 167 680 187 688 c 0,26,27
516 689 m 0,63,64
 517 689 517 689 521.5 689.5 c 128,-1,65
 526 690 526 690 528 690 c 0,66,67
 543 689 543 689 551 679 c 0,68,69
 556 674 556 674 557 669 c 0,70,71
 559 654 559 654 559 350 c 0,72,73
 559 36 559 36 557 31 c 0,74,75
 553 19 553 19 541 13 c 0,76,77
 536 11 536 11 527 11 c 0,78,79
 517 11 517 11 512 13 c 0,80,81
 500 19 500 19 496 31 c 0,82,83
 494 36 494 36 494 350 c 0,84,85
 494 617 494 617 494.5 644.5 c 128,-1,86
 495 672 495 672 501 678 c 0,87,88
 510 687 510 687 516 689 c 0,63,64
EndSplineSet
EndChar

StartChar: N
Encoding: 78 78 48
Width: 654
GlyphClass: 2
Flags: W
LayerCount: 2
Fore
SplineSet
132 689 m 0,0,1
 133 689 133 689 137.5 689.5 c 128,-1,2
 142 690 142 690 144 690 c 0,3,4
 159 689 159 689 167 679 c 0,5,6
 172 674 172 674 173 669 c 0,7,8
 175 654 175 654 175 350 c 0,9,10
 175 36 175 36 173 31 c 0,11,12
 169 19 169 19 157 13 c 0,13,14
 152 11 152 11 143 11 c 0,15,16
 133 11 133 11 128 13 c 0,17,18
 116 19 116 19 112 31 c 0,19,20
 110 36 110 36 110 350 c 0,21,22
 110 617 110 617 110.5 644.5 c 128,-1,23
 111 672 111 672 117 678 c 0,24,25
 126 687 126 687 132 689 c 0,0,1
204 689 m 0,26,27
 215 693 215 693 227 687 c 0,28,29
 238 683 238 683 242 674 c 0,30,31
 244 669 244 669 358 358.5 c 128,-1,32
 472 48 472 48 473 44 c 0,33,34
 475 35 475 35 470 27 c 0,35,36
 468 20 468 20 456 13 c 0,37,38
 451 11 451 11 441 11 c 0,39,40
 432 11 432 11 426 14 c 0,41,42
 425 14 425 14 423 15 c 0,43,44
 415 17 415 17 335 237 c 0,45,46
 311 300 311 300 297 339 c 0,47,48
 184 645 184 645 181 658 c 0,49,50
 181 671 181 671 189 679 c 0,51,52
 195 685 195 685 204 689 c 0,26,27
502 689 m 0,53,54
 503 689 503 689 507.5 689.5 c 128,-1,55
 512 690 512 690 514 690 c 0,56,57
 529 689 529 689 537 679 c 0,58,59
 542 674 542 674 543 669 c 0,60,61
 545 654 545 654 545 350 c 0,62,63
 545 36 545 36 543 31 c 0,64,65
 539 19 539 19 527 13 c 0,66,67
 522 11 522 11 513 11 c 0,68,69
 503 11 503 11 498 13 c 0,70,71
 486 19 486 19 482 31 c 0,72,73
 480 36 480 36 480 350 c 0,74,75
 480 617 480 617 480.5 644.5 c 128,-1,76
 481 672 481 672 487 678 c 0,77,78
 496 687 496 687 502 689 c 0,53,54
EndSplineSet
EndChar

StartChar: O
Encoding: 79 79 49
Width: 654
GlyphClass: 2
Flags: W
LayerCount: 2
Fore
SplineSet
305 698 m 0,0,1
 327 700 327 700 348 698 c 0,2,3
 383 694 383 694 414 678 c 0,4,5
 439 665 439 665 462 642 c 0,6,7
 489 617 489 617 510 574 c 0,8,9
 559 475 559 475 555.5 336.5 c 128,-1,10
 552 198 552 198 498 109 c 0,11,12
 472 68 472 68 439 43 c 0,13,14
 406 20 406 20 367 11 c 0,15,16
 301 -2 301 -2 240 28 c 0,17,18
 214 42 214 42 192 64 c 0,19,20
 165 89 165 89 144 132 c 0,21,22
 95 231 95 231 98.5 369.5 c 128,-1,23
 102 508 102 508 156 597 c 0,24,25
 183 639 183 639 216 663 c 0,26,27
 256 692 256 692 305 698 c 0,0,1
354 636 m 0,28,29
 348 637 348 637 333.5 638 c 128,-1,30
 319 639 319 639 313 638 c 0,31,32
 243 629 243 629 203 548 c 0,33,34
 156 455 156 455 164 321 c 0,35,36
 170 223 170 223 202.5 157.5 c 128,-1,37
 235 92 235 92 287 74 c 0,38,39
 303 68 303 68 327 68 c 128,-1,40
 351 68 351 68 368 74 c 0,41,42
 435 98 435 98 469 201 c 0,43,44
 495 282 495 282 490 381.5 c 128,-1,45
 485 481 485 481 451 548 c 0,46,47
 414 623 414 623 354 636 c 0,28,29
EndSplineSet
EndChar

StartChar: P
Encoding: 80 80 50
Width: 654
GlyphClass: 2
Flags: W
LayerCount: 2
Fore
SplineSet
146 678 m 0,0,1
 150 679 150 679 262 679 c 0,2,3
 382 678 382 678 412 672 c 0,4,5
 453 664 453 664 486 641 c 0,6,7
 510 625 510 625 526 601 c 0,8,9
 573 535 573 535 554 449 c 0,10,11
 542 392 542 392 499 356 c 128,-1,12
 456 320 456 320 388 310 c 0,13,14
 362 306 362 306 267 306 c 2,15,-1
 189 306 l 1,16,-1
 189 171 l 2,17,18
 189 36 189 36 187 31 c 0,19,20
 183 19 183 19 171 13 c 0,21,22
 166 11 166 11 157 11 c 0,23,24
 147 11 147 11 142 13 c 0,25,26
 130 19 130 19 126 31 c 0,27,28
 124 36 124 36 124 344 c 0,29,30
 124 607 124 607 124.5 634 c 128,-1,31
 125 661 125 661 131 667 c 0,32,33
 138 675 138 675 146 678 c 0,0,1
365 618 m 0,34,35
 357 619 357 619 270 619 c 2,36,-1
 189 619 l 1,37,-1
 189 493 l 1,38,-1
 189 366 l 1,39,-1
 265 366 l 2,40,41
 367 366 367 366 401 374 c 0,42,43
 479 393 479 393 492 465 c 0,44,45
 496 492 496 492 492 519 c 0,46,47
 483 568 483 568 444 595 c 0,48,49
 416 614 416 614 365 618 c 0,34,35
EndSplineSet
EndChar

StartChar: Q
Encoding: 81 81 51
Width: 654
GlyphClass: 2
Flags: W
LayerCount: 2
Fore
SplineSet
305 698 m 0,0,1
 327 700 327 700 348 698 c 0,2,3
 383 694 383 694 414 678 c 0,4,5
 439 665 439 665 462 642 c 0,6,7
 489 617 489 617 510 574 c 0,8,9
 556 482 556 482 556 353 c 128,-1,10
 556 224 556 224 510 133 c 2,11,-1
 504 120 l 1,12,-1
 529 88 l 2,13,14
 553 57 553 57 556 51 c 0,15,16
 561 39 561 39 556 27 c 0,17,18
 552 19 552 19 540 13 c 0,19,20
 536 11 536 11 527 11 c 0,21,22
 514 11 514 11 507 16.5 c 128,-1,23
 500 22 500 22 481 47 c 2,24,-1
 466 67 l 1,25,-1
 457 59 l 2,26,27
 419 21 419 21 367 11 c 0,28,29
 301 -2 301 -2 240 28 c 0,30,31
 214 42 214 42 192 64 c 0,32,33
 165 89 165 89 144 132 c 0,34,35
 95 231 95 231 98.5 369.5 c 128,-1,36
 102 508 102 508 156 597 c 0,37,38
 183 639 183 639 216 663 c 0,39,40
 256 692 256 692 305 698 c 0,0,1
354 636 m 0,41,42
 342 638 342 638 331 638 c 0,43,44
 314 639 314 639 302 636 c 0,45,46
 222 620 222 620 185 505 c 0,47,48
 159 424 159 424 164 324.5 c 128,-1,49
 169 225 169 225 203 158 c 0,50,51
 240 82 240 82 302 69 c 0,52,53
 327 65 327 65 352 69 c 0,54,55
 389 78 389 78 416 106 c 2,56,-1
 426 117 l 1,57,58
 396 157 396 157 358 205 c 0,59,60
 294 287 294 287 289 296 c 0,61,62
 284 308 284 308 289 320 c 0,63,64
 296 331 296 331 307 335 c 0,65,66
 311 337 311 337 321 337 c 0,67,68
 335 336 335 336 344 325 c 0,69,70
 345 324 345 324 353 313.5 c 128,-1,71
 361 303 361 303 377 283 c 128,-1,72
 393 263 393 263 405 248 c 0,73,74
 459 179 459 179 461 179 c 2,75,-1
 467 197 l 2,76,77
 501 299 501 299 487 419 c 0,78,79
 476 511 476 511 441 567.5 c 128,-1,80
 406 624 406 624 354 636 c 0,41,42
EndSplineSet
EndChar

StartChar: R
Encoding: 82 82 52
Width: 654
GlyphClass: 2
Flags: W
LayerCount: 2
Fore
SplineSet
158 677 m 0,0,1
 162 679 162 679 243 679 c 0,2,3
 323 678 323 678 334 676 c 0,4,5
 398 664 398 664 443 622 c 0,6,7
 485 581 485 581 499 520 c 0,8,9
 501 508 501 508 501 485 c 0,10,11
 501 461 501 461 499 450 c 0,12,13
 485 391 485 391 446 353 c 0,14,15
 422 330 422 330 391 318 c 0,16,17
 390 318 390 318 388 317 c 0,18,19
 383 314 383 314 383 313 c 0,20,21
 384 310 384 310 459 181 c 0,22,23
 533 53 533 53 535 47 c 0,24,25
 540 32 540 32 527 19 c 0,26,27
 518 11 518 11 503 11 c 0,28,29
 494 11 494 11 489 13 c 2,30,-1
 480 19 l 1,31,32
 473 29 473 29 395 164 c 2,33,-1
 313 306 l 1,34,-1
 257 306 l 1,35,-1
 200 306 l 1,36,-1
 200 171 l 2,37,38
 200 36 200 36 198 31 c 0,39,40
 194 19 194 19 182 13 c 0,41,42
 177 11 177 11 168 11 c 0,43,44
 158 11 158 11 153 13 c 0,45,46
 141 19 141 19 137 31 c 0,47,48
 135 36 135 36 135 344 c 0,49,50
 135 654 135 654 136 656 c 0,51,52
 141 672 141 672 158 677 c 0,0,1
327 616 m 0,53,54
 318 618 318 618 259 619 c 2,55,-1
 200 619 l 1,56,-1
 200 493 l 1,57,-1
 200 366 l 1,58,-1
 267 366 l 2,59,60
 337 366 337 366 342 367 c 0,61,62
 393 374 393 374 420 422 c 0,63,64
 437 452 437 452 436.5 487.5 c 128,-1,65
 436 523 436 523 417 554 c 0,66,67
 387 602 387 602 327 616 c 0,53,54
EndSplineSet
EndChar

StartChar: S
Encoding: 83 83 53
Width: 654
GlyphClass: 2
Flags: W
LayerCount: 2
Fore
SplineSet
301 692 m 0,0,1
 350 697 350 697 398 681 c 0,2,3
 429 672 429 672 453 654 c 0,4,5
 487 630 487 630 506 594 c 0,6,7
 516 571 516 571 516 563 c 0,8,9
 516 551 516 551 507 542.5 c 128,-1,10
 498 534 498 534 485 534 c 0,11,12
 470 534 470 534 461 543 c 0,13,14
 456 547 456 547 452 557 c 0,15,16
 427 617 427 617 353 631 c 0,17,18
 324 635 324 635 298 631 c 0,19,20
 237 618 237 618 214.5 560.5 c 128,-1,21
 192 503 192 503 230 454 c 0,22,23
 253 424 253 424 307 401 c 0,24,25
 309 400 309 400 317 397 c 128,-1,26
 325 394 325 394 333.5 390.5 c 128,-1,27
 342 387 342 387 349 385 c 0,28,29
 399 365 399 365 417 356 c 0,30,31
 455 336 455 336 477 312 c 0,32,33
 512 277 512 277 522 223 c 0,34,35
 528 190 528 190 522 158 c 0,36,37
 510 93 510 93 451 50 c 0,38,39
 400 12 400 12 335 5 c 128,-1,40
 270 -2 270 -2 215 24 c 0,41,42
 161 49 161 49 139 98 c 0,43,44
 127 124 127 124 133 138 c 0,45,46
 143 156 143 156 164 155 c 0,47,48
 186 154 186 154 194 131 c 0,49,50
 214 82 214 82 270 68 c 0,51,52
 311 58 311 58 348 68 c 0,53,54
 398 79 398 79 429 112.5 c 128,-1,55
 460 146 460 146 460 189 c 0,56,57
 460 246 460 246 421 280 c 0,58,59
 396 301 396 301 323 330 c 0,60,61
 274 349 274 349 251 360 c 0,62,63
 164 404 164 404 145 487 c 0,64,65
 143 498 143 498 143 520 c 128,-1,66
 143 542 143 542 145 553 c 0,67,68
 146 555 146 555 148 563.5 c 128,-1,69
 150 572 150 572 151 575 c 0,70,71
 161 601 161 601 174 619 c 0,72,73
 188 639 188 639 205 652 c 0,74,75
 247 686 247 686 301 692 c 0,0,1
EndSplineSet
EndChar

StartChar: T
Encoding: 84 84 54
Width: 654
GlyphClass: 2
Flags: W
LayerCount: 2
Fore
SplineSet
119 678 m 0,0,1
 122 679 122 679 329 679 c 2,2,-1
 535 679 l 1,3,-1
 541 676 l 2,4,5
 550 671 550 671 556 662 c 0,6,7
 558 657 558 657 558 649 c 128,-1,8
 558 641 558 641 556 637 c 0,9,10
 551 627 551 627 541 622 c 2,11,-1
 535 620 l 1,12,-1
 447 619 l 1,13,-1
 360 619 l 1,14,-1
 360 328 l 2,15,16
 360 36 360 36 358 31 c 0,17,18
 354 19 354 19 342 13 c 0,19,20
 337 11 337 11 328 11 c 0,21,22
 318 11 318 11 313 13 c 0,23,24
 301 19 301 19 297 31 c 0,25,26
 295 36 295 36 295 328 c 2,27,-1
 295 619 l 1,28,-1
 207 619 l 1,29,-1
 120 620 l 1,30,-1
 115 622 l 2,31,32
 96 630 96 630 96 649 c 0,33,34
 96 661 96 661 104 669 c 0,35,36
 111 676 111 676 119 678 c 0,0,1
EndSplineSet
EndChar

StartChar: U
Encoding: 85 85 55
Width: 654
GlyphClass: 2
Flags: W
LayerCount: 2
Fore
SplineSet
132 689 m 0,0,1
 133 689 133 689 137.5 689.5 c 128,-1,2
 142 690 142 690 144 690 c 0,3,4
 159 689 159 689 167 679 c 0,5,6
 174 672 174 672 174.5 651.5 c 128,-1,7
 175 631 175 631 175 441 c 0,8,9
 175 216 175 216 176 209 c 0,10,11
 186 123 186 123 247 86 c 0,12,13
 264 76 264 76 296 69 c 0,14,15
 306 68 306 68 327.5 68 c 128,-1,16
 349 68 349 68 359 69 c 0,17,18
 396 76 396 76 424 97 c 0,19,20
 471 135 471 135 479 209 c 0,21,22
 480 216 480 216 480 441 c 0,23,24
 480 664 480 664 482 669 c 0,25,26
 486 681 486 681 498 687 c 0,27,28
 506 690 506 690 513 690 c 128,-1,29
 520 690 520 690 527 687 c 0,30,31
 539 681 539 681 543 669 c 0,32,33
 545 664 545 664 545 439 c 0,34,35
 545 211 545 211 544 204 c 0,36,37
 540 175 540 175 532 150 c 0,38,39
 521 118 521 118 509 101 c 0,40,41
 459 23 459 23 368 10 c 0,42,43
 328 4 328 4 287 10 c 0,44,45
 221 21 221 21 177 63 c 0,46,47
 126 111 126 111 113 189 c 2,48,-1
 111 202 l 1,49,-1
 110 432 l 2,50,51
 110 630 110 630 110.5 651 c 128,-1,52
 111 672 111 672 117 678 c 0,53,54
 126 687 126 687 132 689 c 0,0,1
EndSplineSet
EndChar

StartChar: V
Encoding: 86 86 56
Width: 654
GlyphClass: 2
Flags: W
LayerCount: 2
Fore
SplineSet
117 688 m 0,0,1
 129 693 129 693 143 686 c 0,2,3
 154 682 154 682 158 671 c 0,4,5
 161 661 161 661 240 357 c 0,6,7
 306 100 306 100 313.5 67.5 c 128,-1,8
 321 35 321 35 317 27 c 128,-1,9
 313 19 313 19 301 13 c 0,10,11
 288 7 288 7 273 13 c 0,12,13
 262 19 262 19 258 28 c 0,14,15
 256 32 256 32 176 343 c 0,16,17
 96 655 96 655 96 660 c 0,18,19
 96 680 96 680 117 688 c 0,0,1
517 689 m 0,20,21
 528 693 528 693 540 687 c 128,-1,22
 552 681 552 681 556 673 c 128,-1,23
 560 665 560 665 552.5 635 c 128,-1,24
 545 605 545 605 478 342 c 0,25,26
 398 29 398 29 395 25 c 0,27,28
 393 20 393 20 382 13 c 0,29,30
 377 11 377 11 367 11 c 0,31,32
 358 11 358 11 352 14 c 0,33,34
 335 22 335 22 335 40 c 0,35,36
 335 43 335 43 415 357 c 0,37,38
 495 668 495 668 497 672 c 0,39,40
 499 679 499 679 510 686 c 0,41,42
 511 687 511 687 517 689 c 0,20,21
EndSplineSet
EndChar

StartChar: W
Encoding: 87 87 57
Width: 654
GlyphClass: 2
Flags: W
LayerCount: 2
Fore
SplineSet
117 688 m 0,0,1
 120 690 120 690 129 690 c 0,2,3
 151 688 151 688 158 672 c 2,4,-1
 160 667 l 1,5,-1
 175 352 l 2,6,7
 190 40 190 40 188 32 c 0,8,9
 184 20 184 20 171 13 c 0,10,11
 166 11 166 11 157 11 c 0,12,13
 146 11 146 11 142 13 c 0,14,15
 130 18 130 18 126 31 c 0,16,17
 124 34 124 34 110 342 c 0,18,19
 96 636 96 636 96 656 c 0,20,21
 96 671 96 671 102 678 c 0,22,23
 106 683 106 683 117 688 c 0,0,1
517 689 m 0,24,25
 528 693 528 693 540 687 c 0,26,27
 557 680 557 680 559 663 c 0,28,29
 559 645 559 645 545 346 c 0,30,31
 531 36 531 36 529 30 c 0,32,33
 525 20 525 20 513 14 c 0,34,35
 507 11 507 11 498 11 c 0,36,37
 488 11 488 11 483 13 c 0,38,39
 472 19 472 19 468 28 c 0,40,41
 466 33 466 33 466 44 c 0,42,43
 466 66 466 66 480 360 c 0,44,45
 494 666 494 666 497 675 c 0,46,47
 498 675 498 675 503 680 c 0,48,49
 510 687 510 687 517 689 c 0,24,25
309 413 m 0,50,51
 312 414 312 414 329 414 c 0,52,53
 343 414 343 414 349 411 c 0,54,55
 361 407 361 407 365 397 c 0,56,57
 368 391 368 391 411 219 c 0,58,59
 456 49 456 49 456 40 c 0,60,61
 456 22 456 22 439 14 c 0,62,63
 433 11 433 11 424 11 c 0,64,65
 414 11 414 11 409 13 c 0,66,67
 397 20 397 20 395 27 c 0,68,69
 394 28 394 28 360 159 c 0,70,71
 350 197 350 197 342 227 c 128,-1,72
 334 257 334 257 330.5 271 c 128,-1,73
 327 285 327 285 327 284 c 0,74,75
 325 282 325 282 294 156 c 0,76,77
 262 33 262 33 259 26 c 0,78,79
 253 16 253 16 244 13 c 0,80,81
 233 7 233 7 216 13 c 0,82,83
 198 22 198 22 198 40 c 0,84,85
 198 43 198 43 242.5 217.5 c 128,-1,86
 287 392 287 392 289 396 c 0,87,88
 293 406 293 406 309 413 c 0,50,51
EndSplineSet
EndChar

StartChar: X
Encoding: 88 88 58
Width: 654
GlyphClass: 2
Flags: W
LayerCount: 2
Fore
SplineSet
144 689 m 0,0,1
 154 693 154 693 168 687 c 0,2,3
 175 684 175 684 185 667.5 c 128,-1,4
 195 651 195 651 255 545 c 2,5,-1
 327 415 l 1,6,7
 360 474 360 474 400 545 c 0,8,9
 472 676 472 676 476 679 c 0,10,11
 482 685 482 685 485 686 c 0,12,13
 491 689 491 689 501 689 c 0,14,15
 516 689 516 689 525 680 c 0,16,17
 533 671 533 671 533 658 c 2,18,-1
 532 651 l 1,19,-1
 491 577 l 2,20,21
 480 557 480 557 450.5 504 c 128,-1,22
 421 451 421 451 410 431 c 2,23,-1
 369 358 l 1,24,-1
 453 204 l 2,25,26
 528 68 528 68 538 47 c 0,27,28
 545 26 545 26 521 13 c 0,29,30
 516 11 516 11 507 11 c 0,31,32
 491 11 491 11 482 21 c 0,33,34
 473 34 473 34 403 164 c 0,35,36
 393 182 393 182 379.5 207 c 128,-1,37
 366 232 366 232 358 246 c 128,-1,38
 350 260 350 260 342 274.5 c 128,-1,39
 334 289 334 289 330 295 c 2,40,-1
 327 301 l 1,41,42
 293 239 293 239 251 163 c 0,43,44
 180 32 180 32 173 21 c 0,45,46
 168 16 168 16 163 14 c 0,47,48
 157 11 157 11 148 11 c 0,49,50
 138 11 138 11 133 13 c 0,51,52
 116 22 116 22 116 39 c 0,53,54
 116 47 116 47 119 53 c 0,55,56
 125 66 125 66 204 209 c 0,57,58
 285 359 285 359 284 360 c 2,59,-1
 274 379 l 2,60,61
 263 398 263 398 243 434 c 128,-1,62
 223 470 223 470 204 505 c 0,63,64
 126 644 126 644 123 652 c 0,65,66
 119 663 119 663 125 674 c 128,-1,67
 131 685 131 685 144 689 c 0,0,1
EndSplineSet
EndChar

StartChar: Y
Encoding: 89 89 59
Width: 654
GlyphClass: 2
Flags: W
LayerCount: 2
Fore
SplineSet
142 689 m 0,0,1
 150 692 150 692 165 687 c 0,2,3
 173 683 173 683 183.5 665 c 128,-1,4
 194 647 194 647 253 536 c 2,5,-1
 327 398 l 1,6,-1
 330 402 l 2,7,8
 331 405 331 405 404 542 c 0,9,10
 476 677 476 677 480 680 c 0,11,12
 483 683 483 683 489 687 c 0,13,14
 497 690 497 690 503 690 c 0,15,16
 516 690 516 690 527 681 c 0,17,18
 540 668 540 668 535 653 c 0,19,20
 519 621 519 621 447 486 c 2,21,-1
 360 324 l 1,22,-1
 360 180 l 2,23,24
 360 36 360 36 358 31 c 0,25,26
 354 19 354 19 342 13 c 0,27,28
 337 11 337 11 328 11 c 0,29,30
 318 11 318 11 313 13 c 0,31,32
 301 19 301 19 297 31 c 0,33,34
 295 36 295 36 295 180 c 2,35,-1
 295 323 l 1,36,-1
 207 486 l 2,37,38
 120 652 120 652 119 655 c 0,39,40
 117 666 117 666 123 675.5 c 128,-1,41
 129 685 129 685 142 689 c 0,0,1
EndSplineSet
EndChar

StartChar: Z
Encoding: 90 90 60
Width: 654
GlyphClass: 2
Flags: W
LayerCount: 2
Fore
SplineSet
150 678 m 0,0,1
 153 679 153 679 313 679 c 2,2,-1
 473 679 l 1,3,-1
 478 676 l 2,4,5
 488 670 488 670 493 662 c 0,6,7
 495 658 495 658 495 649 c 2,8,-1
 496 641 l 1,9,-1
 352 361 l 1,10,-1
 208 82 l 1,11,-1
 357 81 l 1,12,-1
 507 81 l 1,13,-1
 512 78 l 2,14,15
 523 73 523 73 528 62 c 128,-1,16
 533 51 533 51 528 40 c 128,-1,17
 523 29 523 29 510 23 c 0,18,19
 506 22 506 22 327 22 c 2,20,-1
 148 22 l 1,21,-1
 142 24 l 2,22,23
 128 31 128 31 125 43 c 0,24,25
 123 54 123 54 133 74 c 0,26,27
 138 86 138 86 276 354 c 0,28,29
 412 617 412 617 412 619 c 2,30,-1
 281 619 l 1,31,-1
 151 620 l 1,32,-1
 146 622 l 2,33,34
 131 629 131 629 128 644 c 128,-1,35
 125 659 125 659 136 669 c 0,36,37
 142 676 142 676 150 678 c 0,0,1
EndSplineSet
EndChar

StartChar: bracketleft
Encoding: 91 91 61
Width: 654
GlyphClass: 2
Flags: W
LayerCount: 2
Fore
SplineSet
216 749 m 0,0,1
 219 750 219 750 369 750 c 2,2,-1
 518 750 l 1,3,-1
 523 747 l 2,4,5
 542 738 542 738 542 720 c 128,-1,6
 542 702 542 702 523 693 c 2,7,-1
 518 691 l 1,8,-1
 387 690 l 1,9,-1
 257 690 l 1,10,-1
 257 379 l 1,11,-1
 257 67 l 1,12,-1
 387 67 l 1,13,-1
 518 67 l 1,14,-1
 523 64 l 2,15,16
 542 54 542 54 542 37 c 128,-1,17
 542 20 542 20 523 10 c 2,18,-1
 518 8 l 1,19,-1
 367 8 l 1,20,-1
 216 8 l 1,21,-1
 210 10 l 2,22,23
 197 17 197 17 193 28 c 0,24,25
 192 33 192 33 192 381 c 2,26,-1
 193 728 l 1,27,-1
 195 732 l 2,28,29
 200 743 200 743 216 749 c 0,0,1
EndSplineSet
EndChar

StartChar: backslash
Encoding: 92 92 62
Width: 654
GlyphClass: 2
Flags: W
LayerCount: 2
Fore
SplineSet
179 749 m 0,0,1
 197 754 197 754 210 741 c 0,2,3
 216 737 216 737 216 734 c 0,4,5
 218 732 218 732 358 388 c 0,6,7
 497 49 497 49 499 39 c 0,8,9
 501 20 501 20 481 10 c 0,10,11
 476 8 476 8 467 8 c 128,-1,12
 458 8 458 8 453 10 c 0,13,14
 443 14 443 14 438 23 c 0,15,16
 435 30 435 30 296 370 c 0,17,18
 156 712 156 712 156 720 c 0,19,20
 156 742 156 742 179 749 c 0,0,1
EndSplineSet
EndChar

StartChar: bracketright
Encoding: 93 93 63
Width: 654
GlyphClass: 2
Flags: W
LayerCount: 2
Fore
SplineSet
136 749 m 0,0,1
 139 750 139 750 289 750 c 2,2,-1
 439 750 l 1,3,-1
 444 747 l 2,4,5
 452 741 452 741 454 739 c 0,6,7
 459 734 459 734 459 733 c 0,8,9
 462 721 462 721 462 379 c 0,10,11
 462 340 462 340 462 274 c 0,12,13
 462 86 462 86 461.5 54.5 c 128,-1,14
 461 23 461 23 456 20 c 0,15,16
 455 19 455 19 454 18 c 0,17,18
 452 16 452 16 444 10 c 2,19,-1
 439 8 l 1,20,-1
 288 8 l 2,21,22
 137 8 137 8 133 9 c 0,23,24
 120 15 120 15 115 26 c 128,-1,25
 110 37 110 37 115 48 c 128,-1,26
 120 59 120 59 132 64 c 2,27,-1
 137 67 l 1,28,-1
 267 67 l 1,29,-1
 397 67 l 1,30,-1
 397 379 l 1,31,-1
 397 690 l 1,32,-1
 267 690 l 1,33,-1
 137 691 l 1,34,-1
 132 693 l 2,35,36
 113 701 113 701 113 720 c 0,37,38
 113 732 113 732 121 740 c 0,39,40
 128 747 128 747 136 749 c 0,0,1
EndSplineSet
EndChar

StartChar: asciicircum
Encoding: 94 94 64
Width: 654
GlyphClass: 2
Flags: W
LayerCount: 2
Fore
SplineSet
315 742 m 0,0,1
 320 744 320 744 329 744 c 0,2,3
 343 742 343 742 349 736 c 0,4,5
 353 732 353 732 454 581 c 128,-1,6
 555 430 555 430 557 425 c 0,7,8
 560 416 560 416 557 407 c 0,9,10
 553 393 553 393 538 387 c 0,11,12
 524 384 524 384 514 388 c 2,13,-1
 512 389 l 2,14,15
 506 390 506 390 445 456 c 0,16,17
 432 469 432 469 411 492 c 2,18,-1
 327 580 l 1,19,20
 286 537 286 537 237 485 c 0,21,22
 148 391 148 391 142 389 c 0,23,24
 130 383 130 383 117 387.5 c 128,-1,25
 104 392 104 392 98 404 c 0,26,27
 93 416 93 416 97 425 c 0,28,29
 99 430 99 430 200.5 581 c 128,-1,30
 302 732 302 732 305 735 c 0,31,32
 309 739 309 739 315 742 c 0,0,1
EndSplineSet
EndChar

StartChar: underscore
Encoding: 95 95 65
Width: 654
GlyphClass: 2
Flags: W
LayerCount: 2
Fore
SplineSet
119 -127 m 0,0,1
 122 -126 122 -126 329 -126 c 2,2,-1
 535 -126 l 1,3,-1
 541 -129 l 2,4,5
 550 -134 550 -134 556 -143 c 0,6,7
 559 -150 559 -150 559 -170 c 0,8,9
 559 -191 559 -191 556 -197 c 0,10,11
 551 -207 551 -207 541 -212 c 2,12,-1
 535 -214 l 1,13,-1
 328 -214 l 2,14,15
 120 -214 120 -214 116 -213 c 0,16,17
 103 -207 103 -207 98 -196 c 0,18,19
 96 -192 96 -192 96 -170 c 0,20,21
 96 -145 96 -145 104 -136 c 0,22,23
 111 -129 111 -129 119 -127 c 0,0,1
EndSplineSet
EndChar

StartChar: grave
Encoding: 96 96 66
Width: 654
GlyphClass: 2
Flags: W
LayerCount: 2
Fore
SplineSet
303 590 m 1,0,1
 392 496 392 496 398 494 c 0,2,3
 413 489 413 489 423 492 c 0,4,5
 436 497 436 497 442 509 c 0,6,7
 447 521 447 521 443 530 c 0,8,9
 441 535 441 535 339.5 686 c 128,-1,10
 238 837 238 837 235 840 c 0,11,12
 231 844 231 844 225 847 c 0,13,14
 218 850 218 850 211 849 c 0,15,16
 197 847 197 847 191 841 c 0,17,18
 177 822 177 822 166 802 c 0,19,20
 155 781 155 781 147 770 c 0,21,22
 132 751 132 751 156 728 c 2,23,-1
 303 590 l 1,0,1
EndSplineSet
EndChar

StartChar: a
Encoding: 97 97 67
Width: 654
GlyphClass: 2
Flags: W
LayerCount: 2
Fore
SplineSet
309 521 m 0,0,1
 314 522 314 522 334.5 521.5 c 128,-1,2
 355 521 355 521 363 520 c 0,3,4
 438 507 438 507 485 462 c 2,5,-1
 494 453 l 1,6,-1
 494 472 l 2,7,8
 494 490 494 490 497 497 c 0,9,10
 506 513 506 513 527 513 c 0,11,12
 547 513 547 513 556 497 c 2,13,-1
 559 492 l 1,14,-1
 559 263 l 2,15,16
 559 33 559 33 558 28 c 0,17,18
 554 17 554 17 541 10 c 0,19,20
 536 8 536 8 527 8 c 0,21,22
 517 8 517 8 512 10 c 0,23,24
 500 16 500 16 496 28 c 0,25,26
 494 32 494 32 494 53 c 2,27,-1
 494 73 l 1,28,-1
 485 64 l 2,29,30
 438 18 438 18 364 6 c 0,31,32
 354 5 354 5 328 5 c 0,33,34
 293 5 293 5 267 11 c 0,35,36
 170 36 170 36 125 126 c 0,37,38
 99 180 99 180 96 252 c 0,39,40
 93 364 93 364 146 435 c 0,41,42
 162 456 162 456 183 473 c 0,43,44
 232 512 232 512 296 520 c 0,45,46
 301 521 301 521 309 521 c 0,0,1
346 461 m 0,47,48
 284 467 284 467 236 435 c 0,49,50
 186 402 186 402 170 335 c 0,51,52
 156 284 156 284 164 222 c 0,53,54
 176 116 176 116 255 80 c 0,55,56
 269 73 269 73 293 67 c 0,57,58
 304 65 304 65 328 65 c 0,59,60
 351 65 351 65 362 67 c 0,61,62
 386 73 386 73 400 80 c 0,63,64
 479 116 479 116 491 222 c 0,65,66
 499 284 499 284 485 335 c 0,67,68
 472 390 472 390 435.5 423 c 128,-1,69
 399 456 399 456 346 461 c 0,47,48
EndSplineSet
EndChar

StartChar: b
Encoding: 98 98 68
Width: 654
GlyphClass: 2
Flags: W
LayerCount: 2
Fore
SplineSet
120 785 m 0,0,1
 130 788 130 788 143 783 c 0,2,3
 152 778 152 778 158 769 c 2,4,-1
 161 764 l 1,5,-1
 161 608 l 1,6,-1
 161 453 l 1,7,-1
 170 462 l 2,8,9
 220 509 220 509 296 520 c 0,10,11
 305 522 305 522 327.5 522 c 128,-1,12
 350 522 350 522 359 520 c 0,13,14
 454 506 454 506 509 435 c 0,15,16
 562 364 562 364 559 252 c 0,17,18
 558 221 558 221 552 191 c 0,19,20
 535 114 535 114 485 65 c 0,21,22
 438 18 438 18 364 6 c 0,23,24
 327 2 327 2 292 6 c 0,25,26
 252 12 252 12 222 28 c 0,27,28
 194 41 194 41 170 64 c 2,29,-1
 161 73 l 1,30,-1
 161 53 l 2,31,32
 161 32 161 32 159 28 c 0,33,34
 155 16 155 16 143 10 c 0,35,36
 138 8 138 8 129 8 c 0,37,38
 119 8 119 8 114 10 c 0,39,40
 101 17 101 17 97 28 c 0,41,42
 96 33 96 33 96 399 c 2,43,-1
 97 764 l 1,44,-1
 99 768 l 2,45,46
 105 779 105 779 120 785 c 0,0,1
346 461 m 0,47,48
 284 467 284 467 236 435 c 0,49,50
 186 402 186 402 170 335 c 0,51,52
 156 284 156 284 164 222 c 0,53,54
 176 116 176 116 255 80 c 0,55,56
 269 73 269 73 293 67 c 0,57,58
 304 65 304 65 328 65 c 0,59,60
 351 65 351 65 362 67 c 0,61,62
 386 73 386 73 400 80 c 0,63,64
 479 116 479 116 491 222 c 0,65,66
 499 284 499 284 485 335 c 0,67,68
 472 390 472 390 435.5 423 c 128,-1,69
 399 456 399 456 346 461 c 0,47,48
EndSplineSet
EndChar

StartChar: c
Encoding: 99 99 69
Width: 654
GlyphClass: 2
Flags: W
LayerCount: 2
Fore
SplineSet
299 520 m 0,0,1
 334 524 334 524 367 519 c 0,2,3
 465 504 465 504 511 426 c 0,4,5
 530 390 530 390 530 369 c 0,6,7
 530 357 530 357 521 348 c 0,8,9
 504 335 504 335 487 342 c 0,10,11
 470 348 470 348 465 368 c 0,12,13
 454 412 454 412 416 438 c 0,14,15
 372 468 372 468 309 461 c 0,16,17
 222 452 222 452 184 374 c 0,18,19
 159 323 159 323 161 252 c 0,20,21
 162 213 162 213 173 178 c 0,22,23
 191 123 191 123 234 92 c 0,24,25
 278 61 278 61 340 64.5 c 128,-1,26
 402 68 402 68 438 104 c 0,27,28
 462 126 462 126 465 155 c 0,29,30
 466 173 466 173 473 178 c 0,31,32
 474 180 474 180 478 183 c 2,33,-1
 482 186 l 2,34,35
 487 188 487 188 498 188 c 0,36,37
 508 188 508 188 513 186 c 0,38,39
 526 179 526 179 529 167 c 0,40,41
 535 147 535 147 521 116 c 0,42,43
 511 90 511 90 487 64 c 0,44,45
 456 33 456 33 407 16 c 0,46,47
 371 5 371 5 328 5 c 0,48,49
 292 5 292 5 267 11 c 0,50,51
 211 25 211 25 171 63.5 c 128,-1,52
 131 102 131 102 112 159 c 0,53,54
 97 203 97 203 96 252 c 0,55,56
 93 364 93 364 146 435 c 0,57,58
 162 456 162 456 183 473 c 0,59,60
 232 513 232 513 299 520 c 0,0,1
EndSplineSet
EndChar

StartChar: d
Encoding: 100 100 70
Width: 654
GlyphClass: 2
Flags: W
LayerCount: 2
Fore
SplineSet
518 785 m 0,0,1
 528 788 528 788 541 783 c 0,2,3
 550 778 550 778 556 769 c 2,4,-1
 559 764 l 1,5,-1
 559 399 l 2,6,7
 559 33 559 33 558 28 c 0,8,9
 554 17 554 17 541 10 c 0,10,11
 536 8 536 8 527 8 c 0,12,13
 517 8 517 8 512 10 c 0,14,15
 500 16 500 16 496 28 c 0,16,17
 494 32 494 32 494 53 c 2,18,-1
 494 73 l 1,19,-1
 485 64 l 2,20,21
 438 18 438 18 364 6 c 0,22,23
 354 5 354 5 328 5 c 0,24,25
 293 5 293 5 267 11 c 0,26,27
 170 36 170 36 125 126 c 0,28,29
 99 180 99 180 96 252 c 0,30,31
 93 382 93 382 164 456 c 0,32,33
 192 484 192 484 223 498 c 0,34,35
 255 514 255 514 296 520 c 0,36,37
 305 522 305 522 327.5 522 c 128,-1,38
 350 522 350 522 359 520 c 0,39,40
 435 509 435 509 485 462 c 2,41,-1
 494 453 l 1,42,-1
 494 608 l 1,43,-1
 495 764 l 1,44,-1
 497 768 l 2,45,46
 503 779 503 779 518 785 c 0,0,1
346 461 m 0,47,48
 284 467 284 467 236 435 c 0,49,50
 186 402 186 402 170 335 c 0,51,52
 156 284 156 284 164 222 c 0,53,54
 176 116 176 116 255 80 c 0,55,56
 269 73 269 73 293 67 c 0,57,58
 304 65 304 65 328 65 c 0,59,60
 351 65 351 65 362 67 c 0,61,62
 386 73 386 73 400 80 c 0,63,64
 479 116 479 116 491 222 c 0,65,66
 499 284 499 284 485 335 c 0,67,68
 472 390 472 390 435.5 423 c 128,-1,69
 399 456 399 456 346 461 c 0,47,48
EndSplineSet
EndChar

StartChar: e
Encoding: 101 101 71
Width: 654
GlyphClass: 2
Flags: W
LayerCount: 2
Fore
SplineSet
299 520 m 0,0,1
 329 526 329 526 368 519 c 0,2,3
 434 509 434 509 475 468 c 0,4,5
 494 450 494 450 507 424 c 0,6,7
 524 392 524 392 529 357 c 0,8,9
 531 346 531 346 531 319 c 0,10,11
 532 286 532 286 527 277 c 0,12,13
 523 267 523 267 511 263 c 2,14,-1
 507 261 l 1,15,-1
 334 260 l 1,16,-1
 161 260 l 1,17,-1
 161 247 l 2,18,19
 164 205 164 205 173 178 c 0,20,21
 191 123 191 123 234 92 c 0,22,23
 278 61 278 61 340 64.5 c 128,-1,24
 402 68 402 68 438 104 c 0,25,26
 462 126 462 126 465 155 c 0,27,28
 466 173 466 173 473 178 c 0,29,30
 474 180 474 180 478 183 c 2,31,-1
 482 186 l 2,32,33
 487 188 487 188 498 188 c 0,34,35
 508 188 508 188 513 186 c 0,36,37
 526 179 526 179 529 167 c 0,38,39
 535 147 535 147 521 116 c 0,40,41
 511 90 511 90 487 64 c 0,42,43
 456 33 456 33 407 16 c 0,44,45
 371 5 371 5 328 5 c 0,46,47
 292 5 292 5 267 11 c 0,48,49
 211 25 211 25 171 63.5 c 128,-1,50
 131 102 131 102 112 159 c 0,51,52
 97 203 97 203 96 252 c 0,53,54
 93 364 93 364 146 435 c 0,55,56
 162 456 162 456 183 473 c 0,57,58
 232 513 232 513 299 520 c 0,0,1
360 460 m 0,59,60
 327 463 327 463 307 461 c 0,61,62
 221 450 221 450 184 374 c 0,63,64
 174 354 174 354 167 323 c 2,65,-1
 166 320 l 1,66,-1
 316 320 l 1,67,-1
 467 320 l 1,68,-1
 467 323 l 2,69,70
 467 338 467 338 463 358 c 0,71,72
 449 426 449 426 396 449 c 0,73,74
 378 457 378 457 360 460 c 0,59,60
EndSplineSet
EndChar

StartChar: f
Encoding: 102 102 72
Width: 654
GlyphClass: 2
Flags: W
LayerCount: 2
Fore
SplineSet
400 764 m 0,0,1
 470 780 470 780 482 782 c 128,-1,2
 494 784 494 784 503 780 c 0,3,4
 514 774 514 774 519 766 c 0,5,6
 521 761 521 761 521 753 c 128,-1,7
 521 745 521 745 519 740 c 0,8,9
 514 731 514 731 505 726 c 0,10,11
 504 726 504 726 495 723.5 c 128,-1,12
 486 721 486 721 466 716.5 c 128,-1,13
 446 712 446 712 431 709 c 2,14,-1
 361 693 l 1,15,-1
 360 602 l 1,16,-1
 360 511 l 1,17,-1
 430 511 l 1,18,-1
 501 511 l 1,19,-1
 506 508 l 2,20,21
 525 498 525 498 525 481 c 128,-1,22
 525 464 525 464 506 454 c 2,23,-1
 501 452 l 1,24,-1
 430 451 l 1,25,-1
 360 451 l 1,26,-1
 360 242 l 2,27,28
 360 33 360 33 358 28 c 0,29,30
 354 16 354 16 342 10 c 0,31,32
 337 8 337 8 328 8 c 0,33,34
 318 8 318 8 313 10 c 0,35,36
 301 16 301 16 297 28 c 0,37,38
 295 33 295 33 295 242 c 2,39,-1
 295 451 l 1,40,-1
 224 451 l 1,41,-1
 154 452 l 1,42,-1
 149 454 l 2,43,44
 137 459 137 459 132 470.5 c 128,-1,45
 127 482 127 482 132 493 c 0,46,47
 137 503 137 503 149 508 c 2,48,-1
 154 511 l 1,49,-1
 224 511 l 1,50,-1
 295 511 l 1,51,-1
 295 616 l 2,52,53
 295 702 295 702 296 715.5 c 128,-1,54
 297 729 297 729 302 735 c 0,55,56
 308 742 308 742 318.5 745 c 128,-1,57
 329 748 329 748 400 764 c 0,0,1
EndSplineSet
EndChar

StartChar: g
Encoding: 103 103 73
Width: 654
GlyphClass: 2
Flags: W
LayerCount: 2
Fore
SplineSet
309 521 m 0,0,1
 314 522 314 522 334.5 521.5 c 128,-1,2
 355 521 355 521 363 520 c 0,3,4
 438 507 438 507 485 462 c 2,5,-1
 494 453 l 1,6,-1
 494 472 l 2,7,8
 494 490 494 490 497 497 c 0,9,10
 506 513 506 513 527 513 c 0,11,12
 547 513 547 513 556 497 c 2,13,-1
 559 492 l 1,14,-1
 559 263 l 2,15,16
 559 28 559 28 558 15 c 0,17,18
 552 -75 552 -75 504 -120 c 0,19,20
 486 -138 486 -138 462 -150 c 0,21,22
 427 -167 427 -167 381 -172 c 0,23,24
 357 -175 357 -175 323 -171 c 0,25,26
 221 -155 221 -155 158 -80 c 0,27,28
 148 -69 148 -69 148 -57 c 0,29,30
 148 -44 148 -44 156 -36 c 0,31,32
 165 -28 165 -28 180 -28 c 128,-1,33
 195 -28 195 -28 211 -45 c 0,34,35
 274 -116 274 -116 367 -113 c 0,36,37
 455 -108 455 -108 481 -44 c 0,38,39
 494 -12 494 -12 494 53 c 2,40,-1
 494 73 l 1,41,-1
 485 64 l 2,42,43
 438 18 438 18 364 6 c 0,44,45
 354 5 354 5 328 5 c 0,46,47
 293 5 293 5 267 11 c 0,48,49
 170 36 170 36 125 126 c 0,50,51
 99 180 99 180 96 252 c 0,52,53
 93 364 93 364 146 435 c 0,54,55
 162 456 162 456 183 473 c 0,56,57
 232 512 232 512 296 520 c 0,58,59
 301 521 301 521 309 521 c 0,0,1
346 461 m 0,60,61
 284 467 284 467 236 435 c 0,62,63
 186 402 186 402 170 335 c 0,64,65
 156 284 156 284 164 222 c 0,66,67
 176 116 176 116 255 80 c 0,68,69
 269 73 269 73 293 67 c 0,70,71
 304 65 304 65 328 65 c 0,72,73
 351 65 351 65 362 67 c 0,74,75
 386 73 386 73 400 80 c 0,76,77
 479 116 479 116 491 222 c 0,78,79
 499 284 499 284 485 335 c 0,80,81
 472 390 472 390 435.5 423 c 128,-1,82
 399 456 399 456 346 461 c 0,60,61
EndSplineSet
EndChar

StartChar: h
Encoding: 104 104 74
Width: 654
GlyphClass: 2
Flags: W
LayerCount: 2
Fore
SplineSet
162 785 m 0,0,1
 172 788 172 788 185 783 c 0,2,3
 194 778 194 778 200 769 c 2,4,-1
 203 764 l 1,5,-1
 203 616 l 1,6,-1
 203 468 l 1,7,-1
 210 474 l 2,8,9
 245 502 245 502 283 511 c 0,10,11
 303 517 303 517 336 517 c 0,12,13
 412 514 412 514 457 471 c 0,14,15
 499 430 499 430 511 353 c 0,16,17
 515 324 515 324 516 175 c 0,18,19
 516 33 516 33 515 29 c 0,20,21
 512 17 512 17 498 10 c 0,22,23
 493 8 493 8 484 8 c 0,24,25
 474 8 474 8 469 10 c 0,26,27
 457 16 457 16 453 28 c 0,28,29
 451 33 451 33 451 160 c 0,30,31
 451 295 451 295 450 306 c 0,32,33
 446 375 446 375 427 408 c 0,34,35
 402 450 402 450 347 456 c 0,36,37
 293 462 293 462 256 431 c 0,38,39
 210 394 210 394 204 330 c 0,40,41
 203 323 203 323 203 177 c 0,42,43
 203 33 203 33 201 28 c 0,44,45
 197 16 197 16 185 10 c 0,46,47
 180 8 180 8 171 8 c 0,48,49
 161 8 161 8 156 10 c 0,50,51
 143 17 143 17 139 28 c 0,52,53
 138 33 138 33 138 399 c 2,54,-1
 139 764 l 1,55,-1
 141 768 l 2,56,57
 147 779 147 779 162 785 c 0,0,1
EndSplineSet
EndChar

StartChar: i
Encoding: 105 105 75
Width: 654
GlyphClass: 2
Flags: W
LayerCount: 2
Fore
SplineSet
324 785 m 0,0,1
 326 786 326 786 358 786 c 2,2,-1
 388 786 l 1,3,-1
 393 783 l 2,4,5
 405 777 405 777 409 765 c 0,6,7
 411 759 411 759 411 732 c 128,-1,8
 411 705 411 705 409 699 c 0,9,10
 405 687 405 687 393 681 c 2,11,-1
 388 679 l 1,12,-1
 356 679 l 1,13,-1
 325 679 l 1,14,-1
 319 681 l 2,15,16
 309 686 309 686 303 696 c 2,17,-1
 301 701 l 1,18,-1
 301 732 l 2,19,20
 301 764 301 764 303 768 c 0,21,22
 309 779 309 779 324 785 c 0,0,1
187 501 m 0,23,24
 190 502 190 502 288 502 c 2,25,-1
 385 502 l 1,26,-1
 390 499 l 2,27,28
 402 493 402 493 406 481 c 0,29,30
 408 476 408 476 408 255 c 0,31,32
 408 33 408 33 406 28 c 0,33,34
 402 16 402 16 390 10 c 0,35,36
 385 8 385 8 376 8 c 0,37,38
 366 8 366 8 361 10 c 0,39,40
 349 16 349 16 345 28 c 0,41,42
 343 33 343 33 343 238 c 2,43,-1
 343 442 l 1,44,-1
 265 442 l 2,45,46
 189 442 189 442 183 445 c 0,47,48
 168 452 168 452 165 467 c 128,-1,49
 162 482 162 482 173 492 c 0,50,51
 180 498 180 498 187 501 c 0,23,24
EndSplineSet
EndChar

StartChar: j
Encoding: 106 106 76
Width: 654
GlyphClass: 2
Flags: W
LayerCount: 2
Fore
SplineSet
324 785 m 0,0,1
 326 786 326 786 358 786 c 2,2,-1
 388 786 l 1,3,-1
 393 783 l 2,4,5
 405 777 405 777 409 765 c 0,6,7
 411 759 411 759 411 732 c 128,-1,8
 411 705 411 705 409 699 c 0,9,10
 405 687 405 687 393 681 c 2,11,-1
 388 679 l 1,12,-1
 356 679 l 1,13,-1
 325 679 l 1,14,-1
 319 681 l 2,15,16
 309 686 309 686 303 696 c 2,17,-1
 301 701 l 1,18,-1
 301 732 l 2,19,20
 301 764 301 764 303 768 c 0,21,22
 309 779 309 779 324 785 c 0,0,1
215 500 m 0,23,24
 219 502 219 502 299 502 c 2,25,-1
 379 502 l 1,26,-1
 384 499 l 2,27,28
 397 492 397 492 401 481 c 0,29,30
 402 476 402 476 402 205 c 2,31,-1
 402 -64 l 1,32,-1
 399 -69 l 2,33,34
 394 -78 394 -78 385 -83 c 0,35,36
 384 -83 384 -83 279 -121 c 2,37,-1
 177 -157 l 1,38,-1
 168 -157 l 2,39,40
 159 -157 159 -157 154 -155 c 0,41,42
 144 -150 144 -150 138 -140 c 0,43,44
 133 -130 133 -130 137 -119 c 0,45,46
 140 -109 140 -109 152 -102 c 0,47,48
 153 -102 153 -102 166 -97 c 128,-1,49
 179 -92 179 -92 202 -83.5 c 128,-1,50
 225 -75 225 -75 247 -68 c 2,51,-1
 337 -36 l 1,52,-1
 337 203 l 1,53,-1
 337 442 l 1,54,-1
 279 442 l 2,55,56
 230 442 230 442 221.5 442.5 c 128,-1,57
 213 443 213 443 205 448 c 0,58,59
 196 454 196 454 193 467 c 0,60,61
 191 478 191 478 197 487.5 c 128,-1,62
 203 497 203 497 215 500 c 0,23,24
EndSplineSet
EndChar

StartChar: k
Encoding: 107 107 77
Width: 654
GlyphClass: 2
Flags: W
LayerCount: 2
Fore
SplineSet
179 785 m 0,0,1
 189 788 189 788 202 783 c 0,2,3
 211 778 211 778 217 769 c 2,4,-1
 220 764 l 1,5,-1
 220 399 l 2,6,7
 220 33 220 33 219 28 c 0,8,9
 215 17 215 17 202 10 c 0,10,11
 197 8 197 8 188 8 c 0,12,13
 178 8 178 8 173 10 c 0,14,15
 160 17 160 17 156 28 c 0,16,17
 155 33 155 33 155 399 c 2,18,-1
 156 764 l 1,19,-1
 158 768 l 2,20,21
 164 779 164 779 179 785 c 0,0,1
463 537 m 0,22,23
 464 538 464 538 471 538 c 0,24,25
 490 536 490 536 499 521 c 0,26,27
 505 507 505 507 499 496 c 0,28,29
 497 491 497 491 401 392 c 2,30,-1
 305 293 l 1,31,-1
 308 289 l 1,32,33
 526 58 526 58 530 50 c 0,34,35
 532 46 532 46 532 37 c 0,36,37
 532 24 532 24 524 16 c 0,38,39
 515 8 515 8 501 8 c 0,40,41
 492 8 492 8 486 11 c 0,42,43
 477 15 477 15 357 145 c 0,44,45
 235 277 235 277 232 281 c 0,46,47
 225 294 225 294 233 305 c 0,48,49
 235 310 235 310 342 421 c 0,50,51
 450 532 450 532 455 534 c 0,52,53
 460 537 460 537 463 537 c 0,22,23
EndSplineSet
EndChar

StartChar: l
Encoding: 108 108 78
Width: 654
GlyphClass: 2
Flags: W
LayerCount: 2
Fore
SplineSet
262 785 m 0,0,1
 272 788 272 788 285 783 c 0,2,3
 294 778 294 778 300 769 c 2,4,-1
 303 764 l 1,5,-1
 303 418 l 1,6,-1
 303 73 l 1,7,-1
 390 73 l 1,8,-1
 478 73 l 1,9,-1
 484 70 l 2,10,11
 493 65 493 65 499 56 c 0,12,13
 506 43 506 43 499 31 c 0,14,15
 494 21 494 21 484 16 c 2,16,-1
 478 14 l 1,17,-1
 370 14 l 1,18,-1
 263 14 l 1,19,-1
 257 16 l 2,20,21
 247 21 247 21 241 31 c 2,22,-1
 239 36 l 1,23,-1
 239 400 l 1,24,-1
 239 764 l 1,25,-1
 241 768 l 2,26,27
 247 779 247 779 262 785 c 0,0,1
EndSplineSet
EndChar

StartChar: m
Encoding: 109 109 79
Width: 654
GlyphClass: 2
Flags: W
LayerCount: 2
Fore
SplineSet
214 516 m 0,0,1
 221 517 221 517 236 516.5 c 128,-1,2
 251 516 251 516 259 514 c 0,3,4
 301 505 301 505 326 468 c 1,5,-1
 332 462 l 1,6,-1
 338 470 l 2,7,8
 379 526 379 526 448 516 c 0,9,10
 505 507 505 507 532 453 c 0,11,12
 546 426 546 426 552 386 c 0,13,14
 558 351 558 351 559 186 c 0,15,16
 559 33 559 33 558 29 c 0,17,18
 554 17 554 17 541 10 c 0,19,20
 536 8 536 8 527 8 c 0,21,22
 517 8 517 8 513 10 c 0,23,24
 502 16 502 16 497 25 c 2,25,-1
 495 30 l 1,26,-1
 494 181 l 2,27,28
 493 347 493 347 488 380 c 0,29,30
 480 421 480 421 465 441 c 0,31,32
 446 463 446 463 419 455 c 0,33,34
 376 444 376 444 362 353 c 0,35,36
 361 344 361 344 360 186 c 2,37,-1
 360 30 l 1,38,-1
 357 25 l 2,39,40
 352 16 352 16 341 10 c 0,41,42
 337 8 337 8 328 8 c 0,43,44
 318 8 318 8 313 10 c 0,45,46
 301 16 301 16 297 28 c 0,47,48
 295 33 295 33 295 173 c 0,49,50
 295 322 295 322 294 333 c 0,51,52
 290 411 290 411 269 440 c 0,53,54
 256 456 256 456 233 456 c 0,55,56
 222 456 222 456 216 453 c 0,57,58
 203 447 203 447 193 434 c 0,59,60
 172 407 172 407 163 353 c 0,61,62
 162 344 162 344 161 186 c 2,63,-1
 161 30 l 1,64,-1
 158 25 l 2,65,66
 153 16 153 16 142 10 c 0,67,68
 138 8 138 8 129 8 c 0,69,70
 119 8 119 8 114 10 c 0,71,72
 100 17 100 17 98 28 c 0,73,74
 96 33 96 33 96 169 c 2,75,-1
 96 398 l 1,76,-1
 97 492 l 1,77,-1
 99 497 l 2,78,79
 104 504 104 504 106 505 c 0,80,81
 118 516 118 516 134 513 c 128,-1,82
 150 510 150 510 157 497 c 0,83,84
 158 496 158 496 159 494 c 0,85,86
 160 491 160 491 161 491 c 2,87,-1
 163 493 l 2,88,89
 181 509 181 509 214 516 c 0,0,1
EndSplineSet
EndChar

StartChar: n
Encoding: 110 110 80
Width: 654
GlyphClass: 2
Flags: W
LayerCount: 2
Fore
SplineSet
325 516 m 0,0,1
 419 527 419 527 487 456 c 0,2,3
 528 413 528 413 542 350 c 1,4,-1
 544 337 l 1,5,-1
 545 185 l 2,6,7
 545 33 545 33 544 28 c 0,8,9
 540 17 540 17 527 10 c 0,10,11
 522 8 522 8 513 8 c 0,12,13
 503 8 503 8 499 10 c 0,14,15
 488 16 488 16 483 25 c 2,16,-1
 481 30 l 1,17,-1
 480 181 l 2,18,19
 479 311 479 311 478.5 327 c 128,-1,20
 478 343 478 343 473 358 c 0,21,22
 463 390 463 390 439.5 415 c 128,-1,23
 416 440 416 440 386 450 c 0,24,25
 369 456 369 456 346 456 c 0,26,27
 328 456 328 456 322 455 c 0,28,29
 271 444 271 444 230.5 399.5 c 128,-1,30
 190 355 190 355 177 296 c 2,31,-1
 175 285 l 1,32,-1
 175 159 l 2,33,34
 175 33 175 33 173 28 c 0,35,36
 169 16 169 16 157 10 c 0,37,38
 152 8 152 8 143 8 c 0,39,40
 133 8 133 8 128 10 c 0,41,42
 115 17 115 17 111 28 c 0,43,44
 110 33 110 33 110 263 c 2,45,-1
 111 492 l 1,46,-1
 113 497 l 2,47,48
 122 513 122 513 143 513 c 0,49,50
 163 513 163 513 172 497 c 2,51,-1
 175 492 l 1,52,-1
 175 462 l 1,53,-1
 175 432 l 1,54,-1
 185 442 l 2,55,56
 214 474 214 474 256 495 c 0,57,58
 290 512 290 512 325 516 c 0,0,1
EndSplineSet
EndChar

StartChar: o
Encoding: 111 111 81
Width: 654
GlyphClass: 2
Flags: W
LayerCount: 2
Fore
SplineSet
309 521 m 0,0,1
 314 522 314 522 334.5 521.5 c 128,-1,2
 355 521 355 521 363 520 c 0,3,4
 456 505 456 505 509 435 c 0,5,6
 562 364 562 364 559 252 c 0,7,8
 558 221 558 221 552 191 c 0,9,10
 535 114 535 114 485 65 c 0,11,12
 438 18 438 18 364 6 c 0,13,14
 354 5 354 5 328 5 c 0,15,16
 293 5 293 5 267 11 c 0,17,18
 170 36 170 36 125 126 c 0,19,20
 99 180 99 180 96 252 c 0,21,22
 93 364 93 364 146 435 c 0,23,24
 162 456 162 456 183 473 c 0,25,26
 232 512 232 512 296 520 c 0,27,28
 301 521 301 521 309 521 c 0,0,1
346 461 m 0,29,30
 284 467 284 467 236 435 c 0,31,32
 186 402 186 402 170 335 c 0,33,34
 156 284 156 284 164 222 c 0,35,36
 176 116 176 116 255 80 c 0,37,38
 269 73 269 73 293 67 c 0,39,40
 304 65 304 65 328 65 c 0,41,42
 351 65 351 65 362 67 c 0,43,44
 386 73 386 73 400 80 c 0,45,46
 479 116 479 116 491 222 c 0,47,48
 499 284 499 284 485 335 c 0,49,50
 472 390 472 390 435.5 423 c 128,-1,51
 399 456 399 456 346 461 c 0,29,30
EndSplineSet
EndChar

StartChar: p
Encoding: 112 112 82
Width: 654
GlyphClass: 2
Flags: W
LayerCount: 2
Fore
SplineSet
309 521 m 0,0,1
 314 522 314 522 334.5 521.5 c 128,-1,2
 355 521 355 521 363 520 c 0,3,4
 456 505 456 505 509 435 c 0,5,6
 562 364 562 364 559 252 c 0,7,8
 558 221 558 221 552 191 c 0,9,10
 535 114 535 114 485 65 c 0,11,12
 438 18 438 18 364 6 c 0,13,14
 327 2 327 2 292 6 c 0,15,16
 252 12 252 12 222 28 c 0,17,18
 194 41 194 41 170 64 c 2,19,-1
 161 73 l 1,20,-1
 161 -34 l 1,21,-1
 161 -141 l 1,22,-1
 158 -147 l 2,23,24
 149 -163 149 -163 129 -163 c 0,25,26
 108 -163 108 -163 99 -147 c 2,27,-1
 97 -141 l 1,28,-1
 97 175 l 1,29,-1
 97 492 l 1,30,-1
 99 497 l 2,31,32
 108 513 108 513 129 513 c 0,33,34
 149 513 149 513 158 497 c 0,35,36
 161 490 161 490 161 472 c 2,37,-1
 161 453 l 1,38,-1
 170 462 l 2,39,40
 224 512 224 512 296 520 c 0,41,42
 301 521 301 521 309 521 c 0,0,1
346 461 m 0,43,44
 284 467 284 467 236 435 c 0,45,46
 186 402 186 402 170 335 c 0,47,48
 156 284 156 284 164 222 c 0,49,50
 176 116 176 116 255 80 c 0,51,52
 269 73 269 73 293 67 c 0,53,54
 304 65 304 65 328 65 c 0,55,56
 351 65 351 65 362 67 c 0,57,58
 386 73 386 73 400 80 c 0,59,60
 479 116 479 116 491 222 c 0,61,62
 499 284 499 284 485 335 c 0,63,64
 472 390 472 390 435.5 423 c 128,-1,65
 399 456 399 456 346 461 c 0,43,44
EndSplineSet
EndChar

StartChar: q
Encoding: 113 113 83
Width: 654
GlyphClass: 2
Flags: W
LayerCount: 2
Fore
SplineSet
309 521 m 0,0,1
 314 522 314 522 334.5 521.5 c 128,-1,2
 355 521 355 521 363 520 c 0,3,4
 438 507 438 507 485 462 c 2,5,-1
 494 453 l 1,6,-1
 494 472 l 2,7,8
 494 490 494 490 497 497 c 0,9,10
 506 513 506 513 527 513 c 0,11,12
 547 513 547 513 556 497 c 2,13,-1
 559 492 l 1,14,-1
 559 175 l 1,15,-1
 559 -141 l 1,16,-1
 556 -147 l 2,17,18
 547 -163 547 -163 527 -163 c 0,19,20
 506 -163 506 -163 497 -147 c 2,21,-1
 495 -141 l 1,22,-1
 494 -34 l 1,23,-1
 494 73 l 1,24,-1
 485 64 l 2,25,26
 438 18 438 18 364 6 c 0,27,28
 354 5 354 5 328 5 c 0,29,30
 293 5 293 5 267 11 c 0,31,32
 170 36 170 36 125 126 c 0,33,34
 99 180 99 180 96 252 c 0,35,36
 93 364 93 364 146 435 c 0,37,38
 162 456 162 456 183 473 c 0,39,40
 232 512 232 512 296 520 c 0,41,42
 301 521 301 521 309 521 c 0,0,1
346 461 m 0,43,44
 284 467 284 467 236 435 c 0,45,46
 186 402 186 402 170 335 c 0,47,48
 156 284 156 284 164 222 c 0,49,50
 176 116 176 116 255 80 c 0,51,52
 269 73 269 73 293 67 c 0,53,54
 304 65 304 65 328 65 c 0,55,56
 351 65 351 65 362 67 c 0,57,58
 386 73 386 73 400 80 c 0,59,60
 479 116 479 116 491 222 c 0,61,62
 499 284 499 284 485 335 c 0,63,64
 472 390 472 390 435.5 423 c 128,-1,65
 399 456 399 456 346 461 c 0,43,44
EndSplineSet
EndChar

StartChar: r
Encoding: 114 114 84
Width: 654
GlyphClass: 2
Flags: W
LayerCount: 2
Fore
SplineSet
362 516 m 0,0,1
 386 520 386 520 411 514 c 0,2,3
 460 502 460 502 493 459 c 0,4,5
 509 438 509 438 519 409 c 0,6,7
 532 370 532 370 530 342 c 0,8,9
 529 332 529 332 526 328 c 0,10,11
 518 312 518 312 497.5 312 c 128,-1,12
 477 312 477 312 469 328 c 0,13,14
 466 333 466 333 465 347 c 0,15,16
 462 382 462 382 450 408 c 0,17,18
 431 446 431 446 396 455 c 0,19,20
 363 463 363 463 329 436 c 0,21,22
 276 393 276 393 255 298 c 2,23,-1
 252 286 l 1,24,-1
 252 160 l 2,25,26
 252 33 252 33 250 28 c 0,27,28
 246 16 246 16 234 10 c 0,29,30
 229 8 229 8 220 8 c 0,31,32
 210 8 210 8 205 10 c 0,33,34
 192 17 192 17 188 28 c 0,35,36
 187 33 187 33 187 263 c 2,37,-1
 188 492 l 1,38,-1
 190 497 l 2,39,40
 199 513 199 513 220 513 c 0,41,42
 240 513 240 513 249 497 c 2,43,-1
 252 492 l 1,44,-1
 252 469 l 1,45,-1
 253 446 l 1,46,-1
 258 453 l 2,47,48
 278 475 278 475 293 486 c 0,49,50
 324 509 324 509 362 516 c 0,0,1
EndSplineSet
EndChar

StartChar: s
Encoding: 115 115 85
Width: 654
GlyphClass: 2
Flags: W
LayerCount: 2
Fore
SplineSet
310 521 m 0,0,1
 317 522 317 522 337 521.5 c 128,-1,2
 357 521 357 521 365 520 c 0,3,4
 460 506 460 506 495 438 c 0,5,6
 505 418 505 418 505 407 c 0,7,8
 503 392 503 392 489 384.5 c 128,-1,9
 475 377 475 377 460 382 c 0,10,11
 446 388 446 388 443 398 c 0,12,13
 428 432 428 432 401 446 c 0,14,15
 351 472 351 472 288 457 c 0,16,17
 230 444 230 444 214 400 c 0,18,19
 208 377 208 377 213 362 c 0,20,21
 219 341 219 341 239 323 c 0,22,23
 267 300 267 300 347 289 c 0,24,25
 403 280 403 280 425 271 c 0,26,27
 483 249 483 249 509 203.5 c 128,-1,28
 535 158 535 158 519 109 c 0,29,30
 506 67 506 67 461 37 c 0,31,32
 431 19 431 19 393 11 c 0,33,34
 368 5 368 5 334 5 c 0,35,36
 278 5 278 5 233 22 c 0,37,38
 163 49 163 49 139 111 c 0,39,40
 130 133 130 133 145 147 c 0,41,42
 153 154 153 154 168 154 c 0,43,44
 177 154 177 154 183 151 c 0,45,46
 194 146 194 146 200 131 c 0,47,48
 206 115 206 115 220 101 c 0,49,50
 254 67 254 67 325 64 c 0,51,52
 373 62 373 62 410.5 80 c 128,-1,53
 448 98 448 98 457 127 c 0,54,55
 462 143 462 143 459 158 c 0,56,57
 449 199 449 199 399 216 c 0,58,59
 380 222 380 222 335 230 c 0,60,61
 282 238 282 238 257 245.5 c 128,-1,62
 232 253 232 253 209 268 c 0,63,64
 182 288 182 288 170 306 c 0,65,66
 160 321 160 321 152 342 c 0,67,68
 140 379 140 379 152.5 417 c 128,-1,69
 165 455 165 455 198 481 c 0,70,71
 241 514 241 514 310 521 c 0,0,1
EndSplineSet
EndChar

StartChar: t
Encoding: 116 116 86
Width: 654
GlyphClass: 2
Flags: W
LayerCount: 2
Fore
SplineSet
258 685 m 0,0,1
 278 693 278 693 294 677 c 0,2,3
 301 670 301 670 302 659.5 c 128,-1,4
 303 649 303 649 303 583 c 2,5,-1
 303 505 l 1,6,-1
 389 505 l 1,7,-1
 476 505 l 1,8,-1
 481 502 l 2,9,10
 499 492 499 492 499 475 c 128,-1,11
 499 458 499 458 481 448 c 2,12,-1
 476 446 l 1,13,-1
 389 445 l 1,14,-1
 303 445 l 1,15,-1
 303 259 l 1,16,-1
 303 73 l 1,17,-1
 390 73 l 1,18,-1
 478 73 l 1,19,-1
 484 70 l 2,20,21
 493 65 493 65 499 56 c 0,22,23
 506 43 506 43 499 31 c 0,24,25
 494 21 494 21 484 16 c 2,26,-1
 478 14 l 1,27,-1
 370 14 l 1,28,-1
 263 14 l 1,29,-1
 257 16 l 2,30,31
 247 21 247 21 241 31 c 2,32,-1
 239 36 l 1,33,-1
 238 240 l 1,34,-1
 238 445 l 1,35,-1
 186 445 l 2,36,37
 135 445 135 445 129 448 c 0,38,39
 117 452 117 452 113 462 c 0,40,41
 111 466 111 466 111 475 c 128,-1,42
 111 484 111 484 113 488 c 0,43,44
 117 498 117 498 129 502 c 0,45,46
 135 505 135 505 186 505 c 2,47,-1
 238 505 l 1,48,-1
 238 583 l 2,49,50
 238 649 238 649 239 659.5 c 128,-1,51
 240 670 240 670 246 677 c 0,52,53
 255 684 255 684 258 685 c 0,0,1
EndSplineSet
EndChar

StartChar: u
Encoding: 117 117 87
Width: 654
GlyphClass: 2
Flags: W
LayerCount: 2
Fore
SplineSet
135 513 m 0,0,1
 146 515 146 515 157 511 c 0,2,3
 166 507 166 507 172 497 c 2,4,-1
 175 492 l 1,5,-1
 175 341 l 2,6,7
 176 184 176 184 180 162 c 0,8,9
 195 87 195 87 264 69 c 0,10,11
 298 61 298 61 332 66 c 0,12,13
 384 78 384 78 425 125 c 0,14,15
 458 164 458 164 477 214 c 1,16,-1
 480 220 l 1,17,-1
 480 356 l 1,18,-1
 481 492 l 1,19,-1
 483 497 l 2,20,21
 492 513 492 513 513 513 c 0,22,23
 533 513 533 513 542 497 c 2,24,-1
 545 492 l 1,25,-1
 545 263 l 2,26,27
 545 33 545 33 544 28 c 0,28,29
 540 17 540 17 527 10 c 0,30,31
 522 8 522 8 513 8 c 0,32,33
 503 8 503 8 498 10 c 0,34,35
 486 16 486 16 482 28 c 0,36,37
 480 32 480 32 480 63 c 2,38,-1
 480 92 l 1,39,-1
 464 76 l 2,40,41
 418 30 418 30 368 14 c 0,42,43
 286 -13 286 -13 211 24 c 0,44,45
 131 62 131 62 114 162 c 0,46,47
 110 185 110 185 110 351 c 2,48,-1
 111 492 l 1,49,-1
 113 497 l 2,50,51
 121 510 121 510 135 513 c 0,0,1
EndSplineSet
EndChar

StartChar: v
Encoding: 118 118 88
Width: 654
GlyphClass: 2
Flags: W
LayerCount: 2
Fore
SplineSet
122 513 m 0,0,1
 133 515 133 515 144.5 510.5 c 128,-1,2
 156 506 156 506 160 498 c 0,3,4
 160 495 160 495 242 269 c 0,5,6
 322 45 322 45 322 37 c 0,7,8
 323 20 323 20 304 10 c 0,9,10
 288 4 288 4 277 10 c 0,11,12
 269 13 269 13 261 23 c 0,13,14
 261 26 261 26 179 252 c 0,15,16
 99 478 99 478 99 484 c 0,17,18
 99 496 99 496 108 505 c 0,19,20
 115 511 115 511 122 513 c 0,0,1
516 513 m 0,21,22
 527 515 527 515 538 511 c 0,23,24
 546 507 546 507 553 497 c 0,25,26
 555 492 555 492 555 484 c 0,27,28
 555 475 555 475 475 251 c 0,29,30
 393 23 393 23 391 21 c 0,31,32
 386 12 386 12 373 8 c 0,33,34
 358 4 358 4 345 13 c 128,-1,35
 332 22 332 22 332 37 c 0,36,37
 332 44 332 44 413 269 c 0,38,39
 493 495 493 495 496 499 c 0,40,41
 502 510 502 510 516 513 c 0,21,22
EndSplineSet
EndChar

StartChar: w
Encoding: 119 119 89
Width: 654
GlyphClass: 2
Flags: W
LayerCount: 2
Fore
SplineSet
122 513 m 0,0,1
 133 516 133 516 145 510.5 c 128,-1,2
 157 505 157 505 161 495 c 0,3,4
 163 490 163 490 178 264 c 0,5,6
 193 37 193 37 191 34 c 0,7,8
 190 19 190 19 174 10 c 0,9,10
 168 8 168 8 159 8 c 0,11,12
 146 8 146 8 136 17 c 0,13,14
 129 23 129 23 127 45.5 c 128,-1,15
 125 68 125 68 113 259 c 0,16,17
 97 485 97 485 99 489 c 0,18,19
 100 495 100 495 108 505 c 0,20,21
 115 511 115 511 122 513 c 0,0,1
516 513 m 0,22,23
 534 517 534 517 546 505 c 0,24,25
 554 499 554 499 556 487 c 0,26,27
 556 483 556 483 528 35 c 0,28,29
 525 18 525 18 510 11 c 0,30,31
 504 8 504 8 495 8 c 0,32,33
 481 8 481 8 472 16 c 0,34,35
 463 27 463 27 463 38 c 0,36,37
 463 46 463 46 477 266 c 128,-1,38
 491 486 491 486 492 490 c 0,39,40
 494 498 494 498 500.5 505 c 128,-1,41
 507 512 507 512 516 513 c 0,22,23
319 308 m 0,42,43
 338 314 338 314 353 297 c 0,44,45
 356 294 356 294 405 168 c 0,46,47
 453 45 453 45 453 38 c 0,48,49
 455 19 455 19 436 11 c 0,50,51
 430 8 430 8 421 8 c 0,52,53
 406 8 406 8 397 17 c 0,54,55
 392 22 392 22 352 126 c 0,56,57
 348 136 348 136 344.5 146 c 128,-1,58
 341 156 341 156 338 163.5 c 128,-1,59
 335 171 335 171 332.5 176.5 c 128,-1,60
 330 182 330 182 328 185 c 2,61,-1
 327 188 l 1,62,63
 312 151 312 151 295 106 c 0,64,65
 262 23 262 23 260 21 c 0,66,67
 254 12 254 12 242 8.5 c 128,-1,68
 230 5 230 5 220 10 c 0,69,70
 206 16 206 16 203 27 c 0,71,72
 200 35 200 35 205 50.5 c 128,-1,73
 210 66 210 66 249 168 c 0,74,75
 260 195 260 195 273 228 c 128,-1,76
 286 261 286 261 292 277 c 2,77,-1
 299 293 l 2,78,79
 304 303 304 303 319 308 c 0,42,43
EndSplineSet
EndChar

StartChar: x
Encoding: 120 120 90
Width: 654
GlyphClass: 2
Flags: W
LayerCount: 2
Fore
SplineSet
166 513 m 0,0,1
 185 517 185 517 198 504 c 0,2,3
 200 501 200 501 264 407 c 2,4,-1
 327 313 l 1,5,-1
 338 329 l 2,6,7
 340 332 340 332 350 346.5 c 128,-1,8
 360 361 360 361 374.5 382.5 c 128,-1,9
 389 404 389 404 402 423 c 0,10,11
 451 497 451 497 459 505 c 0,12,13
 471 516 471 516 487.5 513 c 128,-1,14
 504 510 504 510 511 496 c 0,15,16
 516 484 516 484 511 473 c 0,17,18
 450 381 450 381 440 367 c 2,19,-1
 372 265 l 1,20,-1
 447 157 l 2,21,22
 522 49 522 49 523 45 c 0,23,24
 527 36 527 36 521 24 c 0,25,26
 517 15 517 15 506 10 c 0,27,28
 501 8 501 8 492 8 c 0,29,30
 477 8 477 8 468 17 c 0,31,32
 468 18 468 18 457.5 32 c 128,-1,33
 447 46 447 46 429.5 71 c 128,-1,34
 412 96 412 96 396 120 c 0,35,36
 380 143 380 143 368.5 159 c 128,-1,37
 357 175 357 175 349.5 185.5 c 128,-1,38
 342 196 342 196 337.5 202 c 128,-1,39
 333 208 333 208 330.5 211 c 128,-1,40
 328 214 328 214 327 215 c 128,-1,41
 326 216 326 216 326 215 c 0,42,43
 321 210 321 210 256 115 c 0,44,45
 186 16 186 16 184 15 c 0,46,47
 176 8 176 8 162 8 c 128,-1,48
 148 8 148 8 139 16 c 0,49,50
 124 31 124 31 132 48 c 0,51,52
 136 57 136 57 208 158 c 2,53,-1
 283 265 l 1,54,-1
 213 368 l 2,55,56
 144 470 144 470 142 477 c 0,57,58
 139 489 139 489 146 499.5 c 128,-1,59
 153 510 153 510 166 513 c 0,0,1
EndSplineSet
EndChar

StartChar: y
Encoding: 121 121 91
Width: 654
GlyphClass: 2
Flags: W
LayerCount: 2
Fore
SplineSet
121 513 m 0,0,1
 139 518 139 518 152 503 c 0,2,3
 158 497 158 497 244 348 c 2,4,-1
 332 197 l 1,5,6
 369 265 369 265 414 348 c 0,7,8
 497 501 497 501 499 503 c 0,9,10
 503 507 503 507 509 510 c 0,11,12
 514 513 514 513 523 513 c 0,13,14
 538 513 538 513 546 505 c 0,15,16
 560 493 560 493 555 476 c 0,17,18
 545 455 545 455 453 287 c 0,19,20
 430 244 430 244 372 136 c 128,-1,21
 314 28 314 28 297 -3 c 2,22,-1
 241 -107 l 1,23,-1
 225 -125 l 2,24,25
 209 -142 209 -142 204 -146 c 0,26,27
 198 -148 198 -148 164.5 -154.5 c 128,-1,28
 131 -161 131 -161 125 -161 c 0,29,30
 106 -159 106 -159 98.5 -142.5 c 128,-1,31
 91 -126 91 -126 103 -112 c 0,32,33
 110 -104 110 -104 144 -97 c 2,34,-1
 170 -92 l 1,35,-1
 175 -86 l 1,36,-1
 184 -77 l 2,37,38
 186 -75 186 -75 241 27 c 128,-1,39
 296 129 296 129 296 130 c 0,40,41
 296 132 296 132 197 301 c 0,42,43
 100 468 100 468 97 474 c 0,44,45
 93 483 93 483 98 495 c 0,46,47
 105 508 105 508 121 513 c 0,0,1
EndSplineSet
EndChar

StartChar: z
Encoding: 122 122 92
Width: 654
GlyphClass: 2
Flags: W
LayerCount: 2
Fore
SplineSet
160 500 m 0,0,1
 165 502 165 502 326 502 c 2,2,-1
 487 502 l 1,3,-1
 493 498 l 2,4,5
 517 486 517 486 509 463 c 0,6,7
 507 458 507 458 366 269 c 2,8,-1
 224 79 l 1,9,-1
 367 78 l 1,10,-1
 510 78 l 1,11,-1
 515 75 l 2,12,13
 525 69 525 69 530 61 c 0,14,15
 536 48 536 48 530 35 c 0,16,17
 524 26 524 26 513 20 c 0,18,19
 509 19 509 19 332 19 c 0,20,21
 154 19 154 19 150 20 c 0,22,23
 137 26 137 26 132 37 c 0,24,25
 128 50 128 50 132 58 c 0,26,27
 134 63 134 63 275 252 c 2,28,-1
 416 442 l 1,29,-1
 289 442 l 1,30,-1
 163 443 l 1,31,-1
 157 445 l 2,32,33
 141 452 141 452 138 469 c 0,34,35
 136 492 136 492 160 500 c 0,0,1
EndSplineSet
EndChar

StartChar: braceleft
Encoding: 123 123 93
Width: 654
GlyphClass: 2
Flags: W
LayerCount: 2
Fore
SplineSet
446 750 m 0,0,1
 451 751 451 751 476.5 751 c 128,-1,2
 502 751 502 751 516 750 c 0,3,4
 535 749 535 749 541 747 c 0,5,6
 550 742 550 742 556 733 c 0,7,8
 558 728 558 728 558 720 c 128,-1,9
 558 712 558 712 556 708 c 0,10,11
 551 698 551 698 541 693 c 2,12,-1
 535 691 l 1,13,-1
 497 691 l 2,14,15
 444 691 444 691 421 687 c 0,16,17
 358 675 358 675 341 623 c 0,18,19
 332 598 332 598 331 534 c 0,20,21
 330 486 330 486 325 463 c 0,22,23
 313 412 313 412 275 383 c 2,24,-1
 268 378 l 1,25,-1
 275 372 l 2,26,27
 317 339 317 339 329 270 c 0,28,29
 329 267 329 267 331 217 c 0,30,31
 332 162 332 162 337 143 c 0,32,33
 352 85 352 85 406 71 c 0,34,35
 428 65 428 65 467 66 c 0,36,37
 534 67 534 67 541 64 c 0,38,39
 550 59 550 59 556 50 c 0,40,41
 563 37 563 37 556 25 c 0,42,43
 551 15 551 15 541 10 c 0,44,45
 535 8 535 8 503 6 c 0,46,47
 444 4 444 4 412.5 8 c 128,-1,48
 381 12 381 12 354 26 c 0,49,50
 289 60 289 60 273 134 c 0,51,52
 267 158 267 158 266 212 c 0,53,54
 264 262 264 262 264 265 c 0,55,56
 254 328 254 328 202 341 c 0,57,58
 184 347 184 347 146 348 c 0,59,60
 120 349 120 349 114 351 c 0,61,62
 96 360 96 360 96 379 c 0,63,64
 96 391 96 391 106 400 c 0,65,66
 115 408 115 408 147 409 c 0,67,68
 198 410 198 410 221 422 c 0,69,70
 256 439 256 439 264 488 c 0,71,72
 264 490 264 490 266 539 c 0,73,74
 266 548 266 548 266.5 560 c 128,-1,75
 267 572 267 572 267.5 579.5 c 128,-1,76
 268 587 268 587 268 590 c 0,77,78
 273 633 273 633 287 662 c 0,79,80
 311 706 311 706 356 728 c 0,81,82
 392 746 392 746 446 750 c 0,0,1
EndSplineSet
EndChar

StartChar: bar
Encoding: 124 124 94
Width: 654
GlyphClass: 2
Flags: W
LayerCount: 2
Fore
SplineSet
319 749 m 0,0,1
 329 752 329 752 342 747 c 0,2,3
 351 742 351 742 357 733 c 2,4,-1
 360 728 l 1,5,-1
 360 305 l 1,6,-1
 360 -118 l 1,7,-1
 357 -123 l 2,8,9
 352 -133 352 -133 342 -138 c 0,10,11
 336 -140 336 -140 328 -140 c 0,12,13
 319 -140 319 -140 314 -138 c 0,14,15
 304 -133 304 -133 298 -123 c 2,16,-1
 296 -118 l 1,17,-1
 296 305 l 1,18,-1
 296 728 l 1,19,-1
 298 732 l 2,20,21
 304 743 304 743 319 749 c 0,0,1
EndSplineSet
EndChar

StartChar: braceright
Encoding: 125 125 95
Width: 654
GlyphClass: 2
Flags: W
LayerCount: 2
Fore
SplineSet
136 750 m 0,0,1
 190 752 190 752 229 749 c 0,2,3
 269 743 269 743 300 728 c 0,4,5
 367 695 367 695 382 617 c 0,6,7
 387 591 387 591 388 545 c 0,8,9
 389 484 389 484 397 462 c 0,10,11
 409 430 409 430 442 418 c 0,12,13
 462 411 462 411 515 408 c 0,14,15
 535 408 535 408 540 405 c 0,16,17
 559 396 559 396 559 378 c 0,18,19
 559 361 559 361 540 351 c 0,20,21
 534 349 534 349 508 348 c 0,22,23
 469 347 469 347 452 341 c 0,24,25
 400 328 400 328 390 265 c 0,26,27
 390 262 390 262 388 212 c 0,28,29
 387 158 387 158 381 134 c 0,30,31
 364 53 364 53 291 22 c 0,32,33
 247 2 247 2 151 6 c 0,34,35
 119 8 119 8 115 10 c 0,36,37
 103 15 103 15 98 26.5 c 128,-1,38
 93 38 93 38 98 49 c 128,-1,39
 103 60 103 60 116 65 c 0,40,41
 121 67 121 67 188 66 c 0,42,43
 225 66 225 66 233 67 c 0,44,45
 285 77 285 77 305 114 c 0,46,47
 316 131 316 131 319 150.5 c 128,-1,48
 322 170 322 170 323 217 c 0,49,50
 325 267 325 267 325 270 c 0,51,52
 337 339 337 339 379 372 c 2,53,-1
 386 378 l 1,54,-1
 378 383 l 1,55,56
 340 414 340 414 329 467 c 0,57,58
 324 490 324 490 323 540 c 0,59,60
 322 588 322 588 318 606 c 0,61,62
 309 655 309 655 269 675 c 0,63,64
 237 691 237 691 157 691 c 0,65,66
 119 691 119 691 115 693 c 0,67,68
 99 700 99 700 96.5 715 c 128,-1,69
 94 730 94 730 105 741 c 0,70,71
 114 749 114 749 136 750 c 0,0,1
EndSplineSet
EndChar

StartChar: asciitilde
Encoding: 126 126 96
Width: 654
GlyphClass: 2
Flags: W
LayerCount: 2
Fore
SplineSet
213 697 m 0,0,1
 236 701 236 701 259 697 c 0,2,3
 274 693 274 693 296 683 c 0,4,5
 312 676 312 676 346 651 c 0,6,7
 387 620 387 620 407 615 c 0,8,9
 431 609 431 609 452 622 c 128,-1,10
 473 635 473 635 480 660 c 0,11,12
 486 686 486 686 511 687 c 0,13,14
 526 687 526 687 535 678 c 0,15,16
 547 667 547 667 543 648 c 0,17,18
 535 613 535 613 509 588 c 128,-1,19
 483 563 483 563 446 555 c 0,20,21
 421 551 421 551 396 555 c 0,22,23
 367 561 367 561 337 581 c 0,24,25
 336 582 336 582 324.5 590 c 128,-1,26
 313 598 313 598 307 603 c 0,27,28
 267 632 267 632 248 637 c 0,29,30
 225 643 225 643 204.5 631 c 128,-1,31
 184 619 184 619 176 596 c 0,32,33
 171 579 171 579 165 573 c 0,34,35
 156 565 156 565 141 565 c 0,36,37
 130 567 130 567 126 569 c 0,38,39
 117 574 117 574 112 584 c 0,40,41
 110 589 110 589 110 597 c 0,42,43
 112 613 112 613 120 629 c 0,44,45
 133 655 133 655 158 674 c 128,-1,46
 183 693 183 693 213 697 c 0,0,1
EndSplineSet
EndChar

StartChar: dieresis
Encoding: 168 168 97
Width: 654
GlyphClass: 2
Flags: W
LayerCount: 2
Fore
SplineSet
228 875 m 0,0,1
 233 878 233 878 242 878 c 0,2,3
 256 878 256 878 266 867 c 0,4,5
 272 861 272 861 273 854.5 c 128,-1,6
 274 848 274 848 274 820 c 128,-1,7
 274 792 274 792 273 785.5 c 128,-1,8
 272 779 272 779 266 773 c 0,9,10
 256 762 256 762 242 762 c 0,11,12
 227 762 227 762 217 773 c 0,13,14
 211 779 211 779 210 785.5 c 128,-1,15
 209 792 209 792 209 820 c 0,16,17
 209 853 209 853 211 857 c 0,18,19
 214 868 214 868 228 875 c 0,0,1
399 875 m 0,20,21
 404 878 404 878 413 878 c 0,22,23
 427 878 427 878 437 867 c 0,24,25
 443 861 443 861 444 854.5 c 128,-1,26
 445 848 445 848 445 820 c 128,-1,27
 445 792 445 792 444 785.5 c 128,-1,28
 443 779 443 779 437 773 c 0,29,30
 427 762 427 762 413 762 c 0,31,32
 398 762 398 762 388 773 c 0,33,34
 382 779 382 779 381 785.5 c 128,-1,35
 380 792 380 792 380 820 c 0,36,37
 380 853 380 853 382 857 c 0,38,39
 385 868 385 868 399 875 c 0,20,21
EndSplineSet
EndChar

StartChar: guillemotleft
Encoding: 171 171 98
Width: 654
GlyphClass: 2
Flags: W
LayerCount: 2
Fore
SplineSet
375 664 m 0,0,1
 385 666 385 666 396 660.5 c 128,-1,2
 407 655 407 655 412 645 c 0,3,4
 416 634 416 634 411 623 c 0,5,6
 408 617 408 617 380.5 574 c 128,-1,7
 353 531 353 531 351 529 c 0,8,9
 341 519 341 519 327.5 519 c 128,-1,10
 314 519 314 519 304 529 c 0,11,12
 296 535 296 535 295 548 c 0,13,14
 295 556 295 556 297 560 c 0,15,16
 304 575 304 575 356 654 c 0,17,18
 364 662 364 662 375 664 c 0,0,1
EndSplineSet
EndChar

StartChar: sfthyphen
Encoding: 173 173 99
Width: 654
GlyphClass: 2
Flags: W
LayerCount: 2
Fore
SplineSet
228 405 m 0,0,1
 233 408 233 408 242 408 c 0,2,3
 256 408 256 408 266 397 c 0,4,5
 272 391 272 391 273 384.5 c 128,-1,6
 274 378 274 378 274 350 c 128,-1,7
 274 322 274 322 273 315.5 c 128,-1,8
 272 309 272 309 266 303 c 0,9,10
 256 292 256 292 242 292 c 0,11,12
 227 292 227 292 217 303 c 0,13,14
 211 309 211 309 210 315.5 c 128,-1,15
 209 322 209 322 209 350 c 0,16,17
 209 383 209 383 211 387 c 0,18,19
 214 398 214 398 228 405 c 0,0,1
399 405 m 0,20,21
 404 408 404 408 413 408 c 0,22,23
 427 408 427 408 437 397 c 0,24,25
 443 391 443 391 444 384.5 c 128,-1,26
 445 378 445 378 445 350 c 128,-1,27
 445 322 445 322 444 315.5 c 128,-1,28
 443 309 443 309 437 303 c 0,29,30
 427 292 427 292 413 292 c 0,31,32
 398 292 398 292 388 303 c 0,33,34
 382 309 382 309 381 315.5 c 128,-1,35
 380 322 380 322 380 350 c 0,36,37
 380 383 380 383 382 387 c 0,38,39
 385 398 385 398 399 405 c 0,20,21
EndSplineSet
EndChar

StartChar: macron
Encoding: 175 175 100
Width: 654
GlyphClass: 2
Flags: W
LayerCount: 2
Fore
SplineSet
315 611 m 0,0,1
 335 619 335 619 351 603 c 0,2,3
 352 602 352 602 353 601 c 0,4,5
 358 597 358 597 359 572.5 c 128,-1,6
 360 548 360 548 360 403 c 0,7,8
 360 358 360 358 360 331 c 2,9,-1
 360 75 l 1,10,-1
 363 77 l 2,11,12
 376 86 376 86 387 104 c 0,13,14
 416 145 416 145 426 237 c 0,15,16
 441 360 441 360 450 548 c 0,17,18
 450 552 450 552 450.5 558 c 128,-1,19
 451 564 451 564 451.5 567.5 c 128,-1,20
 452 571 452 571 452 572 c 0,21,22
 453 587 453 587 468 595 c 0,23,24
 474 598 474 598 484 598 c 0,25,26
 498 598 498 598 507 590 c 0,27,28
 514 583 514 583 515 575.5 c 128,-1,29
 516 568 516 568 515 543 c 0,30,31
 503 297 503 297 488 204 c 0,32,33
 469 80 469 80 404 30 c 0,34,35
 377 13 377 13 365 10 c 2,36,-1
 360 9 l 1,37,-1
 360 -28 l 1,38,-1
 360 -64 l 1,39,-1
 357 -69 l 2,40,41
 352 -79 352 -79 342 -84 c 0,42,43
 327 -91 327 -91 314 -84 c 0,44,45
 304 -79 304 -79 298 -69 c 2,46,-1
 296 -64 l 1,47,-1
 295 -28 l 1,48,-1
 295 8 l 1,49,-1
 287 11 l 1,50,51
 205 37 205 37 175 159 c 0,52,53
 165 201 165 201 153 343 c 0,54,55
 135 561 135 561 139 575 c 128,-1,56
 143 589 143 589 155 595 c 0,57,58
 161 598 161 598 171 598 c 0,59,60
 185 598 185 598 194 590 c 0,61,62
 203 580 203 580 205 546 c 0,63,64
 215 327 215 327 230 223 c 0,65,66
 240 144 240 144 267 103 c 0,67,68
 279 86 279 86 292 76 c 2,69,-1
 295 74 l 1,70,-1
 295 330 l 2,71,72
 295 550 295 550 295.5 573 c 128,-1,73
 296 596 296 596 303 603 c 0,74,75
 312 610 312 610 315 611 c 0,0,1
EndSplineSet
EndChar

StartChar: acute
Encoding: 180 180 101
Width: 654
GlyphClass: 2
Flags: W
LayerCount: 2
Fore
SplineSet
287 590 m 1,0,1
 198 496 198 496 192 494 c 0,2,3
 177 489 177 489 167 492 c 0,4,5
 154 497 154 497 148 509 c 0,6,7
 143 521 143 521 147 530 c 0,8,9
 149 535 149 535 250.5 686 c 128,-1,10
 352 837 352 837 355 840 c 0,11,12
 359 844 359 844 365 847 c 0,13,14
 372 850 372 850 379 849 c 0,15,16
 393 847 393 847 399 841 c 0,17,18
 413 822 413 822 424 802 c 0,19,20
 435 781 435 781 443 770 c 0,21,22
 458 751 458 751 434 728 c 2,23,-1
 287 590 l 1,0,1
EndSplineSet
EndChar

StartChar: cedilla
Encoding: 184 184 102
Width: 654
GlyphClass: 2
Flags: W
LayerCount: 2
Fore
SplineSet
320 678 m 0,0,1
 331 680 331 680 341 676 c 0,2,3
 346 674 346 674 422 598 c 128,-1,4
 498 522 498 522 499 518 c 0,5,6
 503 510 503 510 501 499 c 0,7,8
 495 484 495 484 482 479 c 128,-1,9
 469 474 469 474 457 479 c 0,10,11
 451 481 451 481 405 526 c 2,12,-1
 360 571 l 1,13,-1
 360 304 l 2,14,15
 360 36 360 36 358 31 c 0,16,17
 354 19 354 19 342 13 c 0,18,19
 337 11 337 11 328 11 c 0,20,21
 318 11 318 11 313 13 c 0,22,23
 301 19 301 19 297 31 c 0,24,25
 295 36 295 36 295 304 c 2,26,-1
 295 572 l 1,27,-1
 249 527 l 2,28,29
 203 481 203 481 198 479 c 0,30,31
 181 473 181 473 167 482 c 128,-1,32
 153 491 153 491 153 507 c 0,33,34
 153 515 153 515 162 525.5 c 128,-1,35
 171 536 171 536 232 597 c 0,36,37
 289 655 289 655 301 666 c 128,-1,38
 313 677 313 677 320 678 c 0,0,1
EndSplineSet
EndChar

StartChar: guillemotright
Encoding: 187 187 103
Width: 654
GlyphClass: 2
Flags: W
LayerCount: 2
Fore
SplineSet
120 914 m 0,0,1
 130 916 130 916 142 912 c 0,2,3
 144 911 144 911 155 902 c 0,4,5
 157 900 157 900 168.5 887 c 128,-1,6
 180 874 180 874 204 848 c 128,-1,7
 228 822 228 822 245 804 c 2,8,-1
 327 713 l 1,9,10
 368 757 368 757 416 811 c 0,11,12
 505 908 505 908 512 911 c 0,13,14
 518 914 518 914 527 914 c 128,-1,15
 536 914 536 914 540 912 c 0,16,17
 551 906 551 906 556 898 c 0,18,19
 562 884 562 884 556 873 c 0,20,21
 556 872 556 872 542.5 852 c 128,-1,22
 529 832 529 832 503 792.5 c 128,-1,23
 477 753 477 753 453 717 c 0,24,25
 351 565 351 565 349 564 c 0,26,27
 339 557 339 557 328 557 c 0,28,29
 319 557 319 557 314 559 c 0,30,31
 312 560 312 560 308.5 562.5 c 128,-1,32
 305 565 305 565 304 565 c 0,33,34
 300 569 300 569 199 720.5 c 128,-1,35
 98 872 98 872 97 875 c 0,36,37
 94 885 94 885 98 896 c 0,38,39
 105 911 105 911 120 914 c 0,0,1
EndSplineSet
EndChar

StartChar: Abreve
Encoding: 258 258 119
Width: 654
GlyphClass: 2
Flags: W
LayerCount: 2
Fore
SplineSet
233 692 m 0,0,1
 243 695 243 695 256 690 c 0,2,3
 265 685 265 685 271 676 c 2,4,-1
 274 671 l 1,5,-1
 274 635 l 1,6,-1
 274 599 l 1,7,-1
 271 594 l 2,8,9
 266 584 266 584 256 579 c 0,10,11
 250 577 250 577 242 577 c 0,12,13
 233 577 233 577 228 579 c 0,14,15
 218 584 218 584 212 594 c 2,16,-1
 210 599 l 1,17,-1
 210 635 l 2,18,19
 210 671 210 671 212 675 c 0,20,21
 218 686 218 686 233 692 c 0,0,1
404 692 m 0,22,23
 414 695 414 695 427 690 c 0,24,25
 436 685 436 685 442 676 c 2,26,-1
 445 671 l 1,27,-1
 445 635 l 1,28,-1
 445 599 l 1,29,-1
 442 594 l 2,30,31
 437 584 437 584 427 579 c 0,32,33
 421 577 421 577 413 577 c 0,34,35
 404 577 404 577 399 579 c 0,36,37
 389 584 389 584 383 594 c 2,38,-1
 381 599 l 1,39,-1
 381 635 l 2,40,41
 381 671 381 671 383 675 c 0,42,43
 389 686 389 686 404 692 c 0,22,23
308 521 m 0,44,45
 310 523 310 523 334 521 c 0,46,47
 381 521 381 521 414 508 c 0,48,49
 496 478 496 478 516 382 c 0,50,51
 521 360 521 360 521.5 337.5 c 128,-1,52
 522 315 522 315 522 189 c 0,53,54
 522 33 522 33 520 28 c 0,55,56
 518 17 518 17 504 10 c 0,57,58
 499 8 499 8 490 8 c 0,59,60
 480 8 480 8 475 10 c 0,61,62
 463 16 463 16 459 28 c 0,63,64
 457 32 457 32 457 60 c 2,65,-1
 457 87 l 1,66,-1
 444 75 l 2,67,68
 413 45 413 45 378 27 c 0,69,70
 283 -20 283 -20 196 25 c 0,71,72
 124 61 124 61 111 135 c 0,73,74
 104 185 104 185 129 226 c 0,75,76
 168 291 168 291 264 308 c 0,77,78
 322 317 322 317 434 317 c 2,79,-1
 458 317 l 1,80,-1
 458 329 l 1,81,82
 454 388 454 388 434.5 418 c 128,-1,83
 415 448 415 448 373 457 c 128,-1,84
 331 466 331 466 288 458 c 0,85,86
 249 450 249 450 208 420 c 0,87,88
 191 409 191 409 173 417 c 128,-1,89
 155 425 155 425 156 444 c 0,90,91
 156 461 156 461 183 479 c 0,92,93
 236 514 236 514 295 520 c 0,94,95
 300 521 300 521 308 521 c 0,44,45
457 225 m 1,96,-1
 457 257 l 1,97,-1
 429 257 l 2,98,99
 309 255 309 255 268 247 c 0,100,101
 196 233 196 233 180 183 c 0,102,103
 171 158 171 158 178 133 c 0,104,105
 189 96 189 96 227 77 c 128,-1,106
 265 58 265 58 310 67 c 0,107,108
 347 74 347 74 382 102 c 0,109,110
 421 134 421 134 452 185 c 2,111,-1
 457 193 l 1,112,-1
 457 225 l 1,96,-1
EndSplineSet
EndChar

StartChar: Aogonek
Encoding: 260 260 120
Width: 654
GlyphClass: 2
Flags: W
LayerCount: 2
Fore
SplineSet
233 692 m 0,0,1
 243 695 243 695 256 690 c 0,2,3
 265 685 265 685 271 676 c 2,4,-1
 274 671 l 1,5,-1
 274 635 l 1,6,-1
 274 599 l 1,7,-1
 271 594 l 2,8,9
 266 584 266 584 256 579 c 0,10,11
 250 577 250 577 242 577 c 0,12,13
 233 577 233 577 228 579 c 0,14,15
 218 584 218 584 212 594 c 2,16,-1
 210 599 l 1,17,-1
 210 635 l 2,18,19
 210 671 210 671 212 675 c 0,20,21
 218 686 218 686 233 692 c 0,0,1
404 692 m 0,22,23
 414 695 414 695 427 690 c 0,24,25
 436 685 436 685 442 676 c 2,26,-1
 445 671 l 1,27,-1
 445 635 l 1,28,-1
 445 599 l 1,29,-1
 442 594 l 2,30,31
 437 584 437 584 427 579 c 0,32,33
 421 577 421 577 413 577 c 0,34,35
 404 577 404 577 399 579 c 0,36,37
 389 584 389 584 383 594 c 2,38,-1
 381 599 l 1,39,-1
 381 635 l 2,40,41
 381 671 381 671 383 675 c 0,42,43
 389 686 389 686 404 692 c 0,22,23
309 521 m 0,44,45
 314 522 314 522 334.5 521.5 c 128,-1,46
 355 521 355 521 363 520 c 0,47,48
 456 505 456 505 509 435 c 0,49,50
 562 364 562 364 559 252 c 0,51,52
 558 221 558 221 552 191 c 0,53,54
 535 114 535 114 485 65 c 0,55,56
 438 18 438 18 364 6 c 0,57,58
 354 5 354 5 328 5 c 0,59,60
 293 5 293 5 267 11 c 0,61,62
 170 36 170 36 125 126 c 0,63,64
 99 180 99 180 96 252 c 0,65,66
 93 364 93 364 146 435 c 0,67,68
 162 456 162 456 183 473 c 0,69,70
 232 512 232 512 296 520 c 0,71,72
 301 521 301 521 309 521 c 0,44,45
346 461 m 0,73,74
 284 467 284 467 236 435 c 0,75,76
 186 402 186 402 170 335 c 0,77,78
 156 284 156 284 164 222 c 0,79,80
 176 116 176 116 255 80 c 0,81,82
 269 73 269 73 293 67 c 0,83,84
 304 65 304 65 328 65 c 0,85,86
 351 65 351 65 362 67 c 0,87,88
 386 73 386 73 400 80 c 0,89,90
 479 116 479 116 491 222 c 0,91,92
 499 284 499 284 485 335 c 0,93,94
 472 390 472 390 435.5 423 c 128,-1,95
 399 456 399 456 346 461 c 0,73,74
EndSplineSet
EndChar

StartChar: Cacute
Encoding: 262 262 121
Width: 654
GlyphClass: 2
Flags: W
LayerCount: 2
Fore
SplineSet
233 692 m 0,0,1
 243 695 243 695 256 690 c 0,2,3
 265 685 265 685 271 676 c 2,4,-1
 274 671 l 1,5,-1
 274 635 l 1,6,-1
 274 599 l 1,7,-1
 271 594 l 2,8,9
 266 584 266 584 256 579 c 0,10,11
 250 577 250 577 242 577 c 0,12,13
 233 577 233 577 228 579 c 0,14,15
 218 584 218 584 212 594 c 2,16,-1
 210 599 l 1,17,-1
 210 635 l 2,18,19
 210 671 210 671 212 675 c 0,20,21
 218 686 218 686 233 692 c 0,0,1
404 692 m 0,22,23
 414 695 414 695 427 690 c 0,24,25
 436 685 436 685 442 676 c 2,26,-1
 445 671 l 1,27,-1
 445 635 l 1,28,-1
 445 599 l 1,29,-1
 442 594 l 2,30,31
 437 584 437 584 427 579 c 0,32,33
 421 577 421 577 413 577 c 0,34,35
 404 577 404 577 399 579 c 0,36,37
 389 584 389 584 383 594 c 2,38,-1
 381 599 l 1,39,-1
 381 635 l 2,40,41
 381 671 381 671 383 675 c 0,42,43
 389 686 389 686 404 692 c 0,22,23
135 513 m 0,44,45
 146 515 146 515 157 511 c 0,46,47
 166 507 166 507 172 497 c 2,48,-1
 175 492 l 1,49,-1
 175 341 l 2,50,51
 176 184 176 184 180 162 c 0,52,53
 195 87 195 87 264 69 c 0,54,55
 298 61 298 61 332 66 c 0,56,57
 384 78 384 78 425 125 c 0,58,59
 458 164 458 164 477 214 c 1,60,-1
 480 220 l 1,61,-1
 480 356 l 1,62,-1
 481 492 l 1,63,-1
 483 497 l 2,64,65
 492 513 492 513 513 513 c 0,66,67
 533 513 533 513 542 497 c 2,68,-1
 545 492 l 1,69,-1
 545 263 l 2,70,71
 545 33 545 33 544 28 c 0,72,73
 540 17 540 17 527 10 c 0,74,75
 522 8 522 8 513 8 c 0,76,77
 503 8 503 8 498 10 c 0,78,79
 486 16 486 16 482 28 c 0,80,81
 480 32 480 32 480 63 c 2,82,-1
 480 92 l 1,83,-1
 464 76 l 2,84,85
 418 30 418 30 368 14 c 0,86,87
 286 -13 286 -13 211 24 c 0,88,89
 131 62 131 62 114 162 c 0,90,91
 110 185 110 185 110 351 c 2,92,-1
 111 492 l 1,93,-1
 113 497 l 2,94,95
 121 510 121 510 135 513 c 0,44,45
EndSplineSet
EndChar

StartChar: Ccaron
Encoding: 268 268 122
Width: 654
GlyphClass: 2
Flags: W
LayerCount: 2
Fore
SplineSet
120 749 m 0,0,1
 130 752 130 752 143 747 c 0,2,3
 152 742 152 742 158 733 c 2,4,-1
 161 728 l 1,5,-1
 161 694 l 2,6,7
 161 659 161 659 160 655 c 0,8,9
 156 643 156 643 143 636 c 0,10,11
 138 634 138 634 129 634 c 0,12,13
 119 634 119 634 114 636 c 0,14,15
 100 643 100 643 97 655 c 0,16,17
 96 659 96 659 96 694 c 0,18,19
 96 726 96 726 99 732 c 0,20,21
 105 743 105 743 120 749 c 0,0,1
518 749 m 0,22,23
 528 752 528 752 541 747 c 0,24,25
 550 742 550 742 556 733 c 2,26,-1
 559 728 l 1,27,-1
 559 694 l 2,28,29
 559 659 559 659 558 655 c 0,30,31
 554 643 554 643 541 636 c 0,32,33
 536 634 536 634 527 634 c 0,34,35
 517 634 517 634 512 636 c 0,36,37
 498 643 498 643 495 655 c 0,38,39
 494 659 494 659 494 694 c 0,40,41
 494 726 494 726 497 732 c 0,42,43
 503 743 503 743 518 749 c 0,22,23
306 688 m 0,44,45
 309 690 309 690 329 690 c 0,46,47
 346 690 346 690 352 687 c 0,48,49
 361 684 361 684 367 675 c 0,50,51
 369 672 369 672 462 359.5 c 128,-1,52
 555 47 555 47 556 42 c 0,53,54
 558 22 558 22 538 13 c 0,55,56
 521 7 521 7 510 13 c 0,57,58
 501 16 501 16 495 25 c 0,59,60
 490 34 490 34 474 95 c 0,61,62
 454 161 454 161 453 161 c 1,63,64
 453 162 453 162 329 166.5 c 128,-1,65
 205 171 205 171 204 170 c 0,66,67
 194 138 194 138 183 100 c 0,68,69
 161 29 161 29 159 26 c 0,70,71
 155 17 155 17 142 12 c 0,72,73
 130 8 130 8 118 13 c 128,-1,74
 106 18 106 18 101 29 c 0,75,76
 98 35 98 35 100.5 47.5 c 128,-1,77
 103 60 103 60 121 121 c 0,78,79
 144 199 144 199 144 202 c 0,80,81
 144 211 144 211 149 218 c 0,82,83
 153 225 153 225 218 447 c 0,84,85
 287 674 287 674 289 676 c 0,86,87
 294 685 294 685 306 688 c 0,44,45
382 400 m 2,88,-1
 327 584 l 1,89,90
 303 504 303 504 274 407 c 2,91,-1
 221 231 l 1,92,-1
 228 230 l 2,93,94
 244 230 244 230 297 228 c 128,-1,95
 350 226 350 226 392 224 c 2,96,-1
 435 223 l 1,97,98
 411 302 411 302 382 400 c 2,88,-1
EndSplineSet
EndChar

StartChar: Dcaron
Encoding: 270 270 123
Width: 654
GlyphClass: 2
Flags: W
LayerCount: 2
Fore
SplineSet
120 749 m 0,0,1
 130 752 130 752 143 747 c 0,2,3
 152 742 152 742 158 733 c 2,4,-1
 161 728 l 1,5,-1
 161 694 l 2,6,7
 161 659 161 659 160 655 c 0,8,9
 156 643 156 643 143 636 c 0,10,11
 138 634 138 634 129 634 c 0,12,13
 119 634 119 634 114 636 c 0,14,15
 100 643 100 643 97 655 c 0,16,17
 96 659 96 659 96 694 c 0,18,19
 96 726 96 726 99 732 c 0,20,21
 105 743 105 743 120 749 c 0,0,1
518 749 m 0,22,23
 528 752 528 752 541 747 c 0,24,25
 550 742 550 742 556 733 c 2,26,-1
 559 728 l 1,27,-1
 559 694 l 2,28,29
 559 659 559 659 558 655 c 0,30,31
 554 643 554 643 541 636 c 0,32,33
 536 634 536 634 527 634 c 0,34,35
 517 634 517 634 512 636 c 0,36,37
 498 643 498 643 495 655 c 0,38,39
 494 659 494 659 494 694 c 0,40,41
 494 726 494 726 497 732 c 0,42,43
 503 743 503 743 518 749 c 0,22,23
306 595 m 0,44,45
 327 597 327 597 347 595 c 0,46,47
 419 587 419 587 471 532 c 0,48,49
 495 508 495 508 514 470 c 0,50,51
 545 407 545 407 549 331 c 0,52,53
 550 318 550 318 549.5 292.5 c 128,-1,54
 549 267 549 267 548 256 c 0,55,56
 529 86 529 86 417 29 c 0,57,58
 362 2 362 2 307 8 c 0,59,60
 234 19 234 19 183 70 c 0,61,62
 126 130 126 130 110 230 c 0,63,64
 95 310 95 310 113 392 c 0,65,66
 128 461 128 461 165 512 c 0,67,68
 180 532 180 532 202 550 c 0,69,70
 250 589 250 589 306 595 c 0,44,45
342 535 m 0,71,72
 280 543 280 543 234 495 c 0,73,74
 186 446 186 446 174 361 c 0,75,76
 153 222 153 222 213 134 c 0,77,78
 251 76 251 76 315 68 c 0,79,80
 358 63 358 63 398 89 c 0,81,82
 463 132 463 132 480 238 c 0,83,84
 498 352 498 352 458 439 c 0,85,86
 439 480 439 480 409 505.5 c 128,-1,87
 379 531 379 531 342 535 c 0,71,72
EndSplineSet
EndChar

StartChar: Eogonek
Encoding: 280 280 124
Width: 654
GlyphClass: 2
Flags: W
LayerCount: 2
Fore
SplineSet
312 749 m 0,0,1
 316 751 316 751 342 749 c 0,2,3
 380 749 380 749 402 743 c 0,4,5
 433 736 433 736 462 717 c 0,6,7
 485 702 485 702 502 678 c 0,8,9
 522 646 522 646 522 632 c 0,10,11
 522 611 522 611 502 604 c 0,12,13
 486 599 486 599 474 605 c 0,14,15
 462 613 462 613 458 623 c 0,16,17
 441 667 441 667 396 682 c 0,18,19
 371 690 371 690 332.5 689.5 c 128,-1,20
 294 689 294 689 267 681 c 0,21,22
 257 677 257 677 247 672 c 0,23,24
 207 653 207 653 198 616 c 0,25,26
 192 590 192 590 198 568 c 0,27,28
 209 529 209 529 256 517 c 0,29,30
 275 511 275 511 334 506 c 0,31,32
 402 500 402 500 427.5 494.5 c 128,-1,33
 453 489 453 489 479 476 c 0,34,35
 537 446 537 446 546 387 c 0,36,37
 557 326 557 326 508 276 c 2,38,-1
 500 267 l 1,39,-1
 510 257 l 2,40,41
 538 229 538 229 546 190 c 0,42,43
 547 183 547 183 547 164 c 0,44,45
 547 144 547 144 545 134 c 0,46,47
 537 101 537 101 519 79 c 0,48,49
 464 4 464 4 321 7 c 0,50,51
 250 8 250 8 205 31 c 0,52,53
 153 55 153 55 125 104 c 0,54,55
 105 140 105 140 121 156 c 0,56,57
 136 173 136 173 159 164 c 0,58,59
 171 158 171 158 176 145 c 0,60,61
 204 85 204 85 272 72 c 0,62,63
 292 68 292 68 321 67 c 0,64,65
 454 64 454 64 478 137 c 0,66,67
 489 167 489 167 476 197 c 0,68,69
 463 223 463 223 432 236 c 0,70,71
 407 246 407 246 318 252 c 0,72,73
 257 257 257 257 227 263 c 0,74,75
 128 284 128 284 107 361 c 0,76,77
 105 369 105 369 105 387 c 128,-1,78
 105 405 105 405 107 413 c 0,79,80
 117 450 117 450 152 487 c 0,81,82
 164 501 164 501 163 502 c 0,83,84
 144 519 144 519 136 550 c 0,85,86
 120 605 120 605 144 656 c 0,87,88
 161 693 161 693 202.5 718 c 128,-1,89
 244 743 244 743 298 748 c 0,90,91
 304 749 304 749 312 749 c 0,0,1
230 461 m 2,92,-1
 221 464 l 2,93,94
 217 464 217 464 199 446 c 0,95,96
 169 414 169 414 169 387 c 0,97,98
 169 348 169 348 214 330 c 0,99,100
 240 318 240 318 329 312 c 0,101,102
 404 306 404 306 430 300 c 2,103,-1
 438 298 l 1,104,-1
 444 302 l 2,105,106
 461 313 461 313 470 329 c 0,107,108
 496 368 496 368 472 402 c 0,109,110
 453 433 453 433 386 440 c 0,111,112
 370 443 370 443 330 446 c 0,113,114
 258 452 258 452 230 461 c 2,92,-1
EndSplineSet
EndChar

StartChar: Ecaron
Encoding: 282 282 125
Width: 654
GlyphClass: 2
Flags: W
LayerCount: 2
Fore
SplineSet
119 749 m 0,0,1
 121 750 121 750 155 750 c 2,2,-1
 188 750 l 1,3,-1
 193 747 l 2,4,5
 212 738 212 738 212 720 c 128,-1,6
 212 702 212 702 193 693 c 2,7,-1
 188 691 l 1,8,-1
 154 691 l 2,9,10
 125 691 125 691 118.5 692 c 128,-1,11
 112 693 112 693 106 699 c 0,12,13
 96 708 96 708 96 720 c 128,-1,14
 96 732 96 732 104 740 c 0,15,16
 113 747 113 747 119 749 c 0,0,1
466 749 m 0,17,18
 468 750 468 750 502 750 c 2,19,-1
 535 750 l 1,20,-1
 541 747 l 2,21,22
 550 742 550 742 556 733 c 0,23,24
 558 728 558 728 558 720 c 128,-1,25
 558 712 558 712 556 708 c 0,26,27
 551 698 551 698 541 693 c 2,28,-1
 535 691 l 1,29,-1
 501 691 l 2,30,31
 472 691 472 691 465.5 692 c 128,-1,32
 459 693 459 693 453 699 c 0,33,34
 443 708 443 708 443 720 c 128,-1,35
 443 732 443 732 451 740 c 0,36,37
 460 747 460 747 466 749 c 0,17,18
120 564 m 0,38,39
 130 567 130 567 143 562 c 0,40,41
 152 557 152 557 158 548 c 2,42,-1
 161 543 l 1,43,-1
 161 390 l 2,44,45
 162 233 162 233 163 221 c 0,46,47
 174 126 174 126 222 95 c 0,48,49
 284 54 284 54 374 72 c 0,50,51
 422 81 422 81 450 109 c 0,52,53
 483 142 483 142 492 221 c 0,54,55
 493 233 493 233 494 390 c 2,56,-1
 495 543 l 1,57,-1
 497 548 l 2,58,59
 503 557 503 557 513 562 c 0,60,61
 518 564 518 564 527 564 c 0,62,63
 535 564 535 564 541 562 c 0,64,65
 550 557 550 557 556 548 c 2,66,-1
 559 543 l 1,67,-1
 559 389 l 2,68,69
 559 249 559 249 557 217 c 0,70,71
 547 120 547 120 501 71 c 0,72,73
 453 21 453 21 367 9 c 0,74,75
 328 5 328 5 288 9 c 0,76,77
 202 21 202 21 154 71 c 0,78,79
 116 110 116 110 103 186 c 0,80,81
 97 216 97 216 97 333 c 0,82,83
 97 368 97 368 97 389 c 2,84,-1
 97 543 l 1,85,-1
 99 547 l 2,86,87
 105 558 105 558 120 564 c 0,38,39
EndSplineSet
EndChar

StartChar: Gbreve
Encoding: 286 286 126
Width: 654
GlyphClass: 2
Flags: W
LayerCount: 2
Fore
SplineSet
121 607 m 2,0,-1
 131 607 l 2,1,2
 140 606 140 606 146.5 601.5 c 128,-1,3
 153 597 153 597 180 570 c 2,4,-1
 213 537 l 1,5,-1
 221 542 l 2,6,7
 282 580 282 580 348 572 c 0,8,9
 394 567 394 567 435 542 c 2,10,-1
 442 537 l 1,11,-1
 475 570 l 2,12,13
 508 603 508 603 514 605 c 0,14,15
 533 613 533 613 548 600.5 c 128,-1,16
 563 588 563 588 558 569 c 0,17,18
 556 564 556 564 521 529 c 2,19,-1
 486 494 l 1,20,-1
 492 485 l 2,21,22
 508 463 508 463 515 438 c 0,23,24
 516 435 516 435 522 414 c 0,25,26
 524 402 524 402 524 378 c 128,-1,27
 524 354 524 354 522 342 c 0,28,29
 512 300 512 300 493 273 c 2,30,-1
 487 263 l 1,31,-1
 521 228 l 2,32,33
 556 194 556 194 557 188 c 0,34,35
 563 171 563 171 549 158 c 0,36,37
 541 150 541 150 527 150 c 0,38,39
 516 150 516 150 508.5 155 c 128,-1,40
 501 160 501 160 474 187 c 2,41,-1
 442 219 l 1,42,-1
 434 214 l 2,43,44
 363 169 363 169 283 188 c 0,45,46
 245 197 245 197 219 215 c 2,47,-1
 213 220 l 1,48,-1
 179 187 l 2,49,50
 151 159 151 159 145 154.5 c 128,-1,51
 139 150 139 150 128 150 c 0,52,53
 115 150 115 150 105.5 158.5 c 128,-1,54
 96 167 96 167 96 179 c 0,55,56
 96 188 96 188 101 194.5 c 128,-1,57
 106 201 106 201 134 230 c 2,58,-1
 168 263 l 1,59,-1
 161 273 l 2,60,61
 140 305 140 305 133 342 c 0,62,63
 131 354 131 354 131 378 c 128,-1,64
 131 402 131 402 133 414 c 0,65,66
 143 456 143 456 162 483 c 2,67,-1
 168 493 l 1,68,-1
 134 527 l 2,69,70
 101 561 101 561 98 566 c 0,71,72
 92 578 92 578 98 589 c 0,73,74
 105 604 105 604 121 607 c 2,0,-1
343 512 m 0,75,76
 292 518 292 518 249.5 486.5 c 128,-1,77
 207 455 207 455 197 403 c 0,78,79
 193 378 193 378 197 353 c 0,80,81
 207 301 207 301 249.5 269.5 c 128,-1,82
 292 238 292 238 343 244 c 0,83,84
 386 249 386 249 417.5 279 c 128,-1,85
 449 309 449 309 458 353 c 0,86,87
 462 378 462 378 458 403 c 0,88,89
 449 447 449 447 417.5 477 c 128,-1,90
 386 507 386 507 343 512 c 0,75,76
EndSplineSet
EndChar

StartChar: dotlessi
Encoding: 305 305 127
Width: 654
GlyphClass: 2
Flags: W
LayerCount: 2
Fore
SplineSet
301 746 m 0,0,1
 308 747 308 747 334 746.5 c 128,-1,2
 360 746 360 746 369 745 c 0,3,4
 436 734 436 734 480 694 c 0,5,6
 501 674 501 674 517 644 c 0,7,8
 543 591 543 591 534.5 533 c 128,-1,9
 526 475 526 475 486 434 c 0,10,11
 472 419 472 419 456 408 c 2,12,-1
 449 403 l 1,13,-1
 460 398 l 2,14,15
 482 386 482 386 503 366 c 0,16,17
 524 343 524 343 536 320 c 0,18,19
 561 272 561 272 559 203 c 0,20,21
 558 147 558 147 536 104 c 0,22,23
 499 27 499 27 422 15 c 0,24,25
 384 8 384 8 372 30 c 0,26,27
 364 49 364 49 377 62 c 0,28,29
 385 72 385 72 403 73 c 0,30,31
 461 79 461 79 483 144 c 0,32,33
 495 178 495 178 493.5 221.5 c 128,-1,34
 492 265 492 265 478 293 c 0,35,36
 458 332 458 332 422 348 c 0,37,38
 401 359 401 359 373 360 c 0,39,40
 352 361 352 361 343 371 c 0,41,42
 335 379 335 379 335 401 c 0,43,44
 336 416 336 416 338 420 c 0,45,46
 347 434 347 434 369 437 c 0,47,48
 426 446 426 446 454.5 497 c 128,-1,49
 483 548 483 548 463 605 c 0,50,51
 441 665 441 665 379 681 c 0,52,53
 361 686 361 686 335 687 c 0,54,55
 278 688 278 688 247 668 c 0,56,57
 196 634 196 634 187 551 c 0,58,59
 183 524 183 524 183 269 c 0,60,61
 183 33 183 33 181 28 c 0,62,63
 177 16 177 16 165 10 c 0,64,65
 160 8 160 8 151 8 c 0,66,67
 141 8 141 8 136 10 c 0,68,69
 124 16 124 16 120 28 c 0,70,71
 118 33 118 33 118 271 c 0,72,73
 118 529 118 529 122 556 c 0,74,75
 130 621 130 621 158 665 c 0,76,77
 205 736 205 736 288 745 c 0,78,79
 293 746 293 746 301 746 c 0,0,1
EndSplineSet
EndChar

StartChar: Lacute
Encoding: 313 313 128
Width: 654
GlyphClass: 2
Flags: W
LayerCount: 2
Fore
SplineSet
10 668 m 0,0,1
 30 676 30 676 46 660 c 0,2,3
 47 659 47 659 48 658 c 0,4,5
 53 655 53 655 54 621.5 c 128,-1,6
 55 588 55 588 55 385 c 0,7,8
 55 321 55 321 55 284 c 0,9,10
 55 -75 55 -75 53 -80 c 0,11,12
 49 -92 49 -92 37 -98 c 0,13,14
 32 -100 32 -100 23 -100 c 0,15,16
 13 -100 13 -100 8 -98 c 0,17,18
 -4 -92 -4 -92 -8 -80 c 0,19,20
 -10 -75 -10 -75 -10 284 c 0,21,22
 -10 644 -10 644 -8 649 c 0,23,24
 -5 661 -5 661 10 668 c 0,0,1
EndSplineSet
EndChar

StartChar: Lcaron
Encoding: 317 317 129
Width: 654
GlyphClass: 2
Flags: W
LayerCount: 2
Fore
SplineSet
168 746 m 0,0,1
 170 747 170 747 193 747 c 0,2,3
 212 747 212 747 219 744 c 0,4,5
 237 735 237 735 237 718 c 0,6,7
 237 712 237 712 222.5 603 c 128,-1,8
 208 494 208 494 207 489 c 0,9,10
 205 478 205 478 191 471 c 0,11,12
 186 469 186 469 177 469 c 0,13,14
 167 469 167 469 162 471 c 0,15,16
 155 474 155 474 152 479 c 0,17,18
 145 486 145 486 144.5 497.5 c 128,-1,19
 144 509 144 509 144 609 c 2,20,-1
 145 725 l 1,21,-1
 147 729 l 2,22,23
 153 740 153 740 168 746 c 0,0,1
458 746 m 0,24,25
 460 747 460 747 480 747 c 0,26,27
 495 747 495 747 504 744 c 0,28,29
 519 736 519 736 521 721 c 0,30,31
 522 716 522 716 510.5 604.5 c 128,-1,32
 499 493 499 493 497 489 c 0,33,34
 494 478 494 478 481 471 c 0,35,36
 476 469 476 469 467 469 c 0,37,38
 457 469 457 469 452 471 c 0,39,40
 439 478 439 478 435 489 c 0,41,42
 434 494 434 494 434 610 c 2,43,-1
 435 725 l 1,44,-1
 437 729 l 2,45,46
 443 740 443 740 458 746 c 0,24,25
EndSplineSet
EndChar

StartChar: dotlessj
Encoding: 567 567 130
Width: 654
GlyphClass: 2
Flags: W
LayerCount: 2
Fore
SplineSet
145 521 m 0,0,1
 152 522 152 522 175.5 521 c 128,-1,2
 199 520 199 520 208 519 c 0,3,4
 254 512 254 512 287 490 c 0,5,6
 317 470 317 470 336 435 c 2,7,-1
 339 430 l 1,8,-1
 347 440 l 2,9,10
 363 461 363 461 384 477 c 0,11,12
 442 525 442 525 526 522 c 0,13,14
 529 522 529 522 541 521 c 128,-1,15
 553 520 553 520 558 519 c 0,16,17
 668 502 668 502 708 404 c 0,18,19
 720 372 720 372 727 317 c 0,20,21
 731 284 731 284 728 276 c 0,22,23
 724 264 724 264 712 258 c 2,24,-1
 707 256 l 1,25,-1
 534 255 l 1,26,-1
 361 255 l 1,27,-1
 361 244 l 1,28,29
 366 165 366 165 406 115 c 0,30,31
 429 86 429 86 471.5 73 c 128,-1,32
 514 60 514 60 561 67 c 0,33,34
 601 73 601 73 619 92 c 0,35,36
 623 96 623 96 631 100 c 0,37,38
 637 103 637 103 646 103 c 0,39,40
 660 103 660 103 669 95 c 0,41,42
 685 79 685 79 675 62 c 0,43,44
 670 50 670 50 650 36.5 c 128,-1,45
 630 23 630 23 609 16 c 0,46,47
 553 -3 553 -3 492 6 c 0,48,49
 413 19 413 19 369 63 c 2,50,-1
 360 71 l 1,51,-1
 360 52 l 2,52,53
 360 32 360 32 358 28 c 0,54,55
 354 16 354 16 342 10 c 0,56,57
 337 8 337 8 328 8 c 0,58,59
 318 8 318 8 313 10 c 0,60,61
 301 16 301 16 297 28 c 0,62,63
 295 32 295 32 295 60 c 2,64,-1
 295 87 l 1,65,-1
 283 75 l 2,66,67
 248 43 248 43 216 27 c 0,68,69
 121 -20 121 -20 34 25 c 0,70,71
 -26 54 -26 54 -45 114 c 0,72,73
 -52 133 -52 133 -52 159 c 0,74,75
 -49 245 -49 245 32 285 c 0,76,77
 66 303 66 303 108.5 309 c 128,-1,78
 151 315 151 315 249 317 c 2,79,-1
 296 317 l 1,80,-1
 296 328 l 2,81,82
 293 363 293 363 286 388 c 0,83,84
 263 458 263 458 175 462 c 0,85,86
 140 463 140 463 104 452 c 0,87,88
 76 443 76 443 46 420 c 0,89,90
 33 412 33 412 18 415 c 128,-1,91
 3 418 3 418 -4 431 c 0,92,93
 -6 436 -6 436 -6 444 c 128,-1,94
 -6 452 -6 452 -3 457 c 0,95,96
 -3 458 -3 458 -1.5 460 c 128,-1,97
 0 462 0 462 1.5 464 c 128,-1,98
 3 466 3 466 4 467 c 0,99,100
 19 479 19 479 51 495 c 0,101,102
 91 515 91 515 145 521 c 0,0,1
538 461 m 0,103,104
 492 466 492 466 460 453 c 0,105,106
 434 443 434 443 410.5 417.5 c 128,-1,107
 387 392 387 392 374 360 c 0,108,109
 366 336 366 336 364 320 c 2,110,-1
 363 315 l 1,111,-1
 512 315 l 1,112,-1
 662 315 l 1,113,-1
 660 328 l 2,114,115
 653 371 653 371 643 392 c 0,116,117
 613 454 613 454 538 461 c 0,103,104
295 225 m 1,118,-1
 295 257 l 1,119,-1
 267 257 l 2,120,121
 142 256 142 256 101 246 c 0,122,123
 22 229 22 229 14 166 c 0,124,125
 10 138 10 138 24.5 114 c 128,-1,126
 39 90 39 90 67 76 c 0,127,128
 102 59 102 59 143 66 c 128,-1,129
 184 73 184 73 220 102 c 0,130,131
 259 134 259 134 289 184 c 2,132,-1
 295 193 l 1,133,-1
 295 225 l 1,118,-1
EndSplineSet
EndChar

StartChar: circumflex
Encoding: 710 710 131
Width: 654
GlyphClass: 2
Flags: W
LayerCount: 2
Fore
SplineSet
315 742 m 0,0,1
 320 744 320 744 329 744 c 0,2,3
 343 742 343 742 349 736 c 0,4,5
 353 732 353 732 454 581 c 128,-1,6
 555 430 555 430 557 425 c 0,7,8
 560 416 560 416 557 407 c 0,9,10
 553 393 553 393 538 387 c 0,11,12
 524 384 524 384 514 388 c 2,13,-1
 512 389 l 2,14,15
 506 390 506 390 445 456 c 0,16,17
 432 469 432 469 411 492 c 2,18,-1
 327 580 l 1,19,20
 286 537 286 537 237 485 c 0,21,22
 148 391 148 391 142 389 c 0,23,24
 130 383 130 383 117 387.5 c 128,-1,25
 104 392 104 392 98 404 c 0,26,27
 93 416 93 416 97 425 c 0,28,29
 99 430 99 430 200.5 581 c 128,-1,30
 302 732 302 732 305 735 c 0,31,32
 309 739 309 739 315 742 c 0,0,1
EndSplineSet
EndChar

StartChar: caron
Encoding: 711 711 132
Width: 654
GlyphClass: 2
Flags: W
LayerCount: 2
Fore
SplineSet
225 657 m 0,0,1
 240 660 240 660 267 655 c 0,2,3
 297 647 297 647 320 623 c 2,4,-1
 327 616 l 1,5,-1
 334 624 l 2,6,7
 340 630 340 630 348 636 c 0,8,9
 362 646 362 646 387 655 c 0,10,11
 395 657 395 657 413 657 c 128,-1,12
 431 657 431 657 439 655 c 0,13,14
 465 648 465 648 486 628 c 0,15,16
 508 608 508 608 514 581 c 0,17,18
 519 561 519 561 507 549 c 0,19,20
 502 544 502 544 494 541 c 0,21,22
 482 537 482 537 468 543 c 0,23,24
 456 549 456 549 451 568 c 0,25,26
 444 589 444 589 424 596 c 0,27,28
 413 600 413 600 402 596 c 0,29,30
 367 584 367 584 361 529 c 0,31,32
 360 522 360 522 360 276 c 0,33,34
 360 33 360 33 358 28 c 0,35,36
 354 16 354 16 342 10 c 0,37,38
 337 8 337 8 328 8 c 0,39,40
 318 8 318 8 313 10 c 0,41,42
 301 16 301 16 297 28 c 0,43,44
 295 33 295 33 295 277 c 0,45,46
 295 472 295 472 294.5 504 c 128,-1,47
 294 536 294 536 290 550 c 0,48,49
 282 578 282 578 263.5 590.5 c 128,-1,50
 245 603 245 603 226 594 c 0,51,52
 210 587 210 587 203 564 c 0,53,54
 199 554 199 554 194 549 c 0,55,56
 188 544 188 544 181 541 c 0,57,58
 169 537 169 537 158 541.5 c 128,-1,59
 147 546 147 546 142 556 c 0,60,61
 136 567 136 567 140 579 c 0,62,63
 153 634 153 634 208 652 c 0,64,65
 211 653 211 653 217.5 655 c 128,-1,66
 224 657 224 657 225 657 c 0,0,1
EndSplineSet
EndChar

StartChar: breve
Encoding: 728 728 133
Width: 654
GlyphClass: 2
Flags: W
LayerCount: 2
Fore
SplineSet
289 640 m 0,0,1
 293 642 293 642 329 642 c 2,2,-1
 365 642 l 1,3,-1
 370 639 l 2,4,5
 388 629 388 629 388 612 c 0,6,7
 388 590 388 590 364 583 c 2,8,-1
 360 582 l 1,9,-1
 360 551 l 1,10,-1
 360 520 l 1,11,-1
 364 519 l 1,12,13
 455 506 455 506 509 435 c 0,14,15
 562 364 562 364 559 252 c 0,16,17
 558 221 558 221 552 191 c 0,18,19
 535 114 535 114 485 65 c 0,20,21
 445 26 445 26 388 11 c 0,22,23
 376 9 376 9 367 7 c 2,24,-1
 360 6 l 1,25,-1
 360 -25 l 1,26,-1
 360 -55 l 1,27,-1
 364 -56 l 2,28,29
 388 -63 388 -63 388 -85 c 0,30,31
 388 -102 388 -102 370 -112 c 2,32,-1
 365 -114 l 1,33,-1
 330 -115 l 2,34,35
 294 -115 294 -115 290 -114 c 0,36,37
 278 -110 278 -110 271.5 -100.5 c 128,-1,38
 265 -91 265 -91 267 -80 c 0,39,40
 270 -63 270 -63 290 -56 c 2,41,-1
 295 -55 l 1,42,-1
 295 -25 l 1,43,-1
 295 6 l 1,44,-1
 288 7 l 2,45,46
 279 9 279 9 267 11 c 0,47,48
 169 36 169 36 125 126 c 0,49,50
 99 180 99 180 96 252 c 0,51,52
 93 364 93 364 146 435 c 0,53,54
 162 456 162 456 183 473 c 0,55,56
 230 510 230 510 291 519 c 1,57,-1
 295 520 l 1,58,-1
 295 551 l 1,59,-1
 295 582 l 1,60,-1
 290 583 l 2,61,62
 270 590 270 590 267 607 c 0,63,64
 265 618 265 618 271 627.5 c 128,-1,65
 277 637 277 637 289 640 c 0,0,1
295 263 m 128,-1,67
 295 459 295 459 294 459 c 0,68,69
 284 459 284 459 264 450 c 0,70,71
 218 431 218 431 190 387 c 0,72,73
 158 329 158 329 161 252 c 0,74,75
 162 213 162 213 173 178 c 0,76,77
 201 90 201 90 283 69 c 1,78,-1
 294 67 l 2,79,66
 295 67 295 67 295 263 c 128,-1,67
371 457 m 2,80,-1
 361 459 l 2,81,82
 360 459 360 459 360 263 c 128,-1,83
 360 67 360 67 361 67 c 0,84,85
 366 68 366 68 372 69 c 0,86,87
 421 81 421 81 452 121.5 c 128,-1,88
 483 162 483 162 491 222 c 0,89,90
 501 297 501 297 480 353 c 0,91,92
 463 401 463 401 426 431 c 0,93,94
 401 450 401 450 371 457 c 2,80,-1
EndSplineSet
EndChar

StartChar: dotaccent
Encoding: 729 729 134
Width: 654
GlyphClass: 2
Flags: W
LayerCount: 2
Fore
SplineSet
299 796 m 0,0,1
 332 801 332 801 370 794 c 0,2,3
 460 780 460 780 511 711 c 0,4,5
 556 650 556 650 559 563 c 0,6,7
 560 521 560 521 548 473 c 0,8,9
 547 468 547 468 540.5 439.5 c 128,-1,10
 534 411 534 411 521 356 c 128,-1,11
 508 301 508 301 498 258 c 2,12,-1
 452 63 l 1,13,-1
 457 60 l 2,14,15
 473 51 473 51 473 34 c 0,16,17
 473 16 473 16 456 8 c 2,18,-1
 450 5 l 1,19,-1
 427 5 l 1,20,-1
 405 5 l 1,21,-1
 399 7 l 2,22,23
 389 12 389 12 383 21 c 0,24,25
 379 29 379 29 384 53 c 128,-1,26
 389 77 389 77 430 253 c 0,27,28
 483 480 483 480 485 488 c 0,29,30
 493 518 493 518 493 554 c 0,31,32
 493 580 493 580 492 589 c 0,33,34
 483 650 483 650 448 688 c 128,-1,35
 413 726 413 726 358 736 c 0,36,37
 336 739 336 739 310 737 c 0,38,39
 244 730 244 730 204 685.5 c 128,-1,40
 164 641 164 641 160 572 c 0,41,42
 159 539 159 539 172 472 c 0,43,44
 212 268 212 268 266 68 c 0,45,46
 276 32 276 32 272 23 c 0,47,48
 267 12 267 12 254 6 c 0,49,50
 250 5 250 5 227 5 c 2,51,-1
 205 5 l 1,52,-1
 199 7 l 2,53,54
 181 17 181 17 181 34 c 0,55,56
 181 50 181 50 196 60 c 2,57,-1
 201 62 l 1,58,-1
 194 86 l 2,59,60
 171 176 171 176 155 241 c 0,61,62
 110 440 110 440 97 524 c 0,63,64
 92 560 92 560 96 587 c 0,65,66
 105 678 105 678 164 734 c 0,67,68
 218 787 218 787 299 796 c 0,0,1
EndSplineSet
EndChar

StartChar: ring
Encoding: 730 730 135
Width: 654
GlyphClass: 2
Flags: W
LayerCount: 2
Fore
SplineSet
165 678 m 0,0,1
 168 679 168 679 346 679 c 2,2,-1
 524 679 l 1,3,-1
 529 676 l 2,4,5
 540 670 540 670 545 662 c 2,6,-1
 548 657 l 1,7,-1
 548 635 l 1,8,-1
 548 613 l 1,9,-1
 545 607 l 2,10,11
 540 600 540 600 538 599 c 0,12,13
 516 580 516 580 493 599 c 0,14,15
 485 605 485 605 483 615 c 2,16,-1
 483 619 l 1,17,-1
 351 619 l 1,18,-1
 219 619 l 1,19,-1
 221 614 l 2,20,21
 224 606 224 606 270 483 c 0,22,23
 316 359 316 359 316 350 c 128,-1,24
 316 341 316 341 270 217 c 0,25,26
 224 94 224 94 221 86 c 2,27,-1
 219 81 l 1,28,-1
 351 81 l 1,29,-1
 483 81 l 1,30,-1
 483 85 l 2,31,32
 485 95 485 95 493 101 c 0,33,34
 516 120 516 120 538 101 c 0,35,36
 540 100 540 100 545 93 c 2,37,-1
 548 88 l 1,38,-1
 548 66 l 1,39,-1
 548 44 l 1,40,-1
 545 38 l 2,41,42
 540 30 540 30 529 24 c 2,43,-1
 524 22 l 1,44,-1
 345 22 l 1,45,-1
 166 22 l 1,46,-1
 160 24 l 2,47,48
 142 33 142 33 142 51 c 0,49,50
 142 58 142 58 196 204 c 2,51,-1
 250 350 l 1,52,-1
 196 496 l 2,53,54
 142 642 142 642 142 650 c 128,-1,55
 142 658 142 658 144 661 c 0,56,57
 149 672 149 672 165 678 c 0,0,1
EndSplineSet
EndChar

StartChar: ogonek
Encoding: 731 731 136
Width: 654
GlyphClass: 2
Flags: W
LayerCount: 2
Fore
SplineSet
319 678 m 0,0,1
 337 682 337 682 350 670 c 0,2,3
 352 669 352 669 357 662 c 2,4,-1
 360 657 l 1,5,-1
 360 387 l 1,6,-1
 360 117 l 1,7,-1
 406 162 l 2,8,9
 444 201 444 201 451.5 206.5 c 128,-1,10
 459 212 459 212 470 212 c 0,11,12
 477 212 477 212 484 209 c 0,13,14
 511 195 511 195 499 169 c 0,15,16
 494 162 494 162 421 90 c 0,17,18
 360 29 360 29 350 20 c 128,-1,19
 340 11 340 11 329 10 c 0,20,21
 320 10 320 10 316 12 c 0,22,23
 310 14 310 14 233 90 c 0,24,25
 156 169 156 169 155 171 c 0,26,27
 150 182 150 182 155 194 c 0,28,29
 161 204 161 204 171 209 c 0,30,31
 176 211 176 211 185 211 c 0,32,33
 196 211 196 211 204 205 c 128,-1,34
 212 199 212 199 250 161 c 2,35,-1
 295 117 l 1,36,-1
 295 387 l 1,37,-1
 296 657 l 1,38,-1
 298 661 l 2,39,40
 304 674 304 674 319 678 c 0,0,1
EndSplineSet
EndChar

StartChar: tilde
Encoding: 732 732 137
Width: 654
GlyphClass: 2
Flags: W
LayerCount: 2
Fore
SplineSet
314 682 m 0,0,1
 329 688 329 688 342 681 c 0,2,3
 353 675 353 675 356 668 c 0,4,5
 358 665 358 665 427 367 c 2,6,-1
 496 71 l 1,7,-1
 501 70 l 2,8,9
 522 67 522 67 528.5 50 c 128,-1,10
 535 33 535 33 520 19 c 0,11,12
 513 13 513 13 507 12 c 128,-1,13
 501 11 501 11 470 11 c 0,14,15
 438 11 438 11 432 12 c 128,-1,16
 426 13 426 13 419 19 c 0,17,18
 397 40 397 40 418 61 c 0,19,20
 419 62 419 62 422 64 c 128,-1,21
 425 66 425 66 426 67 c 2,22,-1
 430 69 l 1,23,-1
 379 289 l 2,24,25
 365 350 365 350 352 403.5 c 128,-1,26
 339 457 339 457 333 483 c 128,-1,27
 327 509 327 509 327 508 c 0,28,29
 326 507 326 507 275.5 288.5 c 128,-1,30
 225 70 225 70 225 69 c 128,-1,31
 225 68 225 68 229 66 c 0,32,33
 238 62 238 62 243 53 c 0,34,35
 250 40 250 40 243 28 c 0,36,37
 238 18 238 18 228 13 c 2,38,-1
 222 11 l 1,39,-1
 185 11 l 1,40,-1
 148 11 l 1,41,-1
 142 13 l 2,42,43
 124 21 124 21 124 40 c 0,44,45
 124 51 124 51 132.5 59.5 c 128,-1,46
 141 68 141 68 153 70 c 2,47,-1
 159 70 l 1,48,-1
 160 75 l 2,49,50
 160 76 160 76 228 372 c 0,51,52
 298 667 298 667 298 668 c 0,53,54
 303 677 303 677 314 682 c 0,0,1
EndSplineSet
EndChar

StartChar: hungarumlaut
Encoding: 733 733 138
Width: 654
GlyphClass: 2
Flags: W
LayerCount: 2
Fore
SplineSet
119 689 m 0,0,1
 122 690 122 690 329 690 c 2,2,-1
 535 690 l 1,3,-1
 541 687 l 2,4,5
 550 682 550 682 556 673 c 0,6,7
 558 668 558 668 558 660 c 128,-1,8
 558 652 558 652 556 648 c 0,9,10
 549 636 549 636 534 631 c 2,11,-1
 530 630 l 1,12,-1
 530 333 l 2,13,14
 530 36 530 36 528 31 c 0,15,16
 524 19 524 19 512 13 c 0,17,18
 507 11 507 11 498 11 c 0,19,20
 488 11 488 11 483 13 c 0,21,22
 471 19 471 19 467 31 c 0,23,24
 465 36 465 36 465 333 c 2,25,-1
 465 630 l 1,26,-1
 327 630 l 1,27,-1
 189 630 l 1,28,-1
 189 333 l 2,29,30
 189 36 189 36 187 31 c 0,31,32
 183 19 183 19 171 13 c 0,33,34
 166 11 166 11 157 11 c 0,35,36
 147 11 147 11 142 13 c 0,37,38
 130 19 130 19 126 31 c 0,39,40
 124 36 124 36 124 333 c 2,41,-1
 124 630 l 1,42,-1
 120 631 l 2,43,44
 105 636 105 636 98 649 c 0,45,46
 92 660 92 660 98 671 c 0,47,48
 105 685 105 685 119 689 c 0,0,1
EndSplineSet
EndChar

StartChar: endash
Encoding: 8211 8211 139
Width: 654
GlyphClass: 2
Flags: W
LayerCount: 2
Fore
SplineSet
133 352 m 0,0,1
 136 353 136 353 329 353 c 2,2,-1
 521 353 l 1,3,-1
 526 350 l 2,4,5
 544 341 544 341 544 323 c 128,-1,6
 544 305 544 305 526 296 c 2,7,-1
 521 294 l 1,8,-1
 327 294 l 1,9,-1
 134 294 l 1,10,-1
 129 296 l 2,11,12
 117 300 117 300 113 310 c 0,13,14
 111 314 111 314 111 323 c 0,15,16
 111 336 111 336 119 344 c 0,17,18
 126 350 126 350 133 352 c 0,0,1
EndSplineSet
EndChar

StartChar: emdash
Encoding: 8212 8212 140
Width: 654
GlyphClass: 2
Flags: W
LayerCount: 2
Fore
SplineSet
133 612 m 0,0,1
 136 613 136 613 329 613 c 2,2,-1
 521 613 l 1,3,-1
 526 610 l 2,4,5
 544 601 544 601 544 583 c 128,-1,6
 544 565 544 565 526 556 c 2,7,-1
 521 554 l 1,8,-1
 327 554 l 1,9,-1
 134 554 l 1,10,-1
 129 556 l 2,11,12
 117 560 117 560 113 570 c 0,13,14
 111 574 111 574 111 583 c 0,15,16
 111 596 111 596 119 604 c 0,17,18
 126 610 126 610 133 612 c 0,0,1
EndSplineSet
EndChar

StartChar: quoteleft
Encoding: 8216 8216 141
Width: 654
GlyphClass: 2
Flags: W
LayerCount: 2
Fore
SplineSet
264 746 m 0,0,1
 280 751 280 751 296 739 c 0,2,3
 298 736 298 736 327.5 690.5 c 128,-1,4
 357 645 357 645 358 641 c 0,5,6
 365 624 365 624 350 611 c 0,7,8
 341 602 341 602 325 602 c 0,9,10
 315 604 315 604 311 606 c 0,11,12
 304 610 304 610 302 613 c 0,13,14
 299 617 299 617 272 660 c 128,-1,15
 245 703 245 703 243 706 c 0,16,17
 238 717 238 717 243 728 c 0,18,19
 250 742 250 742 264 746 c 0,0,1
EndSplineSet
EndChar

StartChar: quoteright
Encoding: 8217 8217 142
Width: 654
GlyphClass: 2
Flags: W
LayerCount: 2
Fore
SplineSet
281 746 m 0,0,1
 285 748 285 748 327 748 c 128,-1,2
 369 748 369 748 374 746 c 0,3,4
 392 740 392 740 396 724 c 0,5,6
 397 721 397 721 387 577 c 0,7,8
 378 435 378 435 376 429 c 0,9,10
 373 413 373 413 353 406 c 0,11,12
 349 405 349 405 325 405 c 0,13,14
 304 406 304 406 298.5 407 c 128,-1,15
 293 408 293 408 287 415 c 0,16,17
 280 422 280 422 278 438 c 128,-1,18
 276 454 276 454 268 570 c 0,19,20
 258 698 258 698 258 718 c 0,21,22
 259 730 259 730 266 737 c 128,-1,23
 273 744 273 744 281 746 c 0,0,1
329 682 m 0,24,25
 329 687 329 687 327 687 c 128,-1,26
 325 687 325 687 325 679 c 0,27,28
 325 677 325 677 325.5 672.5 c 128,-1,29
 326 668 326 668 327 666 c 2,30,-1
 327 660 l 1,31,-1
 328 668 l 2,32,33
 328 671 328 671 328.5 676 c 128,-1,34
 329 681 329 681 329 682 c 0,24,25
EndSplineSet
EndChar

StartChar: quotesinglbase
Encoding: 8218 8218 143
Width: 654
GlyphClass: 2
Flags: W
LayerCount: 2
Fore
SplineSet
323 664 m 0,0,1
 325 666 325 666 330 664 c 0,2,3
 347 663 347 663 357 648 c 2,4,-1
 360 643 l 1,5,-1
 360 592 l 1,6,-1
 360 542 l 1,7,-1
 357 536 l 2,8,9
 354 529 354 529 341 522 c 128,-1,10
 328 515 328 515 314 522 c 0,11,12
 301 529 301 529 298 536 c 2,13,-1
 296 542 l 1,14,-1
 296 592 l 1,15,-1
 296 643 l 1,16,-1
 299 648 l 2,17,18
 305 661 305 661 323 664 c 0,0,1
EndSplineSet
EndChar

StartChar: quotedblleft
Encoding: 8220 8220 144
Width: 654
GlyphClass: 2
Flags: W
LayerCount: 2
Fore
SplineSet
187 501 m 0,0,1
 190 502 190 502 288 502 c 2,2,-1
 385 502 l 1,3,-1
 390 499 l 2,4,5
 402 493 402 493 406 481 c 0,6,7
 408 476 408 476 408 255 c 0,8,9
 408 33 408 33 406 28 c 0,10,11
 402 16 402 16 390 10 c 0,12,13
 385 8 385 8 376 8 c 0,14,15
 366 8 366 8 361 10 c 0,16,17
 349 16 349 16 345 28 c 0,18,19
 343 33 343 33 343 238 c 2,20,-1
 343 442 l 1,21,-1
 265 442 l 2,22,23
 189 442 189 442 183 445 c 0,24,25
 168 452 168 452 165 467 c 128,-1,26
 162 482 162 482 173 492 c 0,27,28
 180 498 180 498 187 501 c 0,0,1
EndSplineSet
EndChar

StartChar: quotedblright
Encoding: 8221 8221 145
Width: 654
GlyphClass: 2
Flags: W
LayerCount: 2
Fore
SplineSet
215 500 m 0,0,1
 219 502 219 502 299 502 c 2,2,-1
 379 502 l 1,3,-1
 384 499 l 2,4,5
 397 492 397 492 401 481 c 0,6,7
 402 476 402 476 402 235 c 0,8,9
 401 -14 401 -14 398 -29 c 2,10,11
 398 -29 398 -29 396 -38 c 0,12,13
 381 -101 381 -101 329 -135 c 0,14,15
 282 -167 282 -167 206 -160 c 0,16,17
 190 -160 190 -160 174 -158 c 0,18,19
 158 -157 158 -157 154 -155 c 0,20,21
 136 -146 136 -146 136 -128 c 128,-1,22
 136 -110 136 -110 154 -101 c 0,23,24
 166 -97 166 -97 204 -100 c 0,25,26
 243 -104 243 -104 264 -99 c 0,27,28
 287 -93 287 -93 305 -75 c 128,-1,29
 323 -57 323 -57 330 -32 c 0,30,31
 335 -16 335 -16 335.5 7 c 128,-1,32
 336 30 336 30 337 221 c 2,33,-1
 337 442 l 1,34,-1
 279 442 l 2,35,36
 230 442 230 442 221.5 442.5 c 128,-1,37
 213 443 213 443 205 448 c 0,38,39
 196 454 196 454 193 467 c 0,40,41
 191 478 191 478 197 487.5 c 128,-1,42
 203 497 203 497 215 500 c 0,0,1
EndSplineSet
EndChar

StartChar: quotedblbase
Encoding: 8222 8222 146
Width: 654
GlyphClass: 2
Flags: W
LayerCount: 2
Fore
SplineSet
267 664 m 0,0,1
 284 668 284 668 297 655 c 0,2,3
 301 650 301 650 329 606 c 128,-1,4
 357 562 357 562 358 557 c 0,5,6
 362 547 362 547 357 537 c 128,-1,7
 352 527 352 527 341 522 c 0,8,9
 319 513 319 513 303 529 c 0,10,11
 300 533 300 533 271.5 577 c 128,-1,12
 243 621 243 621 242 625 c 0,13,14
 238 638 238 638 245.5 649.5 c 128,-1,15
 253 661 253 661 267 664 c 0,0,1
EndSplineSet
EndChar

StartChar: perthousand
Encoding: 8240 8240 147
Width: 654
GlyphClass: 2
Flags: W
LayerCount: 2
Fore
SplineSet
306 40 m 0,0,1
 307 41 307 41 317 41 c 0,2,3
 332 40 332 40 340 30 c 0,4,5
 346 24 346 24 347 17.5 c 128,-1,6
 348 11 348 11 348 -21 c 2,7,-1
 348 -58 l 1,8,-1
 358 -60 l 2,9,10
 382 -68 382 -68 400 -81 c 0,11,12
 436 -107 436 -107 448 -148 c 0,13,14
 460 -186 460 -186 447.5 -224.5 c 128,-1,15
 435 -263 435 -263 402 -288 c 0,16,17
 379 -304 379 -304 359 -309 c 0,18,19
 324 -320 324 -320 302 -312 c 0,20,21
 287 -304 287 -304 284 -290 c 128,-1,22
 281 -276 281 -276 292 -265 c 0,23,24
 301 -256 301 -256 319 -255 c 0,25,26
 329 -254 329 -254 341 -252 c 0,27,28
 374 -241 374 -241 386 -206 c 0,29,30
 388 -199 388 -199 388 -185 c 128,-1,31
 388 -171 388 -171 386 -163 c 0,32,33
 376 -135 376 -135 349 -122 c 0,34,35
 339 -116 339 -116 319 -115 c 0,36,37
 300 -114 300 -114 291 -104 c 0,38,39
 285 -98 285 -98 284 -89.5 c 128,-1,40
 283 -81 283 -81 283 -37 c 128,-1,41
 283 7 283 7 284 15.5 c 128,-1,42
 285 24 285 24 291 30 c 0,43,44
 296 37 296 37 306 40 c 0,0,1
EndSplineSet
EndChar

StartChar: guilsinglleft
Encoding: 8249 8249 148
Width: 654
GlyphClass: 2
Flags: W
LayerCount: 2
Fore
SplineSet
294 422 m 0,0,1
 297 423 297 423 329 423 c 0,2,3
 356 423 356 423 364 420 c 0,4,5
 375 414 375 414 380 405 c 0,6,7
 382 400 382 400 382 370 c 128,-1,8
 382 340 382 340 380 336 c 0,9,10
 375 325 375 325 362 319 c 0,11,12
 358 318 358 318 327 318 c 2,13,-1
 296 318 l 1,14,-1
 290 320 l 2,15,16
 278 326 278 326 274 338 c 0,17,18
 272 344 272 344 271.5 370 c 128,-1,19
 271 396 271 396 273 402 c 0,20,21
 279 417 279 417 294 422 c 0,0,1
317 248 m 0,22,23
 318 248 318 248 322.5 248.5 c 128,-1,24
 327 249 327 249 329 249 c 0,25,26
 344 248 344 248 352 238 c 0,27,28
 359 231 359 231 359.5 212 c 128,-1,29
 360 193 360 193 360 22 c 2,30,-1
 360 -178 l 1,31,-1
 357 -184 l 2,32,33
 348 -200 348 -200 328 -200 c 0,34,35
 307 -200 307 -200 298 -184 c 2,36,-1
 296 -178 l 1,37,-1
 295 22 l 2,38,39
 295 194 295 194 295.5 212.5 c 128,-1,40
 296 231 296 231 302 237 c 0,41,42
 311 246 311 246 317 248 c 0,22,23
EndSplineSet
EndChar

StartChar: guilsinglright
Encoding: 8250 8250 149
Width: 654
GlyphClass: 2
Flags: W
LayerCount: 2
Fore
SplineSet
292 537 m 0,0,1
 297 539 297 539 327 539 c 0,2,3
 356 539 356 539 362 537 c 0,4,5
 372 533 372 533 380 521 c 0,6,7
 382 516 382 516 382 487 c 0,8,9
 382 457 382 457 380 453 c 0,10,11
 375 442 375 442 362 436 c 0,12,13
 358 435 358 435 327 435 c 0,14,15
 295 435 295 435 290 437 c 0,16,17
 278 442 278 442 274 455 c 0,18,19
 272 461 272 461 272 486.5 c 128,-1,20
 272 512 272 512 274 518 c 0,21,22
 278 531 278 531 292 537 c 0,0,1
323 314 m 0,23,24
 325 316 325 316 330 314 c 0,25,26
 347 313 347 313 357 298 c 2,27,-1
 360 293 l 1,28,-1
 359 240 l 1,29,-1
 359 188 l 1,30,-1
 357 178 l 2,31,32
 350 155 350 155 337 137 c 0,33,34
 322 115 322 115 283 83 c 0,35,36
 232 42 232 42 223 9 c 0,37,38
 210 -31 210 -31 222 -67 c 0,39,40
 233 -106 233 -106 273 -127 c 0,41,42
 300 -140 300 -140 340 -140 c 0,43,44
 360 -140 360 -140 371 -138 c 0,45,46
 433 -125 433 -125 455 -79 c 0,47,48
 465 -60 465 -60 465 -35 c 0,49,50
 466 -17 466 -17 474 -8 c 0,51,52
 486 4 486 4 503 1 c 128,-1,53
 520 -2 520 -2 528 -17 c 0,54,55
 530 -22 530 -22 530 -37 c 0,56,57
 530 -86 530 -86 502 -125 c 128,-1,58
 474 -164 474 -164 426 -184 c 0,59,60
 347 -217 347 -217 264 -188 c 0,61,62
 240 -181 240 -181 219 -166 c 0,63,64
 176 -135 176 -135 161 -90 c 0,65,66
 143 -39 143 -39 158 17 c 0,67,68
 171 70 171 70 227 117 c 0,69,70
 229 119 229 119 239 127.5 c 128,-1,71
 249 136 249 136 254 140 c 0,72,73
 276 160 276 160 287 176 c 0,74,75
 293 186 293 186 293.5 192.5 c 128,-1,76
 294 199 294 199 295 243 c 2,77,-1
 296 293 l 1,78,-1
 299 298 l 2,79,80
 305 311 305 311 323 314 c 0,23,24
EndSplineSet
EndChar

StartChar: ff
Encoding: 64256 64256 150
Width: 654
GlyphClass: 2
Flags: W
LayerCount: 2
Fore
SplineSet
108 521 m 0,0,1
 115 522 115 522 135.5 521.5 c 128,-1,2
 156 521 156 521 164 520 c 0,3,4
 226 509 226 509 268 477 c 0,5,6
 297 456 297 456 322 417 c 1,7,-1
 326 409 l 1,8,-1
 328 412 l 1,9,10
 382 502 382 502 467 517 c 0,11,12
 528 529 528 529 582 514 c 0,13,14
 673 490 673 490 708 404 c 0,15,16
 720 372 720 372 727 317 c 0,17,18
 731 284 731 284 728 276 c 0,19,20
 724 264 724 264 712 258 c 2,21,-1
 707 256 l 1,22,-1
 534 255 l 1,23,-1
 361 255 l 1,24,-1
 361 244 l 1,25,26
 366 165 366 165 406 115 c 0,27,28
 429 86 429 86 471.5 73 c 128,-1,29
 514 60 514 60 561 67 c 0,30,31
 601 73 601 73 619 92 c 0,32,33
 623 96 623 96 631 100 c 0,34,35
 637 103 637 103 646 103 c 0,36,37
 660 103 660 103 669 95 c 0,38,39
 685 79 685 79 675 62 c 0,40,41
 670 50 670 50 650 36.5 c 128,-1,42
 630 23 630 23 609 16 c 0,43,44
 553 -3 553 -3 492 6 c 0,45,46
 423 17 423 17 380 53 c 0,47,48
 347 79 347 79 331 114 c 1,49,-1
 328 119 l 1,50,-1
 322 109 l 2,51,52
 270 23 270 23 167 7 c 0,53,54
 128 1 128 1 89 7 c 0,55,56
 19 17 19 17 -30 65 c 0,57,58
 -88 121 -88 121 -102 217 c 0,59,60
 -107 256 -107 256 -103 290 c 0,61,62
 -97 378 -97 378 -53 435 c 0,63,64
 -34 461 -34 461 -12 477 c 0,65,66
 36 514 36 514 108 521 c 0,0,1
163 458 m 0,67,68
 133 465 133 465 108 461 c 0,69,70
 90 460 90 460 67 451 c 0,71,72
 -8 424 -8 424 -30 335 c 0,73,74
 -51 254 -51 254 -26 176 c 0,75,76
 -9 123 -9 123 34 92 c 0,77,78
 81 59 81 59 147 65 c 0,79,80
 236 74 236 74 274 156 c 0,81,82
 305 224 305 224 291 313 c 0,83,84
 276 409 276 409 203 446 c 0,85,86
 185 454 185 454 163 458 c 0,67,68
538 461 m 0,87,88
 492 466 492 466 460 453 c 0,89,90
 434 443 434 443 410.5 417.5 c 128,-1,91
 387 392 387 392 374 360 c 0,92,93
 366 336 366 336 364 320 c 2,94,-1
 363 315 l 1,95,-1
 512 315 l 1,96,-1
 662 315 l 1,97,-1
 660 328 l 2,98,99
 653 371 653 371 643 392 c 0,100,101
 613 454 613 454 538 461 c 0,87,88
EndSplineSet
EndChar

StartChar: fi
Encoding: 64257 64257 151
Width: 654
GlyphClass: 2
Flags: W
LayerCount: 2
Fore
SplineSet
558 577 m 2,0,1
 570 582 570 582 584 576 c 0,2,3
 595 570 595 570 599 561 c 0,4,5
 604 550 604 550 599 537 c 0,6,7
 598 536 598 536 592 529 c 128,-1,8
 586 522 586 522 574.5 507.5 c 128,-1,9
 563 493 563 493 554 482 c 2,10,-1
 511 432 l 1,11,-1
 516 424 l 2,12,13
 562 353 562 353 559 252 c 0,14,15
 558 221 558 221 552 191 c 0,16,17
 535 114 535 114 485 65 c 0,18,19
 438 18 438 18 364 6 c 0,20,21
 327 2 327 2 292 6 c 0,22,23
 265 11 265 11 244 18 c 0,24,25
 212 32 212 32 196 43 c 2,26,-1
 188 49 l 1,27,-1
 185 47 l 1,28,-1
 180 40 l 2,29,30
 174 34 174 34 164 22 c 128,-1,31
 154 10 154 10 145 -1 c 0,32,33
 107 -46 107 -46 100 -49 c 0,34,35
 95 -52 95 -52 86 -52 c 128,-1,36
 77 -52 77 -52 71 -50 c 0,37,38
 59 -44 59 -44 54 -32 c 0,39,40
 51 -21 51 -21 56 -10 c 0,41,42
 57 -9 57 -9 100 44 c 0,43,44
 143 92 143 92 143 95 c 0,45,46
 140 100 140 100 136 106 c 0,47,48
 122 130 122 130 114 151 c 0,49,50
 97 198 97 198 96 252 c 0,51,52
 93 382 93 382 164 456 c 0,53,54
 192 484 192 484 223 498 c 0,55,56
 255 514 255 514 296 520 c 0,57,58
 305 522 305 522 327.5 522 c 128,-1,59
 350 522 350 522 359 520 c 0,60,61
 419 512 419 512 462 481 c 2,62,-1
 467 477 l 1,63,-1
 507 524 l 2,64,65
 547 572 547 572 550 573 c 2,66,-1
 558 577 l 2,0,1
358 460 m 0,67,68
 328 463 328 463 307 461 c 0,69,70
 221 452 221 452 184 374 c 0,71,72
 159 323 159 323 161 252 c 0,73,74
 164 194 164 194 182 155 c 2,75,-1
 187 146 l 1,76,-1
 307 288 l 1,77,-1
 427 430 l 1,78,-1
 424 432 l 2,79,80
 413 440 413 440 392 450 c 0,81,82
 383 454 383 454 358 460 c 0,67,68
473 371 m 2,83,-1
 468 380 l 2,84,85
 467 380 467 380 348 239.5 c 128,-1,86
 229 99 229 99 228 97 c 0,87,88
 228 93 228 93 254 80 c 0,89,90
 271 72 271 72 293 67 c 0,91,92
 304 65 304 65 328 65 c 0,93,94
 351 65 351 65 362 67 c 0,95,96
 386 73 386 73 400 80 c 0,97,98
 479 116 479 116 491 222 c 0,99,100
 495 247 495 247 493 285 c 0,101,102
 489 335 489 335 473 371 c 2,83,-1
EndSplineSet
EndChar

StartChar: fl
Encoding: 64258 64258 152
Width: 654
GlyphClass: 2
Flags: W
LayerCount: 2
Fore
SplineSet
110 682 m 0,0,1
 114 684 114 684 156 684 c 128,-1,2
 198 684 198 684 203 682 c 2,3,-1
 209 680 l 1,4,-1
 443 679 l 1,5,-1
 678 679 l 1,6,-1
 683 676 l 2,7,8
 701 666 701 666 701 649 c 128,-1,9
 701 632 701 632 683 622 c 2,10,-1
 678 620 l 1,11,-1
 455 619 l 1,12,-1
 233 619 l 1,13,-1
 262 506 l 1,14,-1
 292 394 l 1,15,-1
 485 394 l 1,16,-1
 678 394 l 1,17,-1
 683 391 l 2,18,19
 701 381 701 381 701 364 c 128,-1,20
 701 347 701 347 683 337 c 2,21,-1
 678 335 l 1,22,-1
 492 334 l 1,23,-1
 307 334 l 1,24,-1
 340 208 l 1,25,-1
 373 82 l 1,26,-1
 525 81 l 1,27,-1
 678 81 l 1,28,-1
 683 78 l 2,29,30
 701 68 701 68 701 51 c 128,-1,31
 701 34 701 34 683 24 c 2,32,-1
 678 22 l 1,33,-1
 527 21 l 1,34,-1
 376 21 l 1,35,-1
 372 18 l 2,36,37
 365 13 365 13 361 12 c 0,38,39
 350 7 350 7 337.5 12 c 128,-1,40
 325 17 325 17 321 27 c 0,41,42
 318 32 318 32 295 124 c 2,43,-1
 270 218 l 1,44,-1
 157 218 l 1,45,-1
 43 218 l 1,46,-1
 19 126 l 2,47,48
 -5 32 -5 32 -6 31 c 0,49,50
 -9 20 -9 20 -22 14 c 0,51,52
 -28 11 -28 11 -37 11 c 128,-1,53
 -46 11 -46 11 -51 13 c 0,54,55
 -69 21 -69 21 -69 39 c 0,56,57
 -69 45 -69 45 11 354 c 128,-1,58
 91 663 91 663 94 668 c 0,59,60
 99 677 99 677 110 682 c 0,0,1
166 620 m 2,61,-1
 165 624 l 1,62,-1
 157 624 l 1,63,-1
 148 624 l 1,64,-1
 147 620 l 2,65,66
 147 619 147 619 102 448 c 2,67,-1
 58 279 l 1,68,-1
 108 278 l 1,69,-1
 206 278 l 1,70,-1
 255 279 l 1,71,-1
 211 448 l 2,72,73
 166 619 166 619 166 620 c 2,61,-1
EndSplineSet
EndChar

StartChar: ffi
Encoding: 64259 64259 153
Width: 654
GlyphClass: 2
Flags: W
LayerCount: 2
Fore
SplineSet
111 698 m 1,0,-1
 135 698 l 2,1,2
 155 698 155 698 165 696 c 0,3,4
 239 679 239 679 289 608 c 2,5,-1
 295 600 l 1,6,-1
 295 629 l 2,7,8
 295 656 295 656 298 662 c 0,9,10
 304 671 304 671 315 677 c 0,11,12
 323 679 323 679 499 679 c 2,13,-1
 678 679 l 1,14,-1
 683 676 l 2,15,16
 701 666 701 666 701 649 c 128,-1,17
 701 632 701 632 683 622 c 2,18,-1
 678 620 l 1,19,-1
 519 619 l 1,20,-1
 360 619 l 1,21,-1
 360 507 l 1,22,-1
 360 394 l 1,23,-1
 494 394 l 1,24,-1
 629 394 l 1,25,-1
 634 391 l 2,26,27
 653 382 653 382 653 364 c 128,-1,28
 653 346 653 346 634 337 c 2,29,-1
 629 335 l 1,30,-1
 494 334 l 1,31,-1
 360 334 l 1,32,-1
 360 207 l 1,33,-1
 360 81 l 1,34,-1
 519 81 l 1,35,-1
 678 81 l 1,36,-1
 683 78 l 2,37,38
 701 68 701 68 701 51 c 128,-1,39
 701 34 701 34 683 24 c 2,40,-1
 678 22 l 1,41,-1
 499 22 l 2,42,43
 319 22 319 22 315 23 c 0,44,45
 304 29 304 29 298 38 c 0,46,47
 295 44 295 44 295 76 c 2,48,-1
 295 109 l 1,49,-1
 292 105 l 2,50,51
 271 72 271 72 241 48 c 0,52,53
 204 18 204 18 160 9 c 0,54,55
 130 5 130 5 103 9 c 0,56,57
 68 16 68 16 39 35 c 0,58,59
 -34 82 -34 82 -73 197 c 0,60,61
 -100 277 -100 277 -98 367 c 0,62,63
 -97 404 -97 404 -92 432 c 0,64,65
 -72 565 -72 565 -3 637 c 0,66,67
 46 689 46 689 111 698 c 1,0,-1
156 636 m 0,68,69
 117 646 117 646 83 627 c 0,70,71
 10 588 10 588 -20 465 c 0,72,73
 -51 337 -51 337 -11 214 c 0,74,75
 31 92 31 92 108 70 c 0,76,77
 131 64 131 64 154 70 c 0,78,79
 231 92 231 92 273 214 c 0,80,81
 319 357 319 357 272 499 c 0,82,83
 234 615 234 615 156 636 c 0,68,69
EndSplineSet
EndChar

StartChar: ffl
Encoding: 64260 64260 154
Width: 654
GlyphClass: 2
Flags: W
LayerCount: 2
Fore
SplineSet
545 755 m 0,0,1
 555 757 555 757 566 752 c 128,-1,2
 577 747 577 747 582 738 c 0,3,4
 586 725 586 725 583 716 c 0,5,6
 583 715 583 715 577 706 c 128,-1,7
 571 697 571 697 561 680 c 128,-1,8
 551 663 551 663 542 647 c 2,9,-1
 502 581 l 1,10,-1
 508 570 l 2,11,12
 540 506 540 506 550 432 c 0,13,14
 555 404 555 404 556 367 c 0,15,16
 558 277 558 277 531 197 c 0,17,18
 480 47 480 47 377 15 c 0,19,20
 356 8 356 8 327 8 c 128,-1,21
 298 8 298 8 278 15 c 0,22,23
 233 29 233 29 201 63 c 1,24,-1
 194 69 l 1,25,26
 179 46 179 46 162 17 c 0,27,28
 132 -34 132 -34 127 -39 c 0,29,30
 123 -43 123 -43 117 -46 c 128,-1,31
 111 -49 111 -49 103 -49 c 0,32,33
 93 -49 93 -49 88 -47 c 0,34,35
 64 -35 64 -35 71 -12 c 0,36,37
 73 -7 73 -7 113 59 c 2,38,-1
 153 126 l 1,39,-1
 145 143 l 2,40,41
 96 243 96 243 98 367 c 0,42,43
 99 404 99 404 104 432 c 0,44,45
 120 541 120 541 170.5 610.5 c 128,-1,46
 221 680 221 680 294 696 c 0,47,48
 305 698 305 698 327 698 c 128,-1,49
 349 698 349 698 360 696 c 0,50,51
 412 685 412 685 454 645 c 2,52,-1
 462 637 l 1,53,-1
 493 690 l 2,54,55
 525 742 525 742 529 746 c 0,56,57
 536 753 536 753 545 755 c 0,0,1
352 636 m 0,58,59
 313 646 313 646 279 627 c 0,60,61
 217 595 217 595 186 499 c 0,62,63
 138 359 138 359 186 213 c 0,64,65
 192 194 192 194 193 194 c 1,66,67
 193 193 193 193 208.5 218.5 c 128,-1,68
 224 244 224 244 252 290.5 c 128,-1,69
 280 337 280 337 310 387 c 2,70,-1
 427 580 l 1,71,-1
 423 586 l 2,72,73
 409 604 409 604 389 618 c 0,74,75
 373 629 373 629 352 636 c 0,58,59
469 495 m 0,76,77
 468 498 468 498 467 502 c 128,-1,78
 466 506 466 506 465 508.5 c 128,-1,79
 464 511 464 511 464 512 c 2,80,-1
 462 515 l 1,81,-1
 346 322 l 2,82,83
 229 129 229 129 229 127 c 2,84,-1
 233 121 l 2,85,86
 265 80 265 80 304 70 c 0,87,88
 327 64 327 64 350 70 c 0,89,90
 427 92 427 92 469 214 c 0,91,92
 515 354 515 354 469 495 c 0,76,77
EndSplineSet
EndChar

StartChar: cwm
Encoding: 65539 -1 155
Width: 654
GlyphClass: 2
Flags: W
LayerCount: 2
Fore
SplineSet
294 598 m 0,0,1
 297 599 297 599 329 599 c 0,2,3
 356 599 356 599 364 596 c 0,4,5
 375 590 375 590 380 581 c 0,6,7
 382 576 382 576 382 547 c 0,8,9
 382 517 382 517 380 513 c 0,10,11
 374 501 374 501 364 497 c 2,12,-1
 358 494 l 1,13,-1
 327 494 l 1,14,-1
 297 494 l 1,15,-1
 291 497 l 2,16,17
 277 504 277 504 274 515 c 0,18,19
 272 521 272 521 271.5 546.5 c 128,-1,20
 271 572 271 572 273 578 c 0,21,22
 279 593 279 593 294 598 c 0,0,1
EndSplineSet
EndChar

